<?xml version="1.0" standalone="no"?>
<!DOCTYPE svg PUBLIC "-//W3C//DTD SVG 1.1//EN" "http://www.w3.org/Graphics/SVG/1.1/DTD/svg11.dtd" >
<svg xmlns="http://www.w3.org/2000/svg" xmlns:xlink="http://www.w3.org/1999/xlink" version="1.1">
<metadata>
Created by FontForge 20200427 at Tue Aug 12 20:57:52 2014
 By www
Copyright (c) 2008 by PampaType. All rights reserved.
</metadata>
<defs>
<font id="ArltTituloW01-Hueca" horiz-adv-x="500" >
  <font-face 
    font-family="ArltTituloW01-Hueca"
    font-weight="400"
    font-stretch="normal"
    units-per-em="1000"
    panose-1="2 0 5 3 3 0 0 2 0 3"
    ascent="800"
    descent="-200"
    x-height="399"
    cap-height="640"
    bbox="-61 -259 1250 815"
    underline-thickness="50"
    underline-position="-175"
    unicode-range="U+0020-2122"
  />
<missing-glyph horiz-adv-x="224" 
 />
    <glyph glyph-name=".notdef" horiz-adv-x="224" 
 />
    <glyph glyph-name=".null" horiz-adv-x="0" 
 />
    <glyph glyph-name="nonmarkingreturn" horiz-adv-x="333" 
 />
    <glyph glyph-name="space" unicode=" " horiz-adv-x="224" 
 />
    <glyph glyph-name="exclam" unicode="!" horiz-adv-x="341" 
d="M171 623h-10.5t-10.5 -2q-8 -27 -11.5 -60t-3.5 -71q0 -67 8 -145t16 -157q4 -1 12 -1q6 0 9 1q-7 78 -14.5 156t-7.5 144q0 39 4 72.5t9 62.5zM147 174q-13 91 -22.5 179t-9.5 165q0 29 5.5 61.5t15.5 55.5q24 9 47 9q26 0 49 -8q9 -26 15.5 -57t6.5 -61
q0 -77 -9.5 -164.5t-20.5 -178.5q-8 -2 -17 -4t-20 -2q-22 0 -40 5zM120 54q0 24 19 42.5t47 18.5q31 0 49 -17.5t18 -45.5q0 -26 -19 -44t-48 -18q-28 0 -47 17t-19 47zM138 53q0 -22 13 -34.5t33 -14.5q-14 11 -20 25t-6 28t3 24t8 18q-31 -11 -31 -46z" />
    <glyph glyph-name="quotedbl" unicode="&#x22;" horiz-adv-x="477" 
d="M70 435q38 18 61 41.5t23 49.5q0 15 -10.5 22.5t-25.5 7.5q-8 0 -14 -0.5t-16 -2.5q-16 26 -16 54q0 23 18.5 43.5t56.5 20.5t62.5 -25t24.5 -66q0 -28 -13.5 -52.5t-35 -45t-49.5 -36.5t-57 -27zM171 532q0 -18 -11 -38q22 25 22 55q0 21 -11 27.5t-25.5 11t-28 12.5
t-19.5 33q-8 -11 -8 -27q0 -8 2 -17.5t7 -18.5q8 2 13.5 2h12.5q17 0 31.5 -10t14.5 -30zM263 435q38 18 61 41.5t23 49.5q0 15 -10.5 22.5t-25.5 7.5q-8 0 -14 -0.5t-16 -2.5q-16 26 -16 54q0 23 18.5 43.5t56.5 20.5t62.5 -25t24.5 -66q0 -28 -13.5 -52.5t-35 -45
t-49.5 -36.5t-57 -27zM364 532q0 -18 -11 -38q22 25 22 55q0 21 -11 27.5t-25.5 11t-28 12.5t-19.5 33q-8 -11 -8 -27q0 -8 2 -17.5t7 -18.5q8 2 13.5 2h12.5q17 0 31.5 -10t14.5 -30z" />
    <glyph glyph-name="numbersign" unicode="#" horiz-adv-x="704" 
d="M506 391l-53 -159h133l-11 -47h-136l-66 -185h-67l63 185h-113l-67 -185h-74l69 185h-120l11 47h123l56 159h-124l11 45h127l68 191h68l-64 -191h111l71 191h68l-66 -191h128l-11 -45h-135zM322 391l-54 -159h117l54 159h-117z" />
    <glyph glyph-name="dollar" unicode="$" horiz-adv-x="580" 
d="M419 467q24 4 24 35q0 42 -32.5 66t-99.5 26q59 -5 84.5 -32.5t25.5 -67.5q0 -7 -0.5 -13.5t-1.5 -13.5zM304 639q48 0 83.5 -9.5t59 -26t34.5 -38t11 -45.5q0 -38 -20 -53.5t-46 -15.5q-15 0 -27 4q2 6 3 14.5t1 17.5q0 39 -24.5 65t-74.5 29v-202q42 -17 76 -36
t58 -41.5t36.5 -50.5t12.5 -64q0 -83 -51 -133.5t-132 -61.5v-69h-25v67q-86 0 -138.5 31.5t-52.5 85.5q0 38 22.5 56.5t54.5 18.5q11 0 17 -3q-5 -13 -5 -27q0 -50 28 -78.5t74 -30.5v204q-35 17 -69 36t-60 42.5t-42 54.5t-16 72q0 40 14 72t38.5 56t59 38.5t75.5 19.5v62
h25v-61zM382 141q0 30 -18 52.5t-60 43.5v-193q38 5 58 33.5t20 63.5zM200 490q0 -35 21.5 -59t57.5 -41v190q-38 -4 -58.5 -30t-20.5 -60zM132 466q0 48 15.5 79t42.5 48q-41 -22 -60 -59.5t-19 -79.5q0 -48 21.5 -79.5t53.5 -54t69 -39.5t69 -35t53.5 -41.5t21.5 -58.5
t-12.5 -60t-38.5 -44q35 20 54 51t19 63q0 37 -21 61.5t-53 43t-69.5 35t-69.5 38.5t-53.5 53t-22.5 79zM133 163q-29 -15 -29 -54q0 -25 14.5 -44t38.5 -32.5t55.5 -20.5t65.5 -7q-44 7 -74 18.5t-48 27t-26 34t-8 38.5q0 11 3 20t8 20z" />
    <glyph glyph-name="percent" unicode="%" horiz-adv-x="968" 
d="M598 645l40 -16l-278 -656l-40 16zM240 639q38 0 66 -15t47 -41t28 -61t9 -75q0 -41 -11.5 -77.5t-31.5 -63.5t-48.5 -43t-61.5 -16q-36 0 -64 15t-46.5 40.5t-28.5 60t-10 74.5q0 43 11 79.5t31 63.5t48 43t62 16zM240 618q-18 0 -30.5 -16t-20 -41t-10.5 -56t-3 -62
q0 -33 4 -65t12 -56.5t20 -40t28 -15.5q18 0 30 15t19.5 39t10.5 54.5t3 62.5q0 30 -3 62.5t-10.5 58.5t-19.5 43t-30 17zM331 451q0 29 -4.5 57t-12.5 50.5t-20 39t-28 22.5q26 -14 37.5 -61t11.5 -109q0 -75 -10 -120t-42 -67q22 13 35 32.5t20.5 44t10 53t2.5 58.5z
M114 446q0 40 7.5 69.5t19.5 50.5t26 34t27 19q-15 -7 -31.5 -20.5t-30.5 -34.5t-23 -50.5t-9 -67.5q0 -45 9.5 -78t25.5 -55.5t36.5 -35t41.5 -18.5q-41 12 -69 55.5t-30 131.5zM730 384q38 0 66 -15t47 -41t28 -61t9 -75q0 -41 -11.5 -77.5t-31.5 -63.5t-48.5 -43
t-61.5 -16q-36 0 -64 15t-46.5 40.5t-28.5 60t-10 74.5q0 43 11 79.5t31 63.5t48 43t62 16zM730 363q-18 0 -30.5 -16t-20 -41t-10.5 -56t-3 -62q0 -33 4 -65t12 -56.5t20 -40t28 -15.5q18 0 30 15t19.5 39t10.5 54.5t3 62.5q0 30 -3 62.5t-10.5 58.5t-19.5 43t-30 17z
M821 196q0 29 -4.5 57t-12.5 50.5t-20 39t-28 22.5q26 -14 37.5 -61t11.5 -109q0 -75 -10 -120t-42 -67q22 13 35 32.5t20.5 44t10 53t2.5 58.5zM604 191q0 40 7.5 69.5t19.5 50.5t26 34t27 19q-15 -7 -31.5 -20.5t-30.5 -34.5t-23 -50.5t-9 -67.5q0 -45 9.5 -78t25.5 -55.5
t36.5 -35t41.5 -18.5q-41 12 -69 55.5t-30 131.5z" />
    <glyph glyph-name="ampersand" unicode="&#x26;" horiz-adv-x="940" 
d="M753 444q18 70 85 70q32 0 51.5 -21t19.5 -56q0 -24 -12 -54.5t-32.5 -57.5t-49 -45.5t-61.5 -18.5q-27 0 -51 8t-57 27q-8 -35 -25 -68.5t-37 -62.5q28 -30 49.5 -48.5t39 -29t33 -14t31.5 -3.5q10 0 22 2t21 5l8 -13q-11 -13 -24 -26t-29 -23.5t-35.5 -17t-43.5 -6.5
q-19 0 -36.5 3.5t-35.5 12.5t-38 25t-45 40q-16 -14 -37.5 -28.5t-47.5 -26.5t-57.5 -19.5t-68.5 -7.5q-47 0 -88 11.5t-71.5 33.5t-48.5 55t-18 76q0 60 37 102t101 65q-32 24 -51 57t-19 84q0 33 14 67.5t40 63.5t63 47.5t83 18.5q39 0 68.5 -11t49 -28.5t29.5 -39.5
t10 -45q0 -15 -6.5 -30.5t-16.5 -30t-22 -27t-22 -21.5q35 17 59 27t44 10q29 0 51 -8t49 -23q26 -14 55 -31.5t56.5 -32.5t52 -25t40.5 -10t16 15q0 12 -6.5 25.5t-18.5 25.5t-29 21t-38 12zM504 375q-22 13 -38.5 21t-35.5 8q-25 0 -58 -16q-8 6 -10 16q25 16 32 32t7 39
q0 16 -7 31t-19.5 27t-30 19t-38.5 7q-22 0 -42 -5t-35 -13t-24 -20t-9 -25q0 -16 8.5 -27.5t23 -22.5t34 -23t41.5 -27q26 -19 59 -43.5t66.5 -51t64.5 -53.5t54 -49q5 23 7.5 55t2.5 55q0 8 -0.5 18t-1.5 18zM348 56q49 0 78.5 10t57.5 25q-27 30 -60 61t-67 60.5
t-67 55.5t-60 45q-14 -19 -24 -46t-10 -63q0 -33 11.5 -60t32 -46.5t48.5 -30.5t60 -11zM146 490q-3 -9 -3 -22q0 -36 14 -67.5t56 -60.5q63 -44 133 -101.5t135 -126.5q33 -36 58.5 -57.5t46 -33t38 -15t35.5 -3.5q26 0 42.5 7.5t27.5 16.5q-16 -5 -30.5 -7.5t-35.5 -2.5
q-39 0 -77 30t-86 77t-111.5 106t-152.5 116q-30 19 -47.5 37t-27 35.5t-12.5 35t-3 36.5zM560 194q14 32 22 69t8 80l65 -37q29 -16 51 -24t43 -8q18 0 30.5 3t23 8.5t19.5 13t18 16.5q-18 -12 -35 -18.5t-43 -6.5q-17 0 -37 7.5t-40 18.5l-187 100q-9 5 -19.5 8.5
t-23.5 3.5q-12 0 -26 -6.5t-37 -17.5q13 6 23.5 8t20.5 2q22 0 46 -13l90 -50q0 -7 1 -13q0 -5 0.5 -11.5t0.5 -12.5q0 -29 -3.5 -62.5t-10.5 -57.5zM98 177q0 42 20.5 75t47.5 53q-36 -17 -63 -52.5t-27 -82.5q0 -41 16.5 -72t45 -53t66.5 -33t81 -11q45 0 76.5 8t53.5 18
q-22 -7 -50 -10.5t-50 -3.5q-40 0 -79 9.5t-69.5 29.5t-49.5 51t-19 74zM405 436q23 29 23 67q0 15 -6 31t-19 28.5t-33.5 21t-48.5 8.5q-32 0 -58 -12t-43 -31q17 10 37.5 16.5t46.5 6.5q28 0 48.5 -9t34 -22.5t20.5 -29.5t7 -31q0 -23 -9 -44zM765 450q12 -2 26.5 -7.5
t27 -15t22.5 -24.5t14 -34q1 8 2 15t1 15q0 32 -17 47t-41 15q-19 0 -35 -11z" />
    <glyph glyph-name="quotesingle" unicode="'" horiz-adv-x="274" 
d="M59 435q38 18 61 41.5t23 49.5q0 15 -10.5 22.5t-25.5 7.5q-8 0 -14 -0.5t-16 -2.5q-16 26 -16 54q0 23 18.5 43.5t56.5 20.5t62.5 -25t24.5 -66q0 -28 -13.5 -52.5t-35 -45t-49.5 -36.5t-57 -27zM160 532q0 -18 -11 -38q22 25 22 55q0 21 -11 27.5t-25.5 11t-28 12.5
t-19.5 33q-8 -11 -8 -27q0 -8 2 -17.5t7 -18.5q8 2 13.5 2h12.5q17 0 31.5 -10t14.5 -30z" />
    <glyph glyph-name="parenleft" unicode="(" horiz-adv-x="434" 
d="M414 647q-116 -27 -176 -129.5t-60 -266.5q0 -175 63.5 -276.5t172.5 -128.5v-31q-79 4 -147.5 36t-118.5 87t-79 132t-29 173q0 92 29.5 169t80.5 134t119 90t145 38v-27zM287 627q-38 -18 -78 -50t-73 -79t-54.5 -109.5t-21.5 -142.5q0 -83 20 -146.5t52 -110
t71.5 -77.5t78.5 -48q-34 20 -68 52t-61 78.5t-44 109t-17 143.5q0 76 17 137.5t45 108.5t63 80.5t70 53.5z" />
    <glyph glyph-name="parenright" unicode=")" horiz-adv-x="434" 
d="M20 -155q116 27 176 127.5t60 264.5q0 174 -63.5 279t-172.5 131v27q79 -4 147.5 -35.5t118.5 -86t79 -131.5t29 -173q0 -92 -29.5 -169t-80.5 -134t-119 -91t-145 -39v30zM113 -136q36 17 70.5 48t62 77.5t44 108.5t16.5 141q0 80 -16 144t-43 112t-62 80t-72 49
q32 -20 61.5 -53.5t52 -81.5t36 -110.5t13.5 -140.5q0 -74 -13 -134t-35 -107t-51.5 -80.5t-63.5 -52.5z" />
    <glyph glyph-name="asterisk" unicode="*" horiz-adv-x="526" 
d="M412 580q-9 0 -22 -8.5t-27 -21t-27.5 -28t-25.5 -29.5l99 59q8 5 12.5 8.5t4.5 8.5q0 11 -14 11zM397 335q7 -4 14 -4q6 0 9 4.5t3 7.5q0 8 -15 16l-100 59q23 -29 44.5 -50.5t44.5 -32.5zM93 398q-12 -7 -12 -16q0 -11 9 -11q8 0 18 5l103 54q-37 -5 -67 -12.5
t-51 -19.5zM86 535q-10 0 -10 -10t12.5 -18t32 -14t42.5 -10t44 -7l-104 52l-10 5t-7 2zM471 535q0 -20 -16.5 -32.5t-41.5 -20.5t-53.5 -13t-53.5 -8l-14 25q13 19 28 39t31.5 36.5t33 27t32.5 10.5q20 0 37 -19.5t17 -44.5zM318 632q0 -15 -4.5 -33t-11 -36t-13.5 -34.5
t-12 -29.5h-28q-6 13 -14 30.5t-14.5 35.5t-11 35t-4.5 30q0 26 14.5 41.5t41.5 15.5q26 0 41.5 -13.5t15.5 -41.5zM55 535q0 25 17 44.5t37 19.5q16 0 32.5 -10.5t33 -27t31.5 -36.5t28 -39l-14 -25q-26 3 -55 7.5t-53.5 13t-40.5 21t-16 32.5zM471 370q0 -25 -17 -44.5
t-37 -19.5q-16 0 -32.5 10.5t-33 27t-31.5 36.5t-28 39l14 25q25 -3 53.5 -7.5t53.5 -13t41.5 -21t16.5 -32.5zM261 218q-27 0 -41.5 15.5t-14.5 41.5q0 13 4.5 30t11 35t14.5 35t14 31h28q5 -13 12 -29.5t13.5 -34.5t11 -36t4.5 -33q0 -28 -15.5 -41.5t-41.5 -13.5zM84 412
q13 7 30 12.5t35.5 9t36.5 6t34 4.5l14 -25q-13 -19 -28 -39t-31.5 -36.5t-33 -27t-32.5 -10.5q-20 0 -37 19.5t-17 44.5q0 27 29 42zM221 633q0 -25 10 -54t25 -63l-9 116q-1 22 -12 22q-14 0 -14 -21zM221 272q0 -21 14 -21q11 0 12 22l9 116q-15 -34 -25 -63t-10 -54z
" />
    <glyph glyph-name="plus" unicode="+" horiz-adv-x="533" 
d="M84 271h151v140h61v-140h153v-46h-153v-155h-61v155h-151v46z" />
    <glyph glyph-name="comma" unicode="," horiz-adv-x="292" 
d="M64 -115q38 18 61 41.5t23 49.5q0 15 -10.5 22.5t-25.5 7.5q-8 0 -14 -0.5t-16 -2.5q-16 26 -16 54q0 23 18.5 43.5t56.5 20.5t62.5 -25t24.5 -66q0 -28 -13.5 -52.5t-35 -45t-49.5 -36.5t-57 -27zM165 -18q0 -18 -11 -38q22 25 22 55q0 21 -11 27.5t-25.5 11t-28 12.5
t-19.5 33q-8 -11 -8 -27q0 -8 2 -17.5t7 -18.5q8 2 13.5 2h12.5q17 0 31.5 -10t14.5 -30z" />
    <glyph glyph-name="hyphen" unicode="-" horiz-adv-x="393" 
d="M86 268h227l-6 -46h-227z" />
    <glyph glyph-name="hyphen" unicode="&#xad;" horiz-adv-x="393" 
d="M86 268h227l-6 -46h-227z" />
    <glyph glyph-name="period" unicode="." horiz-adv-x="272" 
d="M64 61q0 27 20 47.5t52 20.5q34 0 53 -19.5t19 -50.5q0 -29 -20 -49t-52 -20q-31 0 -51.5 19t-20.5 52zM82 60q0 -24 14 -39t37 -17q-15 13 -21.5 29.5t-6.5 31.5q0 16 3.5 26t8.5 21q-16 -5 -25.5 -18.5t-9.5 -33.5z" />
    <glyph glyph-name="slash" unicode="/" horiz-adv-x="431" 
d="M368 682l40 -16l-356 -853l-40 16z" />
    <glyph glyph-name="zero" unicode="0" horiz-adv-x="603" 
d="M304 640q63 0 109.5 -25t77.5 -68.5t46.5 -101.5t15.5 -125q0 -69 -19 -129.5t-52.5 -106t-80.5 -72t-103 -26.5q-60 0 -106.5 24.5t-78 67.5t-47.5 101t-16 124q0 71 18.5 132.5t51.5 107t80 71.5t104 26zM303 605q-30 0 -50 -26.5t-33 -68t-18.5 -93.5t-5.5 -103
q0 -56 6.5 -109t20 -94t33.5 -66.5t47 -25.5q30 0 50.5 24.5t32.5 65t17 91t5 103.5q0 51 -5 104.5t-17 97.5t-32.5 72t-50.5 28zM455 326q0 49 -7 95.5t-21 84.5t-34.5 65t-46.5 38q22 -12 38 -38.5t26 -64t14.5 -84t4.5 -97.5q0 -62 -4 -111.5t-13.5 -88t-26.5 -66.5
t-43 -46q36 22 58 54.5t34.5 73.5t16.5 88t4 97zM94 319q0 66 12.5 115t32 84t43 56.5t44.5 32.5q-24 -12 -51.5 -34.5t-50.5 -58t-38.5 -84t-15.5 -112.5q0 -76 16 -130.5t42.5 -91.5t60.5 -58.5t70 -31.5q-34 10 -64 32.5t-52 60.5t-35 92t-14 128z" />
    <glyph glyph-name="one" unicode="1" horiz-adv-x="446" 
d="M66 626l231 22q4 -2 8 -6t6 -7l-8 -89v-465q0 -32 11.5 -40.5t43.5 -8.5h44v-32h-325v32h51q15 0 24 1.5t14 7t6.5 15t1.5 25.5v446q0 34 -11.5 47.5t-50.5 13.5h-44zM157 597q18 -2 26.5 -16t8.5 -31v-494q0 -14 -5 -24.5t-23 -15.5q16 2 23.5 2h17.5h8v583z" />
    <glyph glyph-name="two" unicode="2" horiz-adv-x="569" 
d="M263 640q51 0 90.5 -13t66.5 -36t41.5 -55.5t14.5 -71.5q0 -59 -24 -104t-65 -86t-97 -82.5t-120 -93.5l2 -3q18 6 44 6h200q22 0 32.5 13.5t16.5 54.5l30 -2q-2 -29 -3 -59.5t-3 -59.5t-15 -38.5t-46 -9.5h-349v18q0 37 26 66t66 65q41 37 76 71.5t60.5 69.5t39.5 72.5
t14 81.5q0 51 -25 82.5t-79 31.5q-48 0 -74.5 -29.5t-26.5 -69.5q0 -22 6 -40.5t17 -37.5q-54 0 -89 25.5t-35 76.5q0 34 15.5 62.5t43 49.5t65.5 33t84 12zM282 572q45 -6 71.5 -38.5t26.5 -87.5q0 -32 -6 -58t-19 -52t-34 -53t-50 -60q30 31 55 57t42.5 52.5t27 54.5
t9.5 62q0 60 -33 89t-90 34zM95 492q0 42 24.5 76t63.5 47q-49 -15 -80 -48.5t-31 -81.5q0 -73 80 -88q-57 34 -57 95zM99 34q-2 -5 -2 -8.5v-8.5l344 1q14 0 20.5 5t8.5 19l4 41q-9 -27 -17 -38t-28 -11h-330z" />
    <glyph glyph-name="three" unicode="3" horiz-adv-x="555" 
d="M72 508q0 -37 24 -52t62 -15q-33 6 -49 26t-16 50q0 24 10.5 45.5t26.5 33.5q-21 -12 -39.5 -34.5t-18.5 -53.5zM271 640q100 0 152.5 -39.5t52.5 -103.5q0 -61 -34.5 -96t-97.5 -55v-5q37 -2 68.5 -11.5t53.5 -26.5t34.5 -42.5t12.5 -59.5q0 -49 -23 -88.5t-61.5 -67.5
t-89 -43.5t-105.5 -15.5q-33 0 -63.5 4.5t-53.5 14.5t-36.5 27t-13.5 42q0 38 28.5 57.5t79.5 21.5q0 -52 26.5 -83t67.5 -31q27 0 46 12t31.5 33t18.5 49t6 59q0 51 -21 83t-67 32q-18 0 -36.5 -3.5t-35.5 -8.5q-9 14 -9 30q0 17 26 17l34 1q25 1 42.5 11.5t28 27.5
t15.5 40t5 49q0 44 -24.5 73.5t-64.5 29.5q-42 0 -64.5 -24.5t-22.5 -56.5q0 -18 5 -34t13 -29q-14 -3 -32 -3q-107 0 -107 79q0 28 15 52.5t43 42.5t67.5 28.5t89.5 10.5zM242 1q-134 6 -134 82q0 34 27 51q-20 -4 -35.5 -17.5t-15.5 -38.5q0 -41 41.5 -59t116.5 -18z
M277 590q41 -5 67.5 -36t26.5 -79q0 -35 -8.5 -63.5t-33.5 -51.5q36 23 52 53t16 67q0 48 -33 79t-87 31zM297 321q25 -3 42.5 -14t28.5 -28.5t16.5 -39t5.5 -45.5q0 -54 -16.5 -91.5t-45.5 -64.5q41 26 64.5 65.5t23.5 96.5q0 53 -31.5 87t-87.5 34z" />
    <glyph glyph-name="four" unicode="4" horiz-adv-x="632" 
d="M265 615q0 -83 -21 -160t-80 -158q125 152 125 271q0 52 -24 69v-22zM380 564q0 -41 -22 -85.5t-59.5 -91.5t-86.5 -97t-102 -102h247v215q35 5 65.5 15t62.5 27v-257h110l-7 -30h-103v-84q0 -26 16 -40t51 -15h12v-21q-42 0 -78 1t-67 1q-35 0 -73.5 -0.5t-69.5 -1.5v21
q25 1 41 4.5t25 11t12 19.5t3 29v75h-261q-11 0 -19 0.5t-14 3.5t-10 10t-7 20q55 56 93 107t61 105t33.5 116t10.5 140q64 0 100 -21.5t36 -74.5zM376 388v-316q0 -47 -43 -58q15 2 30.5 2.5t24.5 0.5h19t22 -1q-17 7 -25 17.5t-8 35.5v323z" />
    <glyph glyph-name="five" unicode="5" horiz-adv-x="536" 
d="M292 620q47 0 84.5 9t72.5 26l15 -13q-20 -54 -60.5 -88t-113.5 -34q-26 0 -50.5 4t-45.5 12l19 -171q28 12 55.5 20t62.5 8q69 0 113.5 -41t44.5 -122q0 -47 -21.5 -90.5t-58.5 -76.5t-86.5 -53t-105.5 -20q-31 0 -59.5 4.5t-50 15t-34 27.5t-12.5 41q0 35 27 57.5
t76 24.5q4 -24 11.5 -46.5t20 -39.5t29.5 -27t40 -10q41 0 65.5 35.5t24.5 108.5q0 67 -36 103t-97 36q-37 0 -68.5 -7.5t-61.5 -17.5v362q52 -17 103.5 -27t96.5 -10zM111 321l20 7v250q38 -17 79.5 -28.5t80.5 -11.5q47 0 77 15.5t52 40.5q-31 -20 -60 -28t-66 -8
q-42 0 -86 12.5t-97 36.5v-286zM222 336q72 0 112 -38t40 -107q0 -40 -6 -73t-23 -61q24 35 38.5 72.5t14.5 81.5q0 58 -32.5 94.5t-90.5 36.5q-26 0 -53 -6zM127 140q-20 -6 -33 -19.5t-13 -36.5q0 -35 29 -55.5t99 -24.5q-44 6 -73.5 29.5t-29.5 57.5q0 17 6 29t15 20z
" />
    <glyph glyph-name="six" unicode="6" horiz-adv-x="561" 
d="M321 351q36 0 68 -10t56 -31t38 -52t14 -73q0 -38 -14.5 -73t-43 -63t-70 -44.5t-95.5 -16.5q-46 0 -86 15.5t-69.5 45.5t-46.5 75t-17 104q0 69 27 135t78.5 121.5t126 96.5t169.5 62q6 -6 8.5 -16.5t2.5 -21.5q-119 -45 -185 -121.5t-86 -165.5q28 14 58 23.5t67 9.5z
M288 31q41 0 62 38t21 96q0 30 -8.5 54t-22.5 41t-33 26t-40 9q-20 0 -38.5 -4t-36.5 -10q0 -5 -1 -14t-2 -19.5t-1.5 -21t-0.5 -19.5q0 -33 6 -65t19 -56.5t31.5 -39.5t44.5 -15zM240 533q-26 -18 -55 -45.5t-53.5 -66t-41 -87t-16.5 -107.5q0 -49 14 -88.5t38 -68
t56.5 -45.5t70.5 -22q-38 5 -66.5 24.5t-47.5 50.5t-28.5 71.5t-9.5 87.5q0 50 10.5 92.5t29.5 79t44.5 67t54.5 57.5zM282 310q50 -3 79.5 -42.5t29.5 -100.5q0 -45 -12.5 -80.5t-38.5 -56.5q41 28 61.5 64.5t20.5 78.5q0 60 -37 97.5t-103 39.5z" />
    <glyph glyph-name="seven" unicode="7" horiz-adv-x="548" 
d="M494 630q18 0 18 -17q0 -12 -13 -25q-62 -65 -105.5 -136t-71 -140t-40 -133t-12.5 -113q0 -25 3 -44.5t7 -35.5q-11 -1 -21 -2t-21 -1q-48 0 -76.5 22t-28.5 65q0 41 17.5 95t53 115.5t88 128t122.5 132.5h-208q-27 0 -48.5 -2.5t-40 -12t-34 -28t-29.5 -49.5l-20 6
q5 47 14.5 95.5t23.5 89.5q35 -5 68.5 -7.5t68.5 -2.5h285zM90 572q-7 -18 -11 -34t-9 -34q20 29 49 39.5t67 10.5h242l15 13h-261q-27 0 -48.5 1t-43.5 4zM156 76q0 -42 25.5 -59t69.5 -17q-32 7 -48.5 30t-16.5 65q0 35 9 73t23.5 75.5t33.5 72t39 63.5q-27 -37 -51 -75.5
t-43 -77t-30 -76.5t-11 -74z" />
    <glyph glyph-name="eight" unicode="8" horiz-adv-x="554" 
d="M287 640q51 0 92 -11.5t70 -32t45 -49t16 -63.5q0 -36 -13 -61.5t-34.5 -44t-50.5 -31.5t-61 -25q34 -18 62 -36t48 -38.5t30.5 -43.5t10.5 -52q0 -36 -18.5 -66.5t-51 -52.5t-75.5 -34.5t-92 -12.5q-44 0 -82 11t-66.5 30.5t-45 47.5t-16.5 61q0 54 36 92t102 58
q-30 16 -56.5 34.5t-46 40.5t-31 48.5t-11.5 58.5q0 37 17.5 69t49 54.5t75.5 35.5t97 13zM274 598q-21 0 -39 -7.5t-32 -20.5t-22 -32t-8 -41q0 -51 36.5 -85.5t102.5 -69.5q33 20 54 52.5t21 76.5q0 25 -8 48t-22.5 40.5t-35.5 28t-47 10.5zM281 25q43 0 67.5 25t24.5 66
q0 45 -36 76.5t-103 68.5q-23 -18 -41.5 -45.5t-18.5 -71.5q0 -57 30.5 -88t76.5 -31zM90 485q0 43 19.5 69t42.5 40q-38 -19 -61 -49t-23 -72q0 -47 24 -80t60 -59t78.5 -48t78.5 -46t60 -52.5t24 -68.5q0 -32 -14 -55.5t-36 -37.5q32 16 53 40.5t21 59.5q0 42 -24 72
t-60 54.5t-78.5 46t-78.5 47.5t-60.5 59t-25.5 80zM436 478q0 51 -31 84t-87 46q46 -14 67.5 -50.5t21.5 -83.5q0 -41 -18 -75t-56 -60q48 28 75.5 61.5t27.5 77.5zM76 139q0 -24 10 -44.5t27 -37t39.5 -28t47.5 -18.5q-47 18 -72 50.5t-25 80.5q0 40 24.5 78t76.5 55
q-57 -18 -92.5 -52.5t-35.5 -83.5z" />
    <glyph glyph-name="nine" unicode="9" horiz-adv-x="561" 
d="M231 271q-36 0 -68 10.5t-56 31t-38 52t-14 73.5q0 37 14.5 72.5t43 63.5t70 44.5t95.5 16.5q46 0 86 -15.5t69.5 -45.5t46.5 -75t17 -104q0 -69 -27 -135t-78.5 -121.5t-126 -96.5t-169.5 -62q-6 6 -8.5 16.5t-2.5 21.5q119 45 185 121.5t86 165.5q-28 -14 -58 -24
t-67 -10zM264 592q-41 0 -62 -38t-21 -96q0 -30 8.5 -54t22.5 -41t33 -26t40 -9q20 0 38.5 4t36.5 10q1 11 3 33.5t2 39.5q0 34 -6 65.5t-19 56.5t-32 40t-44 15zM246 288q-69 7 -105 49t-36 110q0 50 23 91.5t55 63.5q-48 -22 -78 -65t-30 -98q0 -40 13.5 -68.5t36.5 -47
t54.5 -27t66.5 -8.5zM225 68q87 62 139.5 144t52.5 192q0 83 -27 129.5t-79 65.5q20 -10 34.5 -28.5t23.5 -43t13.5 -53t4.5 -59.5q0 -106 -36 -190t-126 -157z" />
    <glyph glyph-name="colon" unicode=":" horiz-adv-x="277" 
d="M64 61q0 27 20 47.5t52 20.5q34 0 53 -19.5t19 -50.5q0 -29 -20 -49t-52 -20q-31 0 -51.5 19t-20.5 52zM82 60q0 -24 14 -39t37 -17q-15 13 -21.5 29.5t-6.5 31.5q0 16 3.5 26t8.5 21q-16 -5 -25.5 -18.5t-9.5 -33.5zM69 305q0 27 20 47.5t52 20.5q34 0 53 -19.5
t19 -50.5q0 -29 -20 -49t-52 -20q-31 0 -51.5 19t-20.5 52zM87 304q0 -24 14 -39t37 -17q-15 13 -21.5 29.5t-6.5 31.5q0 16 3.5 26t8.5 21q-16 -5 -25.5 -18.5t-9.5 -33.5z" />
    <glyph glyph-name="semicolon" unicode=";" horiz-adv-x="292" 
d="M72 305q0 27 20 47.5t52 20.5q34 0 53 -19.5t19 -50.5q0 -29 -20 -49t-52 -20q-31 0 -51.5 19t-20.5 52zM90 304q0 -24 14 -39t37 -17q-15 13 -21.5 29.5t-6.5 31.5q0 16 3.5 26t8.5 21q-16 -5 -25.5 -18.5t-9.5 -33.5zM64 -115q38 18 61 41.5t23 49.5q0 15 -10.5 22.5
t-25.5 7.5q-8 0 -14 -0.5t-16 -2.5q-16 26 -16 54q0 23 18.5 43.5t56.5 20.5t62.5 -25t24.5 -66q0 -28 -13.5 -52.5t-35 -45t-49.5 -36.5t-57 -27zM165 -18q0 -18 -11 -38q22 25 22 55q0 21 -11 27.5t-25.5 11t-28 12.5t-19.5 33q-8 -11 -8 -27q0 -8 2 -17.5t7 -18.5
q8 2 13.5 2h12.5q17 0 31.5 -10t14.5 -30z" />
    <glyph glyph-name="less" unicode="&#x3c;" horiz-adv-x="539" 
d="M36 225l437 315v-73l-295 -212l295 -222v-144l-437 326v10zM447 -64v28l-332 247l-19 -13z" />
    <glyph glyph-name="equal" unicode="=" horiz-adv-x="493" 
d="M84 304h325v-46h-325v46zM84 179h325v-46h-325v46z" />
    <glyph glyph-name="greater" unicode="&#x3e;" horiz-adv-x="539" 
d="M503 204l-437 -315v73l295 212l-295 222v144l437 -326v-10zM402 203l-310 232v-28l292 -217z" />
    <glyph glyph-name="question" unicode="?" horiz-adv-x="543" 
d="M184 57q0 26 19.5 45t48.5 19q32 0 50 -18.5t18 -47.5q0 -26 -18.5 -45.5t-49.5 -19.5q-29 0 -48.5 18t-19.5 49zM202 56q0 -23 13.5 -36t34.5 -15q-14 12 -20 27t-6 29q0 15 3 25t8 18q-14 -5 -23.5 -17t-9.5 -31zM62 502q0 25 12.5 50t38 44t65 31t93.5 12
q105 0 154.5 -42t49.5 -105q0 -31 -9 -54t-24.5 -42.5t-37 -36t-46.5 -34.5q-17 -12 -32.5 -22t-27.5 -19.5t-19 -19.5t-7 -23q0 -23 12.5 -34.5t34.5 -19.5l-8 -19q-29 0 -54.5 4.5t-44.5 15t-30.5 27t-11.5 41.5q0 37 25 61t66 53q27 19 45.5 33.5t30.5 29t17 30.5t5 37
q0 36 -22.5 63.5t-66.5 27.5q-43 0 -67 -27t-24 -65q0 -29 9.5 -48.5t23.5 -39.5q-21 -3 -36 -3q-54 0 -84 23t-30 71zM153 599q-29 -12 -50.5 -35t-21.5 -58q0 -44 26 -62.5t69 -20.5q-35 10 -54 31.5t-19 59.5q0 28 14 49.5t36 35.5zM187 257q0 -29 16 -43t42 -23
q-17 7 -28 22t-11 39q0 22 14 39.5t35.5 34.5t46 33.5t46 36t35.5 43t14 53.5q0 32 -16 53t-36 36q20 -19 27.5 -39t7.5 -46q0 -28 -14.5 -50.5t-35.5 -41.5t-46.5 -36t-46.5 -34t-35.5 -36t-14.5 -41z" />
    <glyph glyph-name="at" unicode="@" horiz-adv-x="946" 
d="M451 28q0 19 15.5 47t31.5 60q-55 -66 -106.5 -109t-103.5 -43q-30 0 -49.5 20.5t-19.5 64.5q0 34 12.5 73t34.5 78t51.5 75t63.5 64t71.5 44.5t74.5 16.5q58 0 75 -54q10 26 18 36t19 10q7 0 25 -2.5t36.5 -7t32.5 -9.5t14 -11t-13.5 -32.5t-33 -62.5t-41.5 -77t-38 -77
q-5 -10 -12 -25t-13.5 -30t-11.5 -28.5t-5 -19.5q0 -13 12 -13q48 0 90 20.5t73.5 55t49.5 80t18 95.5q0 68 -24.5 121.5t-67 90t-100.5 55.5t-124 19q-75 0 -144.5 -29.5t-123.5 -81.5t-86 -123.5t-32 -155.5q0 -77 26.5 -135t71.5 -98t105 -60t128 -20q99 0 167 30t119 83
q5 0 10 -2.5t5 -7.5q-24 -25 -53 -47.5t-66 -39t-83.5 -26t-106.5 -9.5q-63 0 -124.5 20t-110 61t-79 103t-30.5 146q0 88 33.5 163t90.5 130t132.5 86t159.5 31q66 0 125.5 -20t104 -58.5t70.5 -94t26 -127.5q0 -65 -24 -118.5t-67.5 -92t-105.5 -59.5t-137 -21
q-24 0 -40 13t-16 35zM530 399q-27 0 -57 -30.5t-56 -76t-43 -98t-17 -96.5q0 -12 3 -24.5t14 -12.5q19 0 42.5 16.5t46.5 42.5t44.5 57.5t38.5 62.5t27 57t10 40q0 27 -12 44.5t-41 17.5zM484 70q-4 -9 -8.5 -20.5t-4.5 -21.5q0 -15 10 -23t26 -9q-9 4 -14 9.5t-5 16.5
q0 14 5.5 26t12.5 26l148 315q-8 2 -15 2t-11 -9zM259 78q0 19 7 47.5t19.5 61t30.5 65t41 61.5q-26 -27 -48 -58t-38 -63t-25.5 -62.5t-9.5 -56.5q0 -40 17.5 -58t40.5 -18q22 0 38 7.5t31 18.5q-10 -7 -22.5 -11t-28.5 -4q-21 0 -37 15t-16 55z" />
    <glyph glyph-name="A" unicode="A" horiz-adv-x="631" 
d="M623 -3q-17 1 -32 1.5t-30 0.5h-31.5h-38.5q-41 0 -74 -0.5t-71 -2.5v22q26 3 39.5 11.5t13.5 37.5q0 10 -6 31.5t-13.5 44.5t-14.5 44.5t-10 32.5h-184q-5 -16 -13 -38t-15.5 -44.5t-13 -42.5t-5.5 -31q0 -23 19.5 -33.5t47.5 -12.5l23 -2v-21q-34 1 -62.5 1.5
t-62.5 0.5h-23.5t-18.5 -0.5t-19 -1t-24 -0.5v19q21 7 37 15.5t28.5 22t23.5 34t22 51.5l181 506q27 3 56 14l166 -476q13 -39 24 -67.5t22 -48.5t25 -31t34 -15v-22zM265 490l-86 -247h170zM369 240q7 -21 15.5 -47t16 -51t12.5 -46t5 -33q0 -15 -6.5 -26.5t-22.5 -22.5
q16 2 29.5 2.5t29.5 0.5h24t29 -2q-24 9 -36 25.5t-22 45.5l-154 470l-12 -35zM106 57q0 4 0.5 10t3.5 17q-14 -28 -30 -43.5t-39 -26.5q8 0 12.5 0.5l9 1t9.5 0.5h13q14 0 26.5 -0.5t29.5 -1.5q-35 12 -35 43z" />
    <glyph glyph-name="B" unicode="B" horiz-adv-x="631" 
d="M126 542q0 39 -16.5 56t-60.5 23v19q40 0 80 -1.5t72 -1.5q35 0 72 1.5t91 1.5q37 0 70 -9t58 -27.5t40 -46.5t15 -66q0 -60 -38.5 -96t-98.5 -55v-4q72 -10 116 -48.5t44 -103.5q0 -88 -62 -138.5t-169 -50.5q-20 0 -42.5 1l-45 2t-44 2t-37.5 1q-32 0 -64.5 -1
t-58.5 -2v20q46 4 62.5 21.5t16.5 55.5v447zM325 25q27 0 46 11t31 29.5t17.5 44t5.5 55.5q0 71 -30 113t-105 42h-31v-212q0 -42 14.5 -62.5t51.5 -20.5zM398 471q0 30 -7.5 56.5t-22.5 46t-37 30.5t-50 11h-22v-271h30q31 0 52 10.5t34 28t18 40.5t5 48zM444 168
q0 -48 -15.5 -88t-55.5 -62q29 11 48 28t30 38t15.5 45.5t4.5 51.5q0 25 -6.5 48.5t-20.5 42.5t-36.5 32t-54.5 19q48 -17 69.5 -56t21.5 -99zM416 472q0 -45 -15 -77t-48 -53q92 42 92 142q0 53 -29 89t-91 46q50 -16 70.5 -52t20.5 -95zM143 83q0 -27 -10 -42.5t-34 -26.5
q30 3 46 3h17.5t17.5 -1q-18 24 -18 72v528l-57 4q25 -11 31.5 -31t6.5 -42v-464z" />
    <glyph glyph-name="C" unicode="C" horiz-adv-x="675" 
d="M420 0q81 0 128 49.5t70 142.5l22 -2q-1 -44 -9 -91.5t-18 -86.5q-48 -13 -102.5 -23t-117.5 -10q-80 0 -144 24t-108.5 67t-68.5 102.5t-24 129.5q0 69 25 131t70.5 109t109 74.5t140.5 27.5q64 0 112 -7.5t91 -20.5q10 -39 15.5 -80t7.5 -92l-20 -2q-13 37 -30 69
t-41.5 54.5t-59.5 35.5t-83 13q-44 0 -79 -22.5t-59 -60.5t-37 -89.5t-13 -108.5q0 -64 13.5 -124t41.5 -106.5t70 -74.5t98 -28zM66 295q0 -60 18 -109.5t50.5 -87t76.5 -63t96 -37.5q-46 15 -85 43.5t-67.5 68.5t-45 91t-16.5 110q0 78 26 140t71 108q-32 -23 -55.5 -52.5
t-38.5 -63.5t-22.5 -71.5t-7.5 -76.5zM580 596q-17 6 -47.5 12.5t-56.5 11.5q49 -20 81 -55.5t47 -92.5q-5 35 -10.5 66.5t-13.5 57.5zM597 31q6 24 12.5 54.5t11.5 65.5q-12 -42 -34 -79.5t-64 -62.5q23 6 40.5 11t33.5 11z" />
    <glyph glyph-name="D" unicode="D" horiz-adv-x="738" 
d="M329 615q-38 0 -55 -18.5t-17 -60.5v-423q0 -54 22.5 -74t65.5 -20q52 0 88 26t58.5 67t32 91.5t9.5 100.5q0 54 -12 109.5t-37.5 100.5t-64 73t-90.5 28zM349 642q79 0 142.5 -21.5t107 -61.5t67 -96.5t23.5 -126.5q0 -71 -23.5 -132.5t-68.5 -108t-111.5 -73
t-152.5 -26.5q-38 0 -77 2.5t-87 2.5q-32 0 -64.5 -1t-59.5 -2v20q47 4 63 21.5t16 55.5v452q0 35 -17 50t-62 19v21q27 -1 64.5 -2t70.5 -1q44 0 86.5 4t82.5 4zM578 324q0 44 -8.5 87.5t-28.5 82t-52 68.5t-78 48q37 -19 64 -50.5t43.5 -71.5t24.5 -87t8 -96
q0 -35 -4.5 -72t-15.5 -72.5t-30.5 -67.5t-49.5 -57q40 29 65 61t38.5 68t18.5 75.5t5 83.5zM143 617q-9 0 -19.5 0.5t-25.5 2.5q27 -11 35 -30t8 -43v-464q0 -25 -10 -41.5t-33 -27.5q15 2 30.5 2.5t24.5 0.5h19.5t22.5 -1q-19 10 -26.5 24t-7.5 40v471q0 24 4 40t17 27
q-8 -1 -19.5 -1h-19.5z" />
    <glyph glyph-name="E" unicode="E" horiz-adv-x="584" 
d="M181 634h59.5t81.5 0.5t90.5 1t86.5 1.5q14 -38 22.5 -78.5t14.5 -85.5l-20 -3q-15 37 -32 63.5t-41 43.5t-58 25.5t-83 8.5h-44v-279h15q42 0 68 3.5t41.5 14t24 29.5t15.5 49l16 -3q-3 -26 -5 -54.5t-2 -58.5q0 -29 1.5 -56t3.5 -52l-15 -2q-8 33 -16 53t-23.5 31.5
t-42 15t-71.5 3.5h-10v-285h86q45 0 77 9.5t54 27.5t36.5 44.5t25.5 60.5l16 -2q-4 -49 -13.5 -91t-19.5 -74q-41 0 -86.5 1t-91 1.5t-88 1.5t-76.5 1q-32 0 -68.5 -0.5t-62.5 -1.5v20q46 4 62.5 21.5t16.5 55.5v452q0 35 -17.5 50t-61.5 19v21q26 -1 64 -2t70 -1zM145 617
q-16 0 -46 3q28 -11 36 -30t8 -43v-464q0 -25 -10 -41.5t-34 -27.5q15 2 31 2.5t24 0.5h8v600h-17zM399 615q47 -10 72 -35t43 -67q-5 26 -13 53.5t-17 49.5q-14 -1 -20.5 -1.5t-18.5 -0.5zM457 18h24t25 -1q8 22 13.5 41.5t12.5 46.5q-15 -34 -41.5 -56.5t-65.5 -30.5h32z
" />
    <glyph glyph-name="F" unicode="F" horiz-adv-x="565" 
d="M258 106q0 -24 3.5 -40.5t12.5 -27t24.5 -15.5t38.5 -7v-21q-47 0 -90 2.5t-69 2.5q-33 0 -69 -0.5t-63 -1.5v20q47 4 63.5 21.5t16.5 55.5v452q0 35 -17.5 50t-62.5 19v21q27 -1 65 -2t70 -1h59t81.5 0.5t91 1t86.5 1.5q12 -38 19 -77t12 -77l-19 -4q-16 35 -32 60
t-38.5 41t-54 23.5t-78.5 7.5h-50v-279h15q41 0 66.5 3.5t41.5 14t25 29.5t16 49l15 -3q-6 -51 -6 -113q0 -29 1 -56t4 -52l-15 -2q-8 33 -17 53t-24.5 31.5t-42 15t-69.5 3.5h-10v-199zM144 617q-15 0 -45 3q28 -11 35.5 -30t7.5 -43v-464q0 -25 -9.5 -41.5t-33.5 -27.5
q15 2 30.5 2.5t24.5 0.5h8v600h-18zM444 614h-18.5t-21.5 1q46 -8 68.5 -33t39.5 -67q-5 26 -12 52.5t-16 48.5q-9 -1 -19 -1.5t-21 -0.5z" />
    <glyph glyph-name="G" unicode="G" horiz-adv-x="718" 
d="M541 187q0 14 3.5 23.5t14.5 16.5q-8 -1 -14 -1h-14q-16 0 -29 4q11 -8 14.5 -22t3.5 -29v-170l21 3v175zM65 295q0 -60 18.5 -109.5t50.5 -87t76.5 -63t96.5 -37.5q-46 15 -85.5 44t-68 70t-44.5 92.5t-16 110.5q0 78 25.5 138t70.5 106q-63 -45 -93.5 -115.5
t-30.5 -148.5zM583 597q-18 6 -44 11.5t-52 9.5q49 -17 76.5 -49.5t42.5 -86.5q-5 33 -10.5 62t-12.5 53zM638 9q-24 -5 -54 -10t-63 -9.5t-66 -7.5t-62 -3q-81 0 -145 24t-108.5 67t-68.5 102.5t-24 129.5q0 69 25 131t70.5 109t109 74.5t140.5 27.5q64 0 116.5 -7.5
t92.5 -19.5q10 -39 16 -82t8 -94l-20 -4q-13 37 -29 69.5t-41.5 56.5t-63 37.5t-94.5 13.5q-47 0 -83 -19.5t-60.5 -55.5t-37 -86.5t-12.5 -111.5q0 -63 15.5 -124t44.5 -109.5t72 -78t99 -29.5q28 0 50 2t41 6v161q0 34 -15.5 51t-60.5 21v19q17 0 32 -0.5t31 -0.5
t34.5 -0.5t41.5 -0.5q16 0 29.5 0.5t27.5 1t29.5 1t35.5 1.5v-21q-17 -3 -27.5 -9.5t-16 -16t-7.5 -22.5t-2 -30v-154z" />
    <glyph glyph-name="H" unicode="H" horiz-adv-x="801" 
d="M755 618q-44 -6 -61.5 -23t-17.5 -58v-431q0 -24 3.5 -40.5t12.5 -27t24.5 -15.5t38.5 -7v-21q-23 0 -42 1l-38 2t-39.5 2t-47.5 1q-32 0 -65 -1t-60 -2v20q48 4 65 21.5t17 55.5v217h-287v-206q0 -48 16.5 -67t63.5 -23v-21q-24 0 -43 1t-37.5 2t-39.5 2t-48 1
q-32 0 -64.5 -1t-58.5 -2v20q46 4 62.5 21.5t16.5 55.5v452q0 35 -17.5 50t-61.5 19v21q26 -1 64 -2t70 -1q46 0 81.5 3t75.5 3v-22q-46 -6 -63 -23t-17 -58v-198h287v208q0 35 -18.5 50t-63.5 19v21q27 -1 64.5 -2t70.5 -1q46 0 81.5 3t75.5 3v-22zM145 617q-16 0 -46 3
q28 -11 36 -30t8 -43v-464q0 -25 -10 -41.5t-34 -27.5q15 2 31 2.5t24 0.5h19.5t22.5 -1q-19 10 -26.5 24t-7.5 40v471q0 26 4 41.5t19 25.5q-8 -1 -20 -1h-20zM562 617q-10 0 -20 0.5t-26 2.5q27 -11 35 -30t8 -43v-464q0 -25 -9.5 -41.5t-33.5 -27.5q16 2 31 2.5t24 0.5
h20t22 -1q-18 10 -26 24t-8 40v471q0 26 5 41.5t19 25.5q-8 -1 -20.5 -1h-20.5z" />
    <glyph glyph-name="I" unicode="I" horiz-adv-x="384" 
d="M338 618q-46 -6 -63 -23t-17 -58v-431q0 -48 16.5 -67t63.5 -23v-21q-24 0 -43 1l-38 2t-39.5 2t-47.5 1q-32 0 -64.5 -1t-59.5 -2v20q47 4 63.5 21.5t16.5 55.5v452q0 35 -17.5 50t-62.5 19v21q27 -1 65 -2t70 -1q45 0 81 3t76 3v-22zM144 617q-15 0 -45 3
q28 -11 35.5 -30t7.5 -43v-464q0 -25 -9.5 -41.5t-33.5 -27.5q15 2 30.5 2.5t24.5 0.5h19.5t22.5 -1q-19 10 -26.5 24t-7.5 40v471q0 26 4 41.5t19 25.5q-8 -1 -20.5 -1h-20.5z" />
    <glyph glyph-name="J" unicode="J" horiz-adv-x="412" 
d="M373 618q-45 -6 -61.5 -23t-16.5 -58v-534q0 -104 -54 -154t-144 -50q-71 0 -114.5 23t-43.5 67q0 35 26.5 56t71.5 21h12.5t12.5 -1q-6 -14 -10 -32.5t-4 -38.5q0 -29 13 -50t39 -21q34 0 48 34t14 83v607q0 35 -18 51t-63 20v21q32 -1 68 -2.5t75 -1.5q24 0 42.5 1
t35.5 1.5t34 1.5t37 1v-22zM181 617q-11 0 -21.5 0.5t-25.5 2.5q27 -11 35.5 -30t8.5 -43v-609q0 -41 -8 -65t-28 -46q23 15 39.5 42.5t16.5 68.5v613q0 26 3.5 41.5t17.5 25.5q-7 -1 -18.5 -1h-19.5zM-22 -108q0 28 12 43t31 20q-31 -2 -48 -19t-17 -46q0 -24 14 -40
t39 -25q-14 10 -22.5 27t-8.5 40z" />
    <glyph glyph-name="K" unicode="K" horiz-adv-x="687" 
d="M170 1q-32 0 -64.5 -1t-59.5 -2v20q47 4 63 21.5t16 55.5v452q0 35 -17 50t-62 19v21q27 -1 64.5 -2t70.5 -1q45 0 81 3t75 3v-22q-45 -6 -62 -23t-17 -58v-206l212 226q11 10 18 20.5t7 20.5t-14.5 13.5t-40.5 6.5v22q19 0 33 -0.5t26 -1t23 -1t25 -0.5q23 0 49 1.5
t64 1.5v-22q-31 -1 -53 -5.5t-39 -12t-30.5 -18.5t-26.5 -24l-163 -175l207 -248q32 -38 61.5 -66.5t63.5 -45.5v-20q-29 -3 -59.5 -5.5t-55.5 -2.5q-20 0 -36 2t-30 8t-28 17.5t-29 31.5l-184 239v-187q0 -24 3.5 -40.5t12.5 -27t24.5 -15.5t38.5 -7v-21q-23 0 -42 1l-38 2
t-39.5 2t-47.5 1zM277 327l-14 -14l194 -251q22 -28 45 -41t57 -13h17q-33 6 -54 20.5t-44 41.5zM154 17h19.5t22.5 -1q-19 10 -26.5 24t-7.5 40v475q0 25 5 38.5t18 23.5h-41q-20 0 -45 3q27 -11 35 -30t8 -43v-464q0 -25 -10 -41.5t-33 -27.5q14 2 30 2.5t25 0.5z" />
    <glyph glyph-name="L" unicode="L" horiz-adv-x="552" 
d="M327 24q44 0 76.5 12t55.5 33t38.5 51t26.5 66l22 -2q-4 -51 -14.5 -98t-23.5 -91q-28 0 -71.5 1t-91.5 2t-94.5 1.5t-80.5 0.5q-32 0 -64.5 -0.5t-58.5 -1.5v20q46 4 62.5 21.5t16.5 55.5v452q0 35 -17.5 50t-61.5 19v21q26 -1 64 -2t70 -1q46 0 81.5 3t75.5 3v-22
q-46 -6 -63 -23t-17 -58v-513h69zM145 617q-16 0 -46 3q28 -11 36 -30t8 -43v-464q0 -25 -10 -41.5t-34 -27.5q15 2 31 2.5t24 0.5h19.5t22.5 -1q-19 10 -26.5 24t-7.5 40v471q0 26 4 41.5t19 25.5q-8 -1 -20 -1h-20z" />
    <glyph glyph-name="M" unicode="M" horiz-adv-x="927" 
d="M733 0q-43 0 -80.5 -1t-67.5 -2v22q48 1 63.5 21t15.5 55v479l-216 -569q-2 -6 -10 -6h-22q-6 0 -7 4l-247 506v-390q0 -47 30.5 -69.5t75.5 -29.5v-22q-32 0 -64 1.5t-57 1.5q-27 0 -50 -1t-57 -2v22q49 7 70.5 30.5t21.5 71.5v411q0 39 -20.5 57t-62.5 26v25l58 -2
t56 -1q23 0 44 1.5t38 1.5q11 0 16 -12l217 -450l177 463q26 -2 48.5 -3t51.5 -1q33 0 57 1l48 2v-23q-37 -6 -50 -22t-13 -58v-429q0 -26 3.5 -42.5t12 -27t23.5 -15.5t39 -8v-21q-37 2 -71.5 3.5t-70.5 1.5zM638 14q25 3 51 3h21.5t22.5 -1q-19 11 -26 25.5t-7 37.5v438
q0 34 3.5 56t11.5 43l-35 2v-535q0 -29 -11.5 -42.5t-30.5 -26.5zM158 617l-54 2q21 -10 31 -21.5t18 -29.5l267 -543l11 35zM202 17q-21 9 -35 24t-20 39q-6 -23 -18.5 -37t-27.5 -25q9 1 21.5 1.5t23.5 0.5q12 0 24 -0.5t32 -2.5z" />
    <glyph glyph-name="N" unicode="N" horiz-adv-x="772" 
d="M642 -10l-8 -9q-11 0 -19.5 0.5t-25.5 0.5h-21.5t-21.5 -2q-39 58 -88 128t-99.5 142t-100 140t-89.5 124v-409q0 -23 5.5 -38.5t17 -25t28 -15t39.5 -8.5v-21q-22 1 -48 2t-53 1q-23 0 -48 -1l-50 -2v22q42 5 61 23t19 63v439q0 22 -16.5 41.5t-59.5 22.5v32
q32 -2 55.5 -2.5t52.5 -0.5q26 0 47 1t40 2l354 -519v406q0 42 -27.5 62.5t-78.5 22.5v28q23 -1 54 -2.5t63 -1.5q17 0 45.5 1.5t54.5 2.5v-27q-45 -5 -63.5 -27.5t-18.5 -58.5v-537zM584 0l-428 605h-25l424 -605h29zM573 615q23 -5 35.5 -17t20.5 -33q5 16 14.5 29.5
t26.5 19.5q-8 -1 -21.5 -1.5t-22.5 -0.5q-11 0 -25 0.5t-28 2.5zM119 17q9 1 18.5 1.5t16.5 0.5q11 0 20 -0.5t19 -1.5q-14 8 -25.5 18.5t-13.5 30.5q-2 -20 -11.5 -30.5t-23.5 -18.5z" />
    <glyph glyph-name="O" unicode="O" horiz-adv-x="804" 
d="M405 644q79 0 144 -23t111 -64t71 -98.5t25 -127.5t-25 -133.5t-72 -112t-115 -77t-154 -28.5q-72 0 -134 21.5t-108.5 62t-73 99.5t-26.5 134q0 73 28 136.5t76.5 110t113.5 73.5t139 27zM418 0q52 2 87 28t56.5 65.5t30.5 89t9 97.5q0 57 -12.5 116.5t-39.5 108t-70 79
t-104 30.5q-49 0 -82.5 -24t-53.5 -63t-29 -89t-9 -101q0 -56 12 -115.5t38 -108.5t67 -81t100 -32zM649 316q0 52 -12.5 101t-38 90t-64 70t-89.5 40q49 -16 82 -50.5t53.5 -80.5t29.5 -99t9 -106q0 -78 -20.5 -141.5t-61.5 -104.5q30 22 51 53t34.5 67t20 77t6.5 84z
M65 295q0 -60 17.5 -108.5t49 -85t75.5 -61.5t96 -37q-46 16 -84.5 44.5t-66.5 68t-43.5 90t-15.5 109.5q0 78 27.5 139.5t68.5 100.5q-63 -46 -93.5 -114t-30.5 -146z" />
    <glyph glyph-name="P" unicode="P" horiz-adv-x="566" 
d="M356 -5q-46 0 -89 3t-97 3q-32 0 -64.5 -1t-58.5 -2v20q46 4 62.5 21.5t16.5 55.5v447q0 36 -15.5 54.5t-62.5 24.5v19q41 0 81 -1.5t72 -1.5q34 0 72.5 1.5t92.5 1.5q39 0 71.5 -11.5t56 -32.5t37 -50.5t13.5 -66.5q0 -47 -17 -82t-47.5 -59t-72.5 -36t-91 -12
q-14 0 -28 1.5t-30 3.5v-185q0 -28 5.5 -45t17 -27t30 -14t45.5 -6v-23zM399 466q0 30 -7.5 57t-22.5 47.5t-37 32.5t-51 12h-23v-296q21 -3 39 -3q28 0 47.5 13t31.5 34.5t17.5 48.5t5.5 54zM145 17h17.5t17.5 -1q-18 24 -18 72v528l-57 4q25 -11 31.5 -31t6.5 -42v-464
q0 -25 -9 -41.5t-35 -27.5q30 3 46 3zM416 461q0 -19 -3 -39.5t-10.5 -40t-21.5 -36.5t-36 -29q28 7 47.5 22.5t30.5 36.5t16 45.5t5 49.5q0 27 -6 52t-20 45t-37 33.5t-56 18.5q27 -9 45 -26t28 -38t14 -45.5t4 -48.5z" />
    <glyph glyph-name="Q" unicode="Q" horiz-adv-x="801" 
d="M404 644q79 0 144 -23t111 -64t71 -98.5t25 -127.5q0 -63 -19.5 -120t-57 -103t-91.5 -78t-124 -43q39 -41 89.5 -66.5t107.5 -25.5q23 0 41 4.5t34 9.5q-3 -29 -16.5 -51t-33.5 -36.5t-44 -22t-48 -7.5q-70 0 -124.5 42.5t-83.5 145.5q-71 0 -132.5 21.5t-107 62
t-71.5 99.5t-26 134q0 73 28 136.5t76 110t113 73.5t139 27zM418 0q52 2 87 28t56 65.5t30 89t9 97.5q0 57 -12.5 116.5t-39.5 108t-70 79t-103 30.5q-49 0 -82.5 -24t-53.5 -63t-29 -89t-9 -101q0 -56 12 -115.5t38 -108.5t67 -81t100 -32zM649 316q0 52 -13 101t-38.5 90
t-64 70t-89.5 40q49 -16 82 -50.5t53.5 -80.5t29.5 -99t9 -106q0 -78 -20.5 -141.5t-62.5 -104.5q61 45 87.5 120t26.5 161zM64 295q0 -60 18 -108.5t49.5 -85t75.5 -61.5t96 -37q-47 16 -85.5 44.5t-66 68t-43 90t-15.5 109.5q0 78 27 139.5t69 100.5q-64 -46 -94.5 -114
t-30.5 -146zM624 -163q-62 0 -117.5 33t-93.5 111h-10q27 -92 77 -132t114 -40q35 0 60 12.5t39 30.5q-29 -15 -69 -15z" />
    <glyph glyph-name="R" unicode="R" horiz-adv-x="652" 
d="M356 -2q-46 0 -89 1.5t-97 1.5q-32 0 -64.5 -1t-59.5 -2v20q46 4 62.5 21.5t16.5 55.5v447q0 36 -15 54.5t-62 24.5v19q41 0 81 -1.5t72 -1.5q34 0 72.5 1.5t92.5 1.5q39 0 72 -10.5t57 -30.5t37.5 -50.5t13.5 -69.5q0 -33 -8 -57.5t-22.5 -43.5t-34 -34t-43.5 -30
l122 -202q22 -35 43 -61.5t58 -35.5v-16q-28 -2 -59.5 -3t-62.5 -1q-21 0 -36 1.5t-26.5 7t-20.5 15.5t-18 28l-127 245q-25 0 -53 3v-185q0 -28 5.5 -45t17 -27t30 -14t45.5 -6v-20zM399 466q0 30 -7.5 57t-22.5 47.5t-37 32.5t-51 12h-23v-296q21 -3 39 -3q28 0 47.5 13
t31.5 34.5t17.5 48.5t5.5 54zM144 17h18t18 -1q-18 24 -18 72v528l-57 4q24 -11 30.5 -31t6.5 -42v-464q0 -25 -9 -41.5t-34 -27.5q28 3 45 3zM340 310l-15 -7l132 -254q12 -25 29.5 -33.5t52.5 -8.5h22q-19 3 -31.5 7t-22 11t-17.5 18t-17 26zM415 461q0 -38 -12 -77
t-50 -66q48 24 69 63t21 89q0 27 -6 52t-20 45t-37 33.5t-56 18.5q28 -9 45.5 -26t27.5 -38t14 -45.5t4 -48.5z" />
    <glyph glyph-name="S" unicode="S" horiz-adv-x="550" 
d="M305 625q-49 -2 -78 -32t-29 -76q0 -34 21.5 -60t53.5 -48.5t69.5 -44.5t69.5 -48t53.5 -59t21.5 -77q0 -51 -20 -87.5t-53 -60.5t-76.5 -35.5t-91.5 -11.5q-47 0 -89.5 8t-84.5 26q0 38 3 71.5t11 70.5h22q10 -70 47.5 -112.5t98.5 -42.5q23 0 39.5 10.5t27 27
t15.5 37.5t5 43q0 39 -20.5 66t-51 48.5t-66 41.5t-66 45t-51 59t-20.5 84q0 45 19.5 79t53 56t79 33t97.5 11q43 0 87 -7t76 -21q-2 -32 -6 -69t-10 -77h-17q-11 70 -43.5 111t-96.5 41zM107 483q0 44 15.5 71.5t38.5 42.5q-76 -41 -76 -127q0 -46 20.5 -78t51 -56
t66.5 -43.5t66.5 -42t51 -51t20.5 -70.5q0 -38 -9.5 -63.5t-28.5 -48.5q29 23 46.5 52.5t17.5 71.5t-20.5 71.5t-51.5 52.5t-67 43t-67 44t-52 55t-22 76zM97 134q-3 -32 -4 -53t-1 -46q17 -10 40.5 -18t50.5 -11q-39 20 -59.5 52.5t-26.5 75.5zM453 511q2 29 4 50t2 44
q-34 14 -92 23q43 -16 60 -45.5t26 -71.5z" />
    <glyph glyph-name="T" unicode="T" horiz-adv-x="603" 
d="M155 18q48 4 65 21.5t17 55.5v517h-36q-35 0 -60.5 -11t-44.5 -30t-33 -44.5t-24 -54.5l-20 6q5 51 12.5 86.5t18.5 73.5q57 -3 111.5 -3.5t108.5 -0.5h81h51t48 0.5t49 1.5t55 2q11 -35 19.5 -74.5t10.5 -87.5l-20 -4q-11 31 -24 57t-32 45t-44.5 29t-60.5 10h-35v-507
q0 -48 16.5 -67t63.5 -23v-21q-24 0 -43 1l-38 2t-39.5 2t-47.5 1q-32 0 -65 -1t-60 -2v20zM252 613v-530q0 -25 -10 -41.5t-34 -27.5q16 2 31.5 2.5t23.5 0.5h19.5t22.5 -1q-18 10 -26 24t-8 40v533h-19zM100 613q-15 0 -36 3q-9 -23 -15 -51t-11 -60q17 43 37 67t57 41
h-32zM469 614q38 -10 60 -34t36 -69q-2 28 -9 56t-15 49q-14 -1 -25.5 -1.5t-24.5 -0.5h-22z" />
    <glyph glyph-name="U" unicode="U" horiz-adv-x="727" 
d="M107 549q0 34 -13 49.5t-48 19.5v22h274v-22q-31 -3 -47 -14t-16 -45t-0.5 -76.5t-1 -88.5t-1 -91.5t-0.5 -84.5q0 -44 10 -81t30.5 -64t52 -42.5t74.5 -15.5q40 0 72 15t54 41t33.5 62.5t11.5 80.5v322q0 38 -23.5 59t-84.5 23v22q13 0 30 -0.5l34 -1t33 -0.5h27
q22 0 47.5 0.5t42.5 1.5v-22q-39 -5 -57.5 -23.5t-18.5 -54.5l-1 -324q0 -114 -63 -174.5t-184 -60.5q-54 0 -102 12.5t-85 41t-58.5 74t-21.5 111.5v329zM134 617q-8 0 -19 0.5t-16 1.5q17 -11 21.5 -28.5t4.5 -43.5v-305q0 -47 8 -82t23 -60.5t37 -43t50 -29.5
q-53 29 -73.5 83.5t-20.5 122.5v328q0 21 5 33.5t16 23.5q-11 -1 -18 -1h-18zM608 620q-11 0 -28.5 1t-30.5 2q32 -8 43 -19t16 -36q5 24 16.5 37t33.5 18q-11 -1 -22.5 -2t-27.5 -1z" />
    <glyph glyph-name="V" unicode="V" horiz-adv-x="672" 
d="M6 643q35 -2 71.5 -2h80.5h74t71 2v-22q-26 -3 -39.5 -13.5t-13.5 -35.5q0 -10 6 -32.5t14.5 -49.5t18 -54t15.5 -46l89 -241l86 241q7 21 17 48.5t19 54.5t15 50t6 34q0 23 -20.5 32.5t-45.5 11.5l-23 2v21q32 -1 61.5 -1h62.5h50.5t50.5 1v-20q-27 -4 -47 -13.5
t-34.5 -24.5t-25 -36t-19.5 -47l-175 -508h-73l-177 464q-15 40 -26 67t-23 46t-27.5 30.5t-38.5 20.5v20zM183 395l-23 57.5t-19.5 50.5t-13.5 41.5t-5 30.5q0 16 7 24.5t22 14.5q-14 -1 -31.5 -1h-28.5t-27 2.5t-22 2.5q23 -9 37.5 -29t22.5 -42l208 -538h24zM555 583
q0 -5 -0.5 -11t-3.5 -16q14 28 30 44t42 25l-22.5 -1.5t-23.5 -0.5h-32t-27 1q37 -9 37 -41z" />
    <glyph glyph-name="W" unicode="W" horiz-adv-x="1022" 
d="M357 643q35 -2 71.5 -2h79.5h75t72 2v-22q-26 -3 -40 -13.5t-14 -35.5q0 -10 6 -32.5t14.5 -49.5t18 -54t16.5 -46l87 -241l86 241q8 21 17.5 48.5t18 54.5t14.5 50t6 34q0 23 -18 31.5t-52 12.5l-19 2v21q34 -1 62.5 -1h62.5h50.5t50.5 1v-20q-54 -8 -81.5 -38
t-45.5 -83l-175 -508h-71l-146 382l-131 -382h-72l-183 464q-12 32 -23 57.5t-23.5 46t-29 35t-39.5 25.5v20q35 -2 71.5 -2h80.5h74t71 2v-22q-26 -3 -39.5 -14t-13.5 -37q0 -13 5 -35t13 -47t17.5 -51t18.5 -47l94 -241l85 241q3 5 5 11.5t5 13.5l-18 44q-12 34 -23 61
t-23.5 47t-28.5 34t-39 22v20zM534 395l-23 57.5t-19.5 50.5t-14 41.5t-5.5 30.5q0 16 7.5 24.5t22.5 14.5q-14 -1 -31 -1h-28q-12 0 -28 2.5t-22 2.5q23 -11 36 -26.5t24 -44.5l207 -538h23zM179 395q-10 24 -20.5 50.5t-19.5 51.5t-15 45.5t-6 32.5q0 16 6.5 24.5
t22.5 14.5q-14 -1 -31.5 -1h-28.5q-12 0 -25.5 2t-19.5 2q22 -13 34.5 -30.5t21.5 -39.5l214 -538h24zM905 585q0 -4 -0.5 -11.5t-3.5 -17.5q12 29 30 44.5t42 24.5q-13 -2 -24 -2h-25h-31.5t-26.5 1q22 -4 30.5 -14.5t8.5 -24.5z" />
    <glyph glyph-name="X" unicode="X" horiz-adv-x="640" 
d="M618 0q-18 0 -32.5 0.5t-29.5 0.5h-32h-39h-72.5t-69.5 -1v14q50 5 50 33q0 20 -14.5 49t-40.5 74l-56 93l-100 -160q-8 -14 -17.5 -30t-9.5 -29q0 -15 16.5 -21.5t35.5 -7.5l23 -1v-15q-17 0 -30.5 0.5t-26 0.5h-26h-30.5h-45t-45 -1v13q21 3 36.5 8t29 14.5t25.5 23.5
t26 35l122 194l-136 228q-17 28 -29.5 47t-24.5 31t-25 19t-29 10l-1 18q35 -1 67.5 -1h76.5h35.5h28t27.5 0.5t33 0.5v-16q-17 -3 -28.5 -9t-11.5 -22q0 -17 17 -46.5t37 -62.5l56 -89l55 93q8 12 17.5 26.5t17 29t12.5 27.5t5 22q0 16 -15 22t-39 9v17q16 0 26.5 -0.5
t19 -1t18.5 -1t27 -0.5q28 0 50.5 1t50.5 2v-17q-45 -4 -73 -27t-49 -56l-108 -172l142 -245q23 -40 46.5 -69.5t55.5 -42.5v-12zM197 473q-7 12 -18 29t-21 34t-17.5 32.5t-7.5 25.5q0 17 21 23q-11 -1 -20.5 -1h-21.5h-20t-22 2q15 -8 25.5 -20.5t16.5 -23.5l246 -408
q24 -40 38.5 -70.5t14.5 -48.5q0 -20 -15 -28q12 1 21.5 1.5t22.5 0.5t26 -0.5t31 -2.5q-21 7 -34 19t-24 30zM489 592q0 -4 -1 -7.5t-3 -9.5q13 18 25 27.5t31 17.5q-15 -1 -21 -1h-17h-17t-17 1q12 -5 16 -11.5t4 -16.5zM137 42q0 9 4 18q-11 -16 -24 -27.5t-33 -17.5
q11 1 17.5 1h15.5h17t17 -1q-14 9 -14 27z" />
    <glyph glyph-name="Y" unicode="Y" horiz-adv-x="600" 
d="M375 102q0 -23 2.5 -37.5t10.5 -23.5t22.5 -14t38.5 -8v-21q-38 1 -84 1.5t-83 0.5q-36 0 -66 -1t-59 -2v22q23 2 37.5 6.5t22.5 13.5t11 24t3 37v145q0 23 -6 41.5t-17 39.5l-130 245q-14 25 -28.5 36t-41.5 15v21q35 -1 69 -1.5t69 -0.5t68.5 0.5t72.5 1.5v-22
q-27 -2 -40 -6.5t-13 -15.5q0 -12 5.5 -24.5t13.5 -29.5l98 -215q17 31 37.5 70.5t38.5 77t30 68t12 44.5q0 16 -15 22.5t-48 8.5v21q25 -1 49.5 -2t49.5 -1t45.5 0.5t37.5 1.5v-19q-34 -4 -53 -17.5t-30 -36.5l-110 -215q-9 -20 -14.5 -39.5t-5.5 -48.5v-163zM294 17
q-15 9 -20 23t-5 34v185q0 13 -1 23t-4 19.5t-7 19t-10 22.5q-16 30 -37.5 69.5t-41 77t-33 68t-13.5 42.5q0 13 9 21q-11 -1 -18 -1h-14q-20 0 -39 3q13 -8 20 -17.5t14 -22.5l128 -246q14 -24 20 -42.5t6 -43.5v-169q0 -47 -33 -66q14 2 23 2.5t20 0.5q10 0 16.5 -0.5z
M489 592q0 -9 -2.5 -17.5t-4.5 -16.5l18 31q6 11 15.5 20t23.5 14h-38h-19.5t-17.5 1q10 -2 17.5 -10t7.5 -22z" />
    <glyph glyph-name="Z" unicode="Z" horiz-adv-x="583" 
d="M217 29h99q177 0 214 166l26 -3q-4 -52 -10.5 -99t-18.5 -91l-7 -6q-40 1 -91.5 2t-100.5 2t-89 1h-57q-32 0 -64.5 -1t-62.5 -2l-6 13l326 597h-105q-86 0 -137 -36t-85 -109l-19 6q3 27 6.5 48t6.5 40t7 38.5t9 42.5l8 7q65 -2 136.5 -3.5t143.5 -1.5q51 0 102.5 1.5
t93.5 1.5l8 -16zM102 28l326 581h-31q-76 -143 -159 -292.5t-160 -289.5zM513 30q8 30 14 60.5t10 65.5q-15 -45 -43 -78.5t-79 -47.5h98zM73 615q-8 -27 -13.5 -57.5t-13.5 -68.5q22 51 54.5 80.5t83.5 41.5q-30 0 -57.5 1t-53.5 3z" />
    <glyph glyph-name="bracketleft" unicode="[" horiz-adv-x="447" 
d="M352 -191h-232v870h227v-35h-95v-800h100v-35zM142 644v-800h21v800h-21z" />
    <glyph glyph-name="backslash" unicode="\" horiz-adv-x="431" 
d="M412 -171l-40 -16l-356 853l40 16z" />
    <glyph glyph-name="bracketright" unicode="]" horiz-adv-x="427" 
d="M95 679h212v-870h-207v35h75v800h-80v35zM217 -156v800h-21v-800h21z" />
    <glyph glyph-name="asciicircum" unicode="^" 
d="M246 626q16 0 32.5 -19t30 -45t22 -52.5t8.5 -40.5q0 -10 -6 -15t-14 -5q-11 0 -23.5 6t-24.5 15t-22.5 20.5t-18.5 22.5q-9 -10 -18.5 -20.5t-19 -19t-19 -14t-18.5 -5.5t-9 13q0 7 4.5 21.5t12.5 32.5t18 36.5t20.5 33.5t20.5 25t19 10h5zM229 569q-5 0 -15 -12.5
t-20.5 -28t-18.5 -29.5t-8 -18q0 -2 3 -2t11 7.5t17.5 17.5t18 20.5t13.5 16.5q5 -7 15 -18.5t20.5 -22t20 -18.5t13.5 -8q2 0 2 2q0 5 -9 20t-21 31.5t-23 29t-15 12.5h-4z" />
    <glyph glyph-name="underscore" unicode="_" horiz-adv-x="520" 
d="M0 -86h520v-32h-520v32z" />
    <glyph glyph-name="grave" unicode="`" 
d="M240 629q13 0 27.5 -20t27 -46t20.5 -51t8 -36q0 -20 -15 -20q-12 0 -33 15t-41 35.5t-34.5 41.5t-14.5 33q0 8 5 16.5t12.5 15.5t16 11.5t15.5 4.5h6zM225 573q-5 0 -8.5 -3t-3.5 -7q0 -7 11.5 -21.5t25.5 -29t27 -25.5t16 -11t3 2q0 3 -9.5 18.5t-22 32.5t-24 30.5
t-15.5 13.5z" />
    <glyph glyph-name="a" unicode="a" horiz-adv-x="465" 
d="M293 212q-29 -8 -52.5 -20.5t-40 -28t-25.5 -32t-9 -31.5q0 -17 9.5 -25t22.5 -8q18 0 35 10t29.5 26t20.5 37t9 43zM361 -10q-68 0 -68 92v29q-21 -53 -56 -87t-91 -34q-42 0 -68.5 22t-26.5 67q0 56 59.5 98t183.5 62v38q0 47 -14 65.5t-46 18.5q-45 0 -75.5 -29.5
t-31.5 -87.5q-5 -1 -16 -1q-15 0 -29.5 4t-26 12t-18.5 20.5t-7 29.5q0 21 13 41t38.5 35.5t63.5 24.5t89 9q94 0 132.5 -34.5t38.5 -98.5q0 -18 -2 -43t-4 -51t-4 -49.5t-2 -37.5q0 -39 18 -39q19 0 38 19q1 -5 1 -8v-8q0 -15 -6.5 -29t-18.5 -25.5t-28.5 -18t-35.5 -6.5z
M149 390q-41 -8 -69 -27t-28 -51q0 -28 17 -38t38 -12q-13 8 -22 20t-9 33q0 24 19.5 43.5t53.5 31.5zM148 8q37 0 57.5 14t31.5 25q-16 -12 -34.5 -19.5t-43.5 -7.5q-33 0 -47.5 20.5t-14.5 43.5q0 42 33.5 72t79.5 48q-23 -7 -47.5 -17.5t-44.5 -25.5t-33 -35t-13 -47
q0 -19 6.5 -32.5t17.5 -22t24.5 -12.5t27.5 -4zM262 377q32 -11 41 -32.5t9 -54.5q0 -57 -1 -105t-1 -96q0 -36 11.5 -59t43.5 -23q16 0 26.5 6t15.5 12q-14 -6 -34 -6q-44 0 -44 58q0 15 0.5 43.5t0.5 61t0.5 64.5t0.5 54q0 34 -16.5 53t-52.5 24z" />
    <glyph glyph-name="b" unicode="b" horiz-adv-x="553" 
d="M481 201q0 -47 -15.5 -88t-42.5 -63q37 25 58 66t21 94q0 88 -48 138.5t-130 50.5q-49 0 -82 -27q19 9 36 13.5t40 4.5q34 0 64 -14.5t52 -40t34.5 -60t12.5 -74.5zM59 608q22 -2 28.5 -12.5t6.5 -28.5v-489q0 -25 -1 -45.5t-4 -51.5q13 46 19.5 76t6.5 61v494zM310 48
q51 0 82 36.5t31 93.5q0 37 -10.5 67t-29.5 51t-45 32t-56 11q-45 0 -66 -25t-21 -64v-71q0 -62 29.5 -96.5t85.5 -34.5zM208 645q-5 -33 -8.5 -69t-3.5 -75l-1 -140q24 25 57.5 41t75.5 16q44 0 80.5 -13.5t63 -39.5t41 -64t14.5 -87q0 -53 -18 -94.5t-48.5 -70t-70.5 -44
t-83 -15.5q-49 0 -87 18t-62 51q-20 -26 -33 -49t-27 -56l-27 6q4 29 5 59t1 56v490q0 16 -6 23.5t-22 9.5l-28 2v30q16 2 40 4.5t50 4.5t51.5 3.5t45.5 2.5z" />
    <glyph glyph-name="c" unicode="c" horiz-adv-x="440" 
d="M267 418q80 0 115.5 -28t35.5 -67t-23.5 -58.5t-61.5 -19.5q-10 0 -17.5 0.5t-12.5 1.5q2 5 2 8.5v6.5q0 30 -14.5 52t-52.5 22q-39 0 -69 -28.5t-30 -85.5q0 -69 34 -104t87 -35q41 0 64.5 16t38.5 38q17 -5 28.5 -19.5t11.5 -37.5q0 -15 -8 -30.5t-26 -29t-47.5 -22
t-72.5 -8.5q-45 0 -84.5 12.5t-69 37.5t-46.5 62.5t-17 87.5q0 56 19 99t51 71.5t75 43t90 14.5zM232 355q50 0 71.5 -22t21.5 -53v-8.5t-1 -8.5q14 0 19.5 8t5.5 21q0 32 -25 48.5t-59 16.5q-11 0 -18 -0.5t-15 -1.5zM74 206q0 54 17 92.5t42 60.5q-36 -28 -57.5 -67.5
t-21.5 -94.5q0 -88 54 -139t151 -51q30 0 52 5.5t36.5 13.5t21.5 16.5t7 14.5q0 10 -5 14q-14 -20 -40.5 -32t-68.5 -12q-86 0 -137 47.5t-51 131.5z" />
    <glyph glyph-name="d" unicode="d" horiz-adv-x="551" 
d="M353 223q0 52 -26.5 87t-84.5 35q-54 0 -81.5 -33t-27.5 -86q0 -36 10.5 -64.5t29 -48.5t43 -30.5t53.5 -10.5q44 0 64 22.5t20 60.5v68zM354 369l-2 196q0 16 -4.5 23.5t-23.5 9.5l-28 2v30q44 5 91.5 9t95.5 6q-5 -41 -8 -91.5t-3 -104.5l-1 -343q0 -17 4 -28.5
t17 -11.5q11 0 21 5.5t19 14.5q0 -39 -22 -67t-67 -28q-33 0 -57.5 18t-29.5 60h-4q-15 -32 -48.5 -55t-86.5 -23q-42 0 -76 14.5t-58.5 41.5t-38 65.5t-13.5 86.5q0 43 14.5 82.5t41 69.5t64 48t82.5 18q44 0 70.5 -12.5t46.5 -35.5h4zM391 612l-56 -4q22 -2 28.5 -12.5
t6.5 -28.5v-462q0 -51 19.5 -74.5t55.5 -23.5q17 0 28 5t16 13q-8 -3 -15 -4.5t-19 -1.5q-26 0 -44.5 18.5t-18.5 68.5zM71 208q0 62 16.5 101t42.5 59q-38 -27 -59 -71t-21 -98q0 -87 46.5 -139t127.5 -52q29 0 52.5 9.5t31.5 18.5q-10 -6 -32.5 -10t-45.5 -4
q-37 0 -66.5 14t-50 39t-31.5 59t-11 74z" />
    <glyph glyph-name="e" unicode="e" horiz-adv-x="446" 
d="M410 74q0 -32 -38 -58t-116 -26q-45 0 -85.5 13t-71 38.5t-49 64t-18.5 89.5q0 49 17.5 90t49 70.5t74.5 46t94 16.5q86 0 125.5 -41t39.5 -110q0 -23 -9 -35t-38 -13l-245 -9q6 -63 41 -96.5t83 -33.5q42 0 65.5 12.5t40.5 34.5q17 -5 28.5 -18.5t11.5 -34.5zM319 261
q0 38 -19 62.5t-61 24.5q-43 0 -69 -27.5t-29 -74.5h178v15zM69 206q0 60 27 103.5t61 64.5q-45 -22 -76 -66t-31 -109q0 -44 15 -79.5t42 -61t65 -39t85 -13.5q30 0 53.5 5t39 11.5t23.5 14t8 13.5q0 7 -6 11q-17 -18 -45 -27.5t-73 -9.5q-41 0 -75.5 13t-59.5 37t-39 57.5
t-14 74.5zM250 366q25 -1 42 -9.5t27.5 -23t15 -33t4.5 -39.5v-15h23v17q0 48 -19.5 76t-71.5 28h-10t-11 -1z" />
    <glyph glyph-name="f" unicode="f" horiz-adv-x="345" 
d="M229 569q4 1 8.5 1h8.5q36 0 60.5 -13.5t45.5 -37.5q8 6 8 16q0 21 -22 33t-51 12q-31 0 -58 -11zM210 333v-308h74l-3 -25h-245l-2 19l27 5q29 6 29 29v285l-54 16v14l54 23v15q0 59 18.5 104t47.5 75t64.5 45t70.5 15q28 0 47.5 -7.5t31 -18.5t16.5 -25t5 -27
q0 -26 -10 -44t-28 -32q-20 27 -49 45.5t-62 18.5q-59 0 -59 -61q0 -26 7.5 -50t15.5 -49h113l-7 -67zM127 418q0 51 11 92t42 70q-35 -26 -54.5 -70.5t-19.5 -105.5v-33l-30 -12l30 -8v-295q0 -14 -5 -24t-22 -16q13 1 22 1.5t19 0.5h7v400zM301 366h-92l1 -19l89 -4z" />
    <glyph glyph-name="g" unicode="g" horiz-adv-x="522" 
d="M85 262q0 -30 12 -54t32 -41t47.5 -26.5t59.5 -10.5q-59 13 -93 47.5t-34 89.5q0 39 15 66t39 46q-38 -17 -58 -47.5t-20 -69.5zM147 -38q-41 2 -66.5 21.5t-25.5 55.5q0 32 22 55t65 40q-35 18 -56.5 49.5t-21.5 76.5q0 36 15 65.5t41 49.5t61 31t76 11q38 0 65 -8.5
t42 -19.5l-1 18q0 45 22 72t65 27q36 0 54 -17.5t18 -41.5q0 -41 -25 -66q-18 14 -34 24.5t-35 10.5q-34 0 -34 -32v-12q17 -17 30 -42t13 -65q0 -35 -13.5 -63.5t-38 -49t-59 -32t-76.5 -11.5q-23 0 -44 3.5t-37 10.5q-8 -6 -15 -14.5t-7 -22.5q0 -26 41 -26h181
q56 0 90 -22t34 -72q0 -37 -21.5 -68.5t-58.5 -54t-88 -35t-109 -12.5q-91 0 -133 23t-42 64q0 35 30.5 54t75.5 21v4zM212 -41q-29 0 -48.5 -11.5t-19.5 -37.5q0 -33 30 -48.5t81 -15.5q57 0 90.5 16.5t33.5 52.5q0 26 -15 35t-55 9h-97zM170 274q0 -23 8 -42t22 -33
t32.5 -22t39.5 -8q31 0 47 18t16 51q0 21 -7.5 40.5t-21 34t-31 23t-38.5 8.5q-32 0 -49.5 -19.5t-17.5 -50.5zM493 408q2 2 2 5.5v5.5q0 13 -13 24t-36 11q-44 0 -54 -37q6 10 17 13.5t23 3.5q32 0 61 -26zM135 116q-27 -13 -43 -29.5t-16 -43.5q0 -39 32 -53t82 -14h133
q40 0 59.5 -11t19.5 -41q0 -17 -3.5 -28.5t-10.5 -23.5q13 14 22.5 30t9.5 38q0 30 -22 43t-63 13h-145q-43 0 -67.5 12.5t-24.5 44.5q0 21 11.5 36t25.5 27zM275 361h-10t-13 -1q26 -2 45.5 -13t32.5 -27.5t19.5 -36.5t6.5 -39q0 -18 -4 -35.5t-14 -31.5q17 14 27.5 33.5
t10.5 46.5q0 43 -28.5 73.5t-72.5 30.5zM62 -114q0 -35 35 -52t95 -20q-21 1 -40 6.5t-33.5 15.5t-23 24t-8.5 32q0 20 11.5 32t28.5 16q-26 -3 -45.5 -15.5t-19.5 -38.5z" />
    <glyph glyph-name="h" unicode="h" horiz-adv-x="556" 
d="M344 413q68 0 103 -40t35 -109v-239h48l-3 -25h-217l-1 22l24 2q29 3 29 32v179q0 39 -18 62.5t-56 23.5t-62 -22t-24 -71v-203h56l-2 -25h-228l-1 19l26 5q17 3 23 9.5t6 23.5v507q0 15 -5.5 23.5t-22.5 10.5l-28 2v30q20 3 44 5t49 4t49.5 3.5t44.5 2.5
q-5 -45 -9 -121.5t-10 -199.5h5q23 41 57.5 65t87.5 24zM64 608q22 -2 28.5 -12.5t6.5 -28.5v-511q0 -14 -5 -24.5t-23 -15.5q16 2 23.5 2h17.5h8v594zM400 252q0 48 -23.5 72.5t-63.5 24.5q-17 0 -32 -5t-28 -13q21 6 43 6q40 0 61.5 -25t21.5 -70v-189q0 -14 -5 -23
t-22 -14q14 2 23 2h25v234z" />
    <glyph glyph-name="i" unicode="i" horiz-adv-x="278" 
d="M204 25h56l-2 -25h-228l-1 19l26 5q29 6 29 29v271q0 16 -6 23.5t-22 9.5l-28 2v30q16 2 40 4.5t50 4.5t51.5 3.5t45.5 2.5q-5 -43 -8 -91t-3 -102v-186zM65 367q22 -2 28.5 -12.5t6.5 -28.5v-270q0 -14 -5 -24.5t-23 -15.5q16 2 23.5 2h17.5h8v353zM87 550q0 25 18.5 43
t47.5 18q31 0 48.5 -17.5t17.5 -45.5q0 -26 -18.5 -44t-47.5 -18q-28 0 -47 17t-19 47zM104 549q0 -21 12.5 -34t34.5 -15q-26 19 -26 54q0 23 12 41q-15 -5 -24 -16.5t-9 -29.5z" />
    <glyph glyph-name="j" unicode="j" horiz-adv-x="305" 
d="M225 15q0 -50 -17.5 -90.5t-45.5 -69t-63.5 -44t-70.5 -15.5q-47 0 -67 20.5t-20 44.5q0 18 7 30.5t17 22.5q20 -17 42.5 -32t49.5 -15t37.5 15t10.5 44v398q0 15 -6 23t-22 10l-28 2v30q17 2 42 4.5t51 4.5t51 3.5t43 2.5q-2 -20 -4 -46t-3.5 -54t-2.5 -56.5t-1 -53.5
v-179zM86 367q22 -2 28.5 -12.5t6.5 -28.5v-405q0 -19 -3.5 -32.5t-15.5 -26.5q40 24 40 68v441zM-44 -135q0 -28 20.5 -41.5t45.5 -13.5q11 0 20 1.5t18 3.5q-43 0 -68.5 21t-25.5 60q-10 -13 -10 -31zM105 550q0 25 18.5 43t47.5 18q31 0 48.5 -17.5t17.5 -45.5
q0 -26 -18.5 -44t-47.5 -18q-28 0 -47 17t-19 47zM122 549q0 -21 12.5 -34t34.5 -15q-26 19 -26 54q0 23 12 41q-15 -5 -24 -16.5t-9 -29.5z" />
    <glyph glyph-name="k" unicode="k" horiz-adv-x="519" 
d="M63 608q22 -2 28.5 -12.5t6.5 -28.5v-511q0 -14 -5 -24.5t-23 -15.5q16 2 23.5 2h17.5h8v594zM244 216q14 -2 38 -43.5t60 -104.5q19 -33 39.5 -49t55.5 -16q25 0 39 7q-5 -1 -11 -1.5t-11 -0.5q-32 0 -51.5 17t-37.5 48q-16 27 -31.5 53.5t-30.5 52.5q-12 20 -23.5 29
t-31.5 9h-11zM202 231h33q21 17 41.5 35t37 33.5t27 27t10.5 17.5q0 11 -16 15.5t-47 8.5v31q30 -1 54 -2.5t56 -1.5q15 0 25.5 0.5t20 1t20.5 1.5t26 1v-32q-30 -3 -52 -12t-44.5 -24.5t-49.5 -39.5t-66 -58q48 0 77.5 -13t51.5 -51q21 -37 34.5 -59.5t23 -35t17.5 -16.5
t18 -4q8 0 15.5 3t12.5 6q0 -38 -25 -56.5t-60 -18.5q-42 0 -69 15t-52 60q-27 48 -47 82t-43 59h-30v-179h56l-2 -25h-228l-1 19l26 5q29 6 29 29v512q0 15 -6 23t-22 10l-28 2v30q16 2 40 4.5t50 4.5t51.5 3.5t45.5 2.5q-5 -43 -8 -91t-3 -102v-221z" />
    <glyph glyph-name="l" unicode="l" horiz-adv-x="276" 
d="M200 25h56l-2 -25h-228l-1 19l26 5q29 6 29 29v512q0 16 -6 23.5t-22 9.5l-28 2v30q16 2 40 4.5t50 4.5t51.5 3.5t45.5 2.5q-5 -43 -8 -91t-3 -102v-427zM61 608q22 -2 28.5 -12.5t6.5 -28.5v-511q0 -14 -5 -24.5t-23 -15.5q16 2 23.5 2h17.5h8v594z" />
    <glyph glyph-name="m" unicode="m" horiz-adv-x="837" 
d="M643 232q0 41 -18 65t-56 24q-39 0 -62.5 -22.5t-23.5 -70.5v-203h56l-2 -25h-228l-1 19l26 5q17 3 23 10t6 23v175q0 41 -18 65t-56 24q-39 0 -62.5 -22.5t-23.5 -70.5v-203h56l-2 -25h-228l-1 19l26 5q16 3 22.5 9.5t6.5 23.5v182q0 53 -10.5 83.5t-39.5 44.5
q15 17 35.5 29t52.5 12q37 0 54.5 -22t20.5 -67h4q20 42 53.5 68t91.5 26q54 0 87.5 -24.5t43.5 -69.5h4q20 42 53.5 68t91.5 26q69 0 103.5 -39.5t34.5 -109.5v-239h48l-3 -25h-217l-1 22l25 2q28 1 28 32v176zM681 252q0 48 -23.5 72.5t-63.5 24.5q-17 0 -32 -5t-28 -13
q21 6 43 6q40 0 61.5 -25t21.5 -70v-189q0 -14 -5 -23t-22 -14q14 2 23 2h25v234zM121 261q0 49 -10 79t-33 30q-8 0 -14 -4q20 -12 28 -40t8 -79v-191q0 -14 -5 -24.5t-23 -15.5q16 2 23.5 2h17.5h8v243zM401 252q0 48 -23.5 72.5t-63.5 24.5q-17 0 -32 -5t-28 -13
q21 6 43 6q40 0 61.5 -25t21.5 -70v-189q0 -14 -5 -23t-22 -14q14 2 23 2h25v234z" />
    <glyph glyph-name="n" unicode="n" horiz-adv-x="555" 
d="M363 232q0 41 -18 65t-56 24q-39 0 -62.5 -22.5t-23.5 -70.5v-203h56l-2 -25h-228l-1 19l26 5q16 3 22.5 9.5t6.5 23.5v182q0 53 -10.5 83.5t-39.5 44.5q15 17 35.5 29t52.5 12q37 0 54.5 -22t20.5 -67h4q20 42 53.5 68t91.5 26q69 0 103.5 -39.5t34.5 -109.5v-239h48
l-3 -25h-217l-1 22l25 2q28 1 28 32v176zM401 252q0 48 -23.5 72.5t-63.5 24.5q-17 0 -32 -5t-28 -13q21 6 43 6q40 0 61.5 -25t21.5 -70v-189q0 -14 -5 -23t-22 -14q14 2 23 2h25v234zM121 261q0 49 -10 79t-33 30q-8 0 -14 -4q20 -12 28 -40t8 -79v-191q0 -14 -5 -24.5
t-23 -15.5q16 2 23.5 2h17.5h8v243z" />
    <glyph glyph-name="o" unicode="o" horiz-adv-x="519" 
d="M275 420q46 0 84 -15t65 -42t42 -65.5t15 -84.5q0 -49 -18 -90t-50 -70t-76 -45.5t-96 -16.5q-45 0 -82.5 14.5t-64 41.5t-41.5 65t-15 84q0 47 18 88t49.5 71t75 47.5t94.5 17.5zM241 341q-50 0 -75 -33t-25 -83q0 -35 11 -65.5t30.5 -53.5t45.5 -36t55 -13
q24 0 41.5 9.5t29.5 26t18 38.5t6 46q0 35 -10.5 65t-29 52t-43.5 34.5t-54 12.5zM78 204q0 113 89 173q-46 -23 -77.5 -68t-31.5 -110q0 -88 52 -140t146 -52q20 0 38 4.5t30 11.5q-23 -5 -57 -5q-41 0 -75.5 13.5t-60 38t-39.5 58.5t-14 76zM398 183q0 -30 -8 -59t-31 -55
q27 26 42.5 61.5t15.5 75.5q0 76 -41.5 117.5t-107.5 41.5q-15 0 -30 -3t-27 -9q20 4 40 4q33 0 60.5 -14t46.5 -38t29.5 -55.5t10.5 -66.5z" />
    <glyph glyph-name="p" unicode="p" horiz-adv-x="542" 
d="M253 -166l-2 -25h-228l-1 19l26 5q14 3 21.5 9t7.5 20v387q0 46 -13.5 73.5t-40.5 44.5q14 19 36.5 30t50.5 11q29 0 45.5 -15t25.5 -42q27 32 59 50t77 18q44 0 80.5 -13.5t63 -40t41 -64.5t14.5 -87q0 -53 -18 -94.5t-48.5 -70t-70.5 -44t-83 -15.5q-32 0 -62 11
t-49 34q0 -29 1 -53t1.5 -46.5t1.5 -47t2 -54.5h62zM299 50q51 0 82 35.5t31 92.5q0 75 -39 118t-100 43q-45 0 -67 -22t-22 -61v-76q0 -66 30 -98t85 -32zM115 261q0 49 -10 79t-33 30q-8 0 -14 -4q20 -12 28 -40t8 -79v-382q0 -14 -5 -24.5t-23 -15.5q16 2 23.5 2h17.5h8
v434zM470 201q0 -47 -15.5 -88t-42.5 -63q37 25 58 66t21 94q0 87 -48 138.5t-130 51.5q-31 0 -52 -9.5t-30 -17.5q16 9 33 13.5t43 4.5q34 0 64 -14.5t52 -40t34.5 -60.5t12.5 -75z" />
    <glyph glyph-name="q" unicode="q" horiz-adv-x="558" 
d="M243 336q-48 0 -77.5 -27.5t-29.5 -80.5q0 -37 11 -66.5t30 -50.5t45 -32t55 -11q50 0 68.5 14t18.5 43v82q0 62 -29 95.5t-92 33.5zM364 44q-26 -25 -55 -39.5t-74 -14.5q-43 0 -80 12.5t-64.5 38t-43 63.5t-15.5 90q0 53 19 95t52 70.5t76.5 43.5t92.5 15
q50 0 81.5 -14.5t56.5 -38.5q17 24 27.5 47t21.5 52l31 -6q-4 -37 -6 -66t-2 -66v-492h56l-2 -25h-228l-1 19l26 5q15 3 22 9t7 20zM79 208q0 47 15.5 86.5t42.5 61.5q-37 -25 -58 -64.5t-21 -92.5q0 -87 48 -138.5t130 -51.5q29 0 50.5 9t29.5 18q-10 -6 -30.5 -10.5
t-43.5 -4.5q-35 0 -64.5 14t-51.5 39t-34.5 59.5t-12.5 74.5zM400 228q0 63 -34.5 97t-94.5 34q-15 0 -30 -3t-27 -9q20 4 40 4q62 0 93.5 -35.5t31.5 -94.5v-356q0 -14 -5 -24.5t-23 -15.5q16 2 23.5 2h17.5h8v401z" />
    <glyph glyph-name="r" unicode="r" horiz-adv-x="390" 
d="M323 256q-15 29 -30.5 47.5t-41.5 18.5t-36.5 -14t-10.5 -41v-242h65l-2 -25h-233l-1 19l21 4q17 3 23 11t6 23v182q0 50 -9.5 79t-42.5 49q15 17 35.5 29t50.5 12q29 0 47 -18.5t26 -61.5h4q24 45 54 65.5t60 20.5q31 0 47 -16.5t16 -45.5q0 -30 -14 -54.5t-34 -41.5z
M120 261q0 49 -10 79t-33 30q-8 0 -14 -4q20 -12 28 -40t8 -79v-191q0 -14 -5 -24.5t-23 -15.5q14 2 23.5 2h25.5v243zM289 355q-17 0 -36 -6t-34 -21q10 6 18.5 8.5t21.5 2.5q24 0 40.5 -13t28.5 -36q10 11 10 25q0 16 -12.5 28t-36.5 12z" />
    <glyph glyph-name="s" unicode="s" horiz-adv-x="446" 
d="M303 93q0 16 -19 26t-47 18.5t-61.5 17.5t-61.5 25t-47 40t-19 63q0 59 50.5 97t136.5 38t126 -25.5t40 -58.5q0 -26 -19.5 -40t-48.5 -14q-15 0 -28 3q4 8 4 21q0 21 -18 39t-67 18q-41 0 -58.5 -14.5t-17.5 -34.5q0 -19 19 -29t47 -18.5t61.5 -16.5t61.5 -22.5t47 -38
t19 -60.5q0 -35 -16 -60.5t-43 -42t-62.5 -25t-74.5 -8.5q-78 0 -117.5 20.5t-39.5 55.5q0 29 20.5 43.5t49.5 14.5q11 0 22 -3q-2 -3 -2 -7.5v-8.5q0 -29 21 -45t59 -16q39 0 61 12.5t22 35.5zM125 375q-23 -12 -39.5 -34.5t-16.5 -51.5q0 -16 4.5 -33t18.5 -33t40 -30
t69 -25q37 -9 61 -17t38 -16t19.5 -17t5.5 -21q0 -28 -19 -44q37 22 37 55q0 16 -8 27t-24.5 19.5t-42 16.5t-61.5 18q-65 18 -90.5 42.5t-25.5 62.5q0 29 9.5 48t24.5 33zM239 376q89 0 89 -66q0 -9 -1 -14q26 0 26 24q0 28 -25 43t-57 15q-10 0 -16.5 -0.5t-15.5 -1.5z
M211 8q-52 0 -85.5 20t-33.5 58q0 8 2 18q-11 -2 -18 -10t-7 -23q0 -17 11.5 -29t28.5 -19.5t38 -11.5t40 -4h12t12 1z" />
    <glyph glyph-name="t" unicode="t" horiz-adv-x="362" 
d="M199 168q0 -26 3 -43t10 -27t17 -14t24 -4q23 0 40.5 10t32.5 27q5 -6 9 -18.5t4 -26.5t-6.5 -28.5t-21.5 -26.5t-39 -19.5t-58 -7.5q-135 0 -135 143v200h-63l-4 37q32 7 55 21t40.5 34.5t30 47.5t24.5 59l41 -4l-3 -133h137l-6 -67l-132 6v-166zM318 366h-119v-18
l117 -4zM116 318q0 23 2.5 45t10.5 36q-22 -36 -82 -51h48v-203q0 -69 30.5 -103.5t88.5 -34.5q46 0 69.5 13.5t23.5 23.5q0 6 -2 9q-12 -12 -33 -20t-53 -8q-51 0 -77 30t-26 100v163z" />
    <glyph glyph-name="u" unicode="u" horiz-adv-x="568" 
d="M356 82q-15 -37 -48.5 -64.5t-91.5 -27.5q-68 0 -102 40t-34 109v185q0 17 -6 24t-23 9l-27 2v30q18 1 40 3.5t46 4.5l48 4t46 4q-1 -30 -2.5 -66t-2.5 -70.5t-1.5 -64.5t-0.5 -47q0 -40 14.5 -63t50.5 -23q40 0 67.5 25t27.5 70v158q0 16 -5.5 23.5t-22.5 9.5l-28 2v30
q91 10 183 15q-2 -46 -4.5 -93.5t-2.5 -101.5v-108q0 -22 7.5 -28t15.5 -6q13 0 22 6.5t20 17.5q1 -4 1.5 -8t0.5 -10q0 -36 -26 -58.5t-67 -22.5q-38 0 -62.5 21.5t-28.5 68.5h-4zM96 135q0 -61 31 -95t83 -34q21 0 41.5 4.5t36.5 14.5q-14 -5 -28.5 -6.5t-28.5 -1.5
q-53 0 -83.5 31t-30.5 92v231l-56 -4q35 -3 35 -41v-191zM339 367q22 -2 28 -12.5t6 -28.5v-216q0 -49 19 -76t59 -27q15 0 25.5 4t18.5 11q-7 -2 -14.5 -4t-18.5 -2q-30 0 -49 19t-19 57v279z" />
    <glyph glyph-name="v" unicode="v" 
d="M123 368q-10 -1 -16.5 -1h-17.5q-5 0 -18.5 0.5t-18.5 1.5q9 -3 15 -11.5t11 -21.5l136 -325h24l-134 314q-4 8 -4 19q0 18 23 24zM199 346q0 -8 10 -36t24 -65.5t30 -77.5t27 -70q14 35 29.5 75.5t28.5 77t21.5 63.5t8.5 34q0 12 -16 15.5t-51 5.5v30q27 -1 56 -1.5
t46 -0.5q14 0 37 1.5t43 1.5v-31q-17 -1 -28.5 -2t-19 -4.5t-12 -9t-8.5 -15.5q-33 -85 -67.5 -173.5t-69.5 -172.5h-13q-11 -1 -18 -1h-18h-18.5t-19.5 1q-23 58 -45.5 113t-42.5 101.5t-36 82.5t-26 55q-6 11 -17.5 17t-35.5 8v32q12 0 28.5 -0.5t33.5 -1t32 -1t26 -0.5
h33t38.5 0.5t37.5 1t30 0.5v-31q-26 -2 -42 -5.5t-16 -16.5z" />
    <glyph glyph-name="w" unicode="w" horiz-adv-x="750" 
d="M123 368q-10 -1 -16.5 -1h-17.5q-5 0 -18.5 0.5t-18.5 1.5q9 -3 15 -11.5t11 -21.5l136 -325h24l-134 314q-4 8 -4 19q0 18 23 24zM442 397q34 -80 61.5 -147t54.5 -136q9 23 21 59.5t23 72.5t18.5 65t7.5 38q0 11 -13.5 14t-53.5 5v30q27 -1 56 -1.5t46 -0.5q14 0 37 1
t43 1v-30q-34 -2 -47.5 -7t-20.5 -22q-33 -85 -62.5 -174.5t-64.5 -173.5q-11 -1 -17.5 -1h-17.5h-17.5t-18.5 1q-12 29 -26.5 64t-29.5 70t-29 66.5t-24 54.5l-93 -255q-11 -1 -18 -1h-18h-18.5t-19.5 1q-23 58 -45.5 113t-42.5 101.5t-36 82.5t-26 55q-6 11 -17.5 17
t-35.5 8v31q12 0 28.5 -0.5t33.5 -1t32 -0.5h26h33t38.5 0.5t37.5 1t30 0.5v-31q-26 -2 -42 -5.5t-16 -16.5t11 -39.5t25.5 -59t28.5 -68t20 -65.5q30 78 54 148.5t44 134.5h60zM376 280l113 -269h24l-127 301z" />
    <glyph glyph-name="x" unicode="x" horiz-adv-x="497" 
d="M22 32l23 2q38 3 65 41l75 112l-96 129q-17 23 -31 35t-46 16l1 32q35 -1 64.5 -2.5t58.5 -1.5t64.5 1.5t60.5 2.5v-33l-44 -6l74 -106l75 108l-57 5v32l46 -2t46 -1q26 0 40 1t34 1v-31l-29 -3q-19 -2 -29.5 -10.5t-20.5 -22.5l-79 -109l105 -149q15 -21 27.5 -30
t38.5 -11l-4 -32h-238v33h55l-89 120l-83 -120h64v-33h-167zM349 33l-212 281q-9 11 -16 19.5t-7 16.5q0 15 19 18q-10 -1 -14.5 -1h-15.5h-9t-12.5 0.5t-12.5 1t-9 0.5q14 -5 22 -13t17 -20l227 -303h23z" />
    <glyph glyph-name="y" unicode="y" horiz-adv-x="493" 
d="M126 -170q-23 0 -37 15.5t-14 47.5q-16 -13 -16 -35t16 -33t40 -11q26 0 43 9t28 22q-14 -7 -27.5 -11t-32.5 -4zM125 368q-10 -1 -18 -1h-19t-19.5 0.5t-19.5 1.5q11 -3 17.5 -11t13.5 -22l166 -353l12 31l-152 311q-2 5 -4.5 10t-2.5 10q0 19 26 23zM79 -84
q12 -13 25.5 -27.5t35.5 -14.5q33 0 51 18t29 42l12 26q-20 43 -44.5 96t-49 105.5t-46.5 99t-36 76.5q-8 16 -20.5 22.5t-35.5 8.5v32q12 0 28.5 -0.5t33.5 -1t32 -1t26 -0.5h33t38.5 0.5t37.5 1t30 0.5v-31q-26 -2 -42 -5.5t-16 -16.5q0 -8 9.5 -32t24.5 -57t33 -71.5
t34 -73.5q15 35 30.5 73.5t28 72t21 58t8.5 31.5q0 12 -16 15.5t-51 5.5v30q27 -1 56 -1.5t46 -0.5q14 0 36 1.5t42 1.5v-31q-17 -1 -28.5 -2t-19 -4.5t-12 -9t-8.5 -15.5q-12 -32 -28 -69.5t-33.5 -78.5t-36.5 -85t-37 -88q-21 -51 -40.5 -92t-41.5 -69.5t-46.5 -43.5
t-55.5 -15q-29 0 -52 13t-23 44q0 23 10 37.5t28 25.5z" />
    <glyph glyph-name="z" unicode="z" horiz-adv-x="442" 
d="M313 365l-238 -293q-4 -5 -7 -11t-3 -14q0 -10 4 -18l268 336h-24zM163 365q-44 0 -62 -30t-30 -95h-16q-13 29 -24 62.5t-11 59.5q0 25 10.5 33t40.5 8h320q16 -19 16 -38q0 -14 -6 -27.5t-15 -25.5l-222 -278h111q46 0 67.5 27.5t30.5 87.5h18q13 -32 20.5 -65.5
t7.5 -48.5q0 -20 -9.5 -27.5t-38.5 -7.5h-314l-9 18t-5 24t9.5 29.5t29.5 39.5l208 254h-127zM53 313q0 33 17.5 51t58.5 20h-70q-19 0 -19 -20q0 -16 4 -31.5t9 -32.5v13zM389 70q0 19 -5 41q-1 -16 -6.5 -32t-16 -29.5t-26.5 -22.5t-38 -10q23 1 40.5 3t29 7.5t17 15
t5.5 27.5z" />
    <glyph glyph-name="braceleft" unicode="{" horiz-adv-x="434" 
d="M113 265q29 0 39 16t10 45q0 18 -6.5 47t-14 61.5t-14 65t-6.5 58.5q0 69 53.5 95t159.5 26v-35q-29 0 -46 -6.5t-26 -17.5t-12 -26.5t-3 -33.5q0 -21 5.5 -49.5t11.5 -58.5t11.5 -58t5.5 -48q0 -33 -22.5 -61t-78.5 -36v-4q51 -7 76 -33t25 -70q0 -21 -5 -46.5
t-11.5 -52t-11.5 -51t-5 -42.5q0 -22 2 -41t9.5 -33.5t23 -23t42.5 -8.5v-35q-107 0 -155 40t-48 113q0 22 6 45.5t13.5 48t13.5 49t6 48.5q0 31 -8.5 52.5t-39.5 21.5q-22 0 -27.5 2.5t-5.5 17.5q0 14 5.5 16t27.5 2zM204 158q0 23 -10.5 41t-34.5 29q15 -17 19.5 -33
t4.5 -42q0 -20 -6.5 -46t-14 -53t-13.5 -52.5t-6 -42.5q0 -35 14.5 -59.5t35.5 -40.5q-14 14 -21.5 36.5t-7.5 56.5q0 19 6 46.5t13.5 56t14 56t6.5 47.5zM185 329q0 -23 -7.5 -39.5t-19.5 -28.5q18 12 32.5 32t14.5 52q0 19 -6.5 47.5t-14 59.5t-14 60t-6.5 50
q0 35 15.5 56.5t41.5 32.5q-37 -11 -58 -31t-21 -61q0 -25 6.5 -56.5t15 -63t15 -61t6.5 -49.5z" />
    <glyph glyph-name="bar" unicode="|" horiz-adv-x="243" 
d="M143 -190h-43v869h43v-869z" />
    <glyph glyph-name="braceright" unicode="}" horiz-adv-x="434" 
d="M326 265q22 0 27.5 -2t5.5 -16q0 -15 -5.5 -17.5t-27.5 -2.5q-31 0 -39.5 -21.5t-8.5 -52.5q0 -24 6 -48.5t13.5 -49t13.5 -48t6 -45.5q0 -73 -50.5 -113t-157.5 -40v35q27 0 43 8.5t25 23t11.5 33.5t2.5 41q0 18 -5 42.5t-11.5 51t-11.5 52t-5 46.5q0 44 22.5 70
t73.5 33v4q-56 8 -76 36t-20 61q0 20 5.5 48t11.5 58t11.5 58.5t5.5 49.5q0 18 -3.5 33.5t-13.5 26.5t-28 17.5t-47 6.5v35q106 0 162 -26t56 -95q0 -26 -6.5 -58.5t-14 -65t-14 -61.5t-6.5 -47q0 -29 10 -45t39 -16zM200 336q0 21 6 50t13 60t13 61.5t6 55.5q0 58 -52 71
q13 -11 20.5 -27t7.5 -45q0 -21 -5 -50t-11.5 -59.5t-11.5 -59t-5 -47.5q0 -35 15.5 -50.5t41.5 -23.5q-15 8 -26.5 24.5t-11.5 39.5zM181 148q0 -20 5 -46.5t11.5 -54t11.5 -54t5 -45.5q0 -32 -6.5 -56.5t-23.5 -41.5q27 16 40.5 37.5t13.5 62.5q0 17 -5 44t-11.5 56
t-11.5 57t-5 48q0 29 9 45.5t27 24.5q-34 -9 -47 -29.5t-13 -47.5z" />
    <glyph glyph-name="asciitilde" unicode="~" 
d="M359 616q17 -17 28 -42t11 -49q0 -51 -61 -51q-17 0 -40 4t-46 9t-43.5 9t-32.5 4q-14 0 -17.5 -8t-3.5 -20q0 -5 0.5 -10t1.5 -11l-13 -2q-13 15 -27 35.5t-14 45.5q0 27 16.5 44.5t46.5 17.5q19 0 41.5 -4.5t45 -9.5t43.5 -9.5t36 -4.5q12 0 16.5 6t4.5 16q0 14 -4 27z
M372 530q-4 -22 -33 -22q-13 0 -35.5 4t-47 9t-48 9t-39.5 4q-38 0 -38 -27q0 -8 4 -16t9 -15q-1 5 -1 11q0 29 30 29q12 0 33 -4t44.5 -9t47 -9t41.5 -4q38 0 38 25q0 8 -5 15z" />
    <glyph glyph-name="uni00A0" unicode="&#xa0;" horiz-adv-x="224" 
 />
    <glyph glyph-name="exclamdown" unicode="&#xa1;" horiz-adv-x="341" 
d="M143 -182q-5 29 -9 62.5t-4 72.5q0 66 7.5 144t14.5 156q-3 1 -9 1q-8 0 -12 -1q-8 -79 -16 -157t-8 -145q0 -38 3.5 -71t11.5 -60q5 -2 10.5 -2h10.5zM119 267q18 5 40 5q11 0 20 -2t17 -4q11 -91 20.5 -178.5t9.5 -164.5q0 -30 -6.5 -61t-15.5 -57q-23 -8 -49 -8
q-23 0 -47 9q-10 23 -15.5 55.5t-5.5 61.5q0 77 9.5 165t22.5 179zM92 387q0 30 19 47t47 17q29 0 48 -18t19 -44q0 -28 -18 -45.5t-49 -17.5q-28 0 -47 18.5t-19 42.5zM110 388q0 -35 31 -46q-5 8 -8 18t-3 24t6 28t20 25q-20 -2 -33 -14.5t-13 -34.5z" />
    <glyph glyph-name="cent" unicode="&#xa2;" horiz-adv-x="481" 
d="M287 418q80 0 115.5 -28t35.5 -67t-23.5 -58.5t-61.5 -19.5q-10 0 -17.5 0.5t-12.5 1.5q2 5 2 8.5v6.5q0 29 -13 50.5t-47 23.5v-252q5 -1 15 -1q41 0 64.5 16t38.5 38q17 -5 28.5 -19.5t11.5 -37.5q0 -15 -8 -30.5t-26 -29t-47.5 -22t-72.5 -8.5h-4v-91h-26v93
q-40 4 -74 18t-59 38.5t-39.5 60t-14.5 81.5q0 49 14.5 87.5t39.5 66.5t59.5 45.5t73.5 24.5v91h26v-88zM159 222q0 -55 22 -88.5t58 -44.5v245q-33 -6 -56.5 -34t-23.5 -78zM94 206q0 52 16 90t40 61q-35 -28 -55.5 -67t-20.5 -93q0 -88 54 -139t151 -51q30 0 52 5.5
t36.5 13.5t21.5 16.5t7 14.5q0 10 -5 14q-14 -20 -40.5 -32t-68.5 -12q-86 0 -137 47.5t-51 131.5zM285 357q-10 0 -16.5 -0.5t-14.5 -1.5q48 -1 69.5 -23t21.5 -52v-8.5t-1 -8.5q14 0 19.5 8t5.5 21q0 32 -25 48.5t-59 16.5z" />
    <glyph glyph-name="sterling" unicode="&#xa3;" horiz-adv-x="692" 
d="M391 585q38 0 64 -22.5t26 -60.5q0 -31 -20 -53q4 -3 12 -3q14 0 24 13t10 33q0 38 -23.5 66.5t-66.5 28.5h-12.5t-13.5 -2zM531 194q-40 0 -54 -37q31 24 66 24q6 0 17 -0.5t18 -2.5q-8 7 -20.5 11.5t-26.5 4.5zM338 291q0 -51 -21 -98t-69 -90q51 -18 102.5 -31
t96.5 -13q47 0 75.5 10.5t28.5 28.5q0 20 -26.5 32t-65.5 16q4 23 23 42t48 19q37 0 58 -21t21 -61q0 -33 -13 -61t-36.5 -49t-56.5 -32.5t-73 -11.5q-64 0 -117.5 28t-98.5 71q-12 -12 -28.5 -24.5t-33.5 -22.5t-35 -16.5t-33 -6.5q-40 0 -40 37q0 18 8 35.5t21.5 31.5
t30 22.5t33.5 8.5t32.5 -5t26.5 -10q11 25 14 47.5t3 57.5v83l-99 5v21q10 1 22.5 3t25.5 4.5t25.5 5l22.5 4.5v76q0 55 19 95.5t49 66.5t67.5 38.5t74.5 12.5q68 0 108.5 -32t40.5 -81q0 -46 -27.5 -71t-61.5 -25q-27 0 -48 12q13 8 22 22t9 38q0 28 -22 47.5t-57 19.5
q-34 0 -50.5 -20.5t-16.5 -53.5q0 -38 6.5 -75.5t10.5 -69.5h149l-7 -39h-138v-21zM225 82q23 -18 48 -34t51 -29t52.5 -20.5t52.5 -7.5q51 0 84 16t58 45q-28 -20 -61.5 -30.5t-78.5 -10.5q-48 0 -100.5 19t-105.5 52zM82 50q0 25 17.5 46t43.5 23h-6q-13 0 -26.5 -7
t-24.5 -18t-18 -25t-7 -29q0 -23 22 -23q27 0 56.5 16t54.5 41.5t41 57t16 63.5v258q0 38 10.5 72t37.5 56q-29 -21 -49.5 -57t-20.5 -83v-241q0 -36 -12 -67t-31 -54.5t-42.5 -37t-45.5 -13.5q-8 0 -12 4.5t-4 17.5z" />
    <glyph glyph-name="currency" unicode="&#xa4;" horiz-adv-x="672" 
d="M132 299q0 -69 20 -124t56 -94t87.5 -60t114.5 -21q34 0 62.5 6.5t49.5 17t33 23t12 24.5q0 7 -6 7q-43 -59 -148 -59q-54 0 -101 18.5t-82 54.5t-55 88t-20 119q0 98 34 175.5t101 118.5q-30 -15 -58.5 -42.5t-50.5 -65t-35.5 -84.5t-13.5 -102zM384 562q60 0 95 -28
t46 -76q25 3 25 25q0 17 -9.5 32t-26.5 26.5t-39.5 18t-49.5 6.5q-8 0 -20 -0.5t-21 -3.5zM241 227q20 -69 68 -103.5t111 -34.5q48 0 82.5 17t58.5 46q29 -21 29 -58q0 -46 -48.5 -77t-139.5 -31q-113 0 -188 61.5t-95 179.5h-83l4 42h75q-1 5 -1 14v15q0 7 0.5 15t1.5 16
h-78l7 41h75q12 68 40 119t68.5 84.5t91 50t107.5 16.5q48 0 83 -9.5t58 -25.5t34 -38t11 -47q0 -42 -27.5 -60.5t-73.5 -18.5q-5 21 -14 39.5t-24.5 33t-37 23t-51.5 8.5q-35 0 -63 -13.5t-48 -37t-32.5 -55.5t-16.5 -69h269l-8 -41h-261q0 -14 1.5 -31.5t4.5 -28.5h247
l-9 -42h-228z" />
    <glyph glyph-name="yen" unicode="&#xa5;" horiz-adv-x="594" 
d="M97 319h111q-2 2 -2 4l-129 243q-13 24 -28 35t-41 15v20q35 -1 68.5 -1.5t67.5 -0.5q35 0 68 0.5t72 1.5v-21q-26 -2 -39.5 -6.5t-13.5 -15.5q0 -12 6 -24.5t14 -29.5l97 -213q16 31 36.5 70t38.5 76.5t30 67.5t12 44q0 16 -15 22.5t-48 8.5v20q24 -1 49 -2t49 -1
t44.5 0.5t37.5 1.5v-18q-34 -4 -52.5 -17t-29.5 -36l-109 -214q-8 -15 -12 -30h118v-26h-123q-1 -8 -1.5 -15.5t-0.5 -15.5v-43h125v-26h-125v-92q0 -23 2.5 -37.5t10.5 -23.5t22 -13.5t38 -7.5v-21q-38 1 -84 1.5t-82 0.5t-65.5 -1t-57.5 -2v22q23 2 37 6.5t22 13.5
t10.5 23.5t2.5 36.5v94h-131v26h131v23q0 14 -2 26.5t-6 24.5h-123v26zM291 17q-14 8 -19 22t-5 35v182q0 13 -1 23t-4 19t-7.5 19t-10.5 22q-15 30 -36.5 69t-40.5 76.5t-32.5 67.5t-13.5 42q0 13 8 21q-10 -1 -17 -1h-14q-19 0 -38 3q12 -8 19 -17.5t14 -22.5l127 -244
q12 -23 18.5 -41.5t6.5 -43.5v-167q0 -47 -32 -65q13 2 22 2.5t21 0.5q10 0 16.5 -0.5t18.5 -1.5zM484 586q0 -8 -2.5 -17t-4.5 -17l18 31q6 11 15.5 20t22.5 14h-22h-26t-24 1q10 -3 16.5 -11t6.5 -21z" />
    <glyph glyph-name="brokenbar" unicode="&#xa6;" horiz-adv-x="283" 
d="M120 681h43v-369h-43v369zM163 -189h-43v373h43v-373z" />
    <glyph glyph-name="section" unicode="&#xa7;" horiz-adv-x="658" 
d="M216 502q187 -54 272 -152.5t85 -242.5q0 -71 -25 -128.5t-68 -98t-100.5 -62.5t-121.5 -22q-84 0 -132 27.5t-48 84.5q0 40 28 64t82 29q-1 -6 -1 -11.5v-11.5q0 -63 34 -95t85 -32q49 0 87.5 26.5t52.5 69.5q-87 24 -154 66t-112.5 97t-68.5 119.5t-23 132.5
q0 64 24.5 116.5t65.5 89t95.5 56.5t113.5 20q55 0 92 -9t59.5 -23.5t32 -33t9.5 -38.5q0 -34 -27 -56t-78 -27q1 7 1 13v12q0 53 -29 81t-86 28q-48 0 -86.5 -23.5t-58.5 -65.5zM206 454q-3 -8 -3 -19q0 -67 23.5 -130.5t60.5 -121t83 -107.5t90 -89q2 5 3 12.5t1 12.5
q0 72 -23 137t-59.5 121t-83 102.5t-92.5 81.5zM219 578q-23 -18 -43 -39t-35 -46.5t-24 -56.5t-9 -68q0 -67 21.5 -129.5t65 -116t109.5 -95t154 -65.5q-80 32 -140 75.5t-100.5 96t-61 112.5t-20.5 126q0 75 24 126t59 80zM437 -107q34 38 50.5 84.5t16.5 106.5
q0 70 -25.5 129.5t-67.5 108.5t-96.5 87.5t-112.5 67.5q50 -29 100 -77t90 -107.5t65 -125.5t25 -132q0 -45 -12.5 -79t-32.5 -63zM366 608q36 0 61 -9.5t41 -25t23 -36.5t7 -44v-11q31 8 31 38q0 21 -10.5 37.5t-29 28.5t-43.5 18.5t-53 6.5q-11 0 -27 -3zM261 -179
q-62 0 -97 26t-35 74q0 18 7.5 33.5t20.5 23.5q-27 -7 -42 -26t-15 -45q0 -42 38.5 -65.5t95.5 -23.5q10 0 27 3z" />
    <glyph glyph-name="dieresis" unicode="&#xa8;" 
d="M155 578q29 0 44.5 -14.5t15.5 -40.5t-16 -42t-45 -16q-28 0 -43.5 15t-15.5 40q0 27 17 42.5t43 15.5zM347 578q27 0 42.5 -14.5t15.5 -40.5t-16.5 -42t-45.5 -16q-27 0 -43 15t-16 40q0 27 18.5 42.5t44.5 15.5zM111 522q0 -20 12.5 -31t30.5 -13q-11 9 -17 22t-6 26
q0 22 9 37q-29 -9 -29 -41zM301 521q0 -21 12 -31.5t30 -12.5q-11 9 -17 22t-6 27q0 21 9 36q-28 -9 -28 -41z" />
    <glyph glyph-name="copyright" unicode="&#xa9;" horiz-adv-x="857" 
d="M450 28q55 0 81 23t37 70h16q-3 -33 -6.5 -60t-10.5 -54q-23 -5 -56.5 -11t-72.5 -6q-48 0 -85 15t-62 41.5t-38 62.5t-13 78t13 80.5t38 68t62 47t84 17.5q44 0 70.5 -4t52.5 -10q6 -25 11 -51.5t9 -67.5l-17 -1q-11 44 -47.5 70.5t-94.5 26.5q-29 0 -52.5 -12.5
t-40 -33t-25.5 -47.5t-9 -56q0 -33 11 -66t31 -59.5t49 -43.5t65 -17zM95 199q0 -68 24.5 -127.5t69 -104.5t105.5 -71t135 -26q73 0 135 26t106 71t69 104.5t25 127.5t-25 127.5t-69 104t-106 70.5t-135 26q-74 0 -135 -26t-105.5 -70.5t-69 -104t-24.5 -127.5zM72 196
q0 75 28 141t77 115t116 77t145 28q79 0 143 -28t109.5 -77t70 -115t24.5 -141t-27 -140.5t-75.5 -114.5t-115 -77t-145.5 -28q-78 0 -142.5 28t-110.5 77t-71.5 114.5t-25.5 140.5z" />
    <glyph glyph-name="ordfeminine" unicode="&#xaa;" horiz-adv-x="377" 
d="M213 516q-35 -9 -55.5 -29t-20.5 -38q0 -10 5.5 -15t13.5 -5q23 0 38.5 21.5t17.5 48.5zM254 383q-41 0 -41 55v18q-13 -32 -33.5 -52.5t-54.5 -20.5q-25 0 -41 13.5t-16 39.5q0 34 35 59t110 37v23q0 28 -8 39.5t-28 11.5q-27 0 -45 -18t-19 -53q-10 0 -20 1.5
t-18.5 5.5t-14 12t-5.5 20q0 26 30.5 46t91.5 20q57 0 80 -20.5t23 -58.5q0 -11 -1 -26t-2.5 -31t-2.5 -30t-1 -22q0 -23 11 -23t22 11q1 -4 1 -10q0 -18 -15 -32.5t-38 -14.5z" />
    <glyph glyph-name="guillemotleft" unicode="&#xab;" horiz-adv-x="566" 
d="M45 209q0 9 16 25t43 35.5t62.5 39.5t74.5 35q4 2 11 2q11 0 19.5 -8.5t8.5 -16.5q0 -6 -14 -21t-33.5 -32.5t-39.5 -34t-32 -25.5q13 -11 33.5 -28.5t39.5 -35.5t32.5 -34t13.5 -24q0 -9 -8 -16.5t-19 -7.5q-5 0 -11 2q-32 12 -66.5 32t-63.5 40.5t-48 39t-19 27.5v6z
M67 199q15 -16 35 -32t43 -31t47.5 -29t47.5 -24q6 -3 11 -3q8 0 13 6q-5 1 -14 5.5t-20 10.5q-17 9 -37.5 23t-41.5 30t-40 32.5t-31 28.5q-3 3 -5 3q-3 0 -7.5 -4.5t-4.5 -8.5q0 -3 4 -7zM261 209q0 9 16 25t43 35.5t62.5 39.5t74.5 35q4 2 11 2q11 0 19.5 -8.5t8.5 -16.5
q0 -6 -14 -21t-33.5 -32.5t-39.5 -34t-32 -25.5q13 -11 33.5 -28.5t39.5 -35.5t32.5 -34t13.5 -24q0 -9 -8 -16.5t-19 -7.5q-5 0 -11 2q-32 12 -66.5 32t-63.5 40.5t-48 39t-19 27.5v6zM283 199q15 -16 35 -32t43 -31t47.5 -29t47.5 -24q6 -3 11 -3q8 0 13 6q-5 1 -14 5.5
t-20 10.5q-17 9 -38.5 22.5t-43 29t-40 32t-28.5 30.5q-3 3 -5 3q-3 0 -7.5 -4.5t-4.5 -8.5q0 -3 4 -7z" />
    <glyph glyph-name="logicalnot" unicode="&#xac;" horiz-adv-x="539" 
d="M53 270h417v-223h-137v179h-280v44zM353 66h20v160h-20v-160z" />
    <glyph glyph-name="registered" unicode="&#xae;" horiz-adv-x="624" 
d="M95 476q0 43 15.5 81t44 66t68.5 44.5t89 16.5q50 0 90 -16.5t68.5 -44.5t43.5 -66t15 -81q0 -44 -15 -82.5t-43.5 -67t-68.5 -45t-90 -16.5q-49 0 -89 16.5t-68.5 45t-44 67t-15.5 82.5zM128 476q0 -38 13 -71.5t36.5 -58.5t57.5 -39.5t76 -14.5t77 14.5t59.5 39.5
t38 58.5t13.5 71.5q0 37 -13.5 70t-38 58t-59.5 39.5t-77 14.5t-76 -14.5t-57.5 -39.5t-36.5 -58t-13 -70zM393 526q0 -25 -11.5 -39t-25.5 -22q9 -15 18.5 -30.5t20 -29.5t21 -24t21.5 -13q-5 -8 -16 -11.5t-25 -3.5q-20 0 -33 9.5t-22 24.5t-16.5 33t-17.5 35l-18 2v-65
q1 -13 7.5 -17t24.5 -5v-17q-16 0 -31 1t-26 1t-24 -1t-29 -1v16q17 2 22.5 7t5.5 22v134q0 23 -5 30.5t-22 8.5v18l56 -1q8 0 19 0.5t25 0.5q36 0 58.5 -14t22.5 -49zM308 476q17 0 24.5 12t7.5 31q0 22 -11 35.5t-31 13.5h-9v-90q5 -1 9.5 -1.5t9.5 -0.5z" />
    <glyph glyph-name="macron" unicode="&#xaf;" 
d="M118 591h265v-78h-265v78zM133 527h234v19h-234v-19z" />
    <glyph glyph-name="macron" unicode="&#x2c9;" 
d="M118 591h265v-78h-265v78zM133 527h234v19h-234v-19z" />
    <glyph glyph-name="degree" unicode="&#xb0;" horiz-adv-x="341" 
d="M55 515q0 26 9.5 48t26 37.5t38 24.5t45.5 9q25 0 46 -9.5t35.5 -25t22.5 -37t8 -45.5q0 -27 -10 -48.5t-26.5 -37t-38.5 -24t-45 -8.5q-50 0 -80.5 32.5t-30.5 83.5zM105 515q0 -29 19.5 -46t45.5 -17q29 0 47 17t18 47q0 27 -19 45t-47 18t-46 -16.5t-18 -47.5z" />
    <glyph glyph-name="plusminus" unicode="&#xb1;" horiz-adv-x="533" 
d="M84 281h151v130h61v-130h153v-46h-153v-125h-61v125h-151v46zM92 62h357l-4 -46h-357z" />
    <glyph glyph-name="uni00B2" unicode="&#xb2;" horiz-adv-x="442" 
d="M215 639q61 0 94.5 -29t33.5 -77q0 -35 -14.5 -62t-39 -51.5t-58 -49.5t-72.5 -56l1 -2q5 2 12 3t15 1h120q14 0 19.5 7.5t9.5 32.5l18 -1q-1 -17 -1.5 -35.5t-2.5 -35.5q-1 -18 -8.5 -23.5t-27.5 -5.5h-210v11q0 22 16 39.5t40 38.5q25 22 46 43t36 42t23.5 43.5
t8.5 48.5q0 31 -15.5 50t-47.5 19q-29 0 -44.5 -18t-15.5 -42q0 -13 3.5 -24t9.5 -22q-32 0 -53 15t-21 46q0 41 35 67.5t90 26.5zM226 598q27 -4 43 -23.5t16 -51.5q0 -19 -3.5 -35t-11.5 -31.5t-20.5 -31.5t-29.5 -36q18 18 32.5 34t25 31.5t16.5 32.5t6 37
q0 36 -19.5 53.5t-54.5 20.5zM114 550q0 25 15 45.5t38 28.5q-29 -9 -48 -29t-19 -49q0 -44 48 -53q-34 21 -34 57zM116 275q-1 -3 -1 -10l207 1q16 0 17 14l2 25q-5 -17 -10 -23.5t-17 -6.5h-198z" />
    <glyph glyph-name="uni00B3" unicode="&#xb3;" horiz-adv-x="444" 
d="M100 560q0 -23 14.5 -31.5t37.5 -8.5q-20 3 -29.5 15t-9.5 30q0 14 6 27t16 21q-13 -8 -24 -21.5t-11 -31.5zM220 639q60 0 91.5 -24t31.5 -62q0 -36 -21 -57.5t-59 -32.5v-3q45 -3 73.5 -23t28.5 -61q0 -29 -14 -53t-37 -41t-53.5 -26t-63.5 -9q-20 0 -38 2.5t-32 8.5
t-22 16t-8 25q0 23 17 35t48 13q0 -32 16 -50.5t40 -18.5q32 0 47 27t15 65q0 30 -13 49.5t-40 19.5q-11 0 -22 -2t-21 -5q-2 4 -4 8.5t-2 9.5q0 10 16 10l20 1q30 1 42.5 23t12.5 54q0 26 -15 43.5t-39 17.5q-25 0 -38.5 -14t-13.5 -34q0 -22 11 -38q-10 -2 -19 -2
q-64 0 -64 48q0 33 34.5 56.5t94.5 23.5zM202 256q-80 3 -80 49q0 20 16 30q-12 -2 -21.5 -10t-9.5 -23q0 -25 25 -35.5t70 -10.5zM223 609q25 -3 41 -21.5t16 -47.5q0 -21 -5.5 -38t-20.5 -31q22 14 31.5 32t9.5 40q0 29 -20 47.5t-52 18.5zM235 448q30 -4 43 -26t13 -51
q0 -32 -10 -54.5t-27 -38.5q24 15 38.5 39t14.5 58q0 32 -19 52.5t-53 20.5z" />
    <glyph glyph-name="acute" unicode="&#xb4;" horiz-adv-x="517" 
d="M279 626q8 0 17.5 -4t17.5 -10t13.5 -13.5t5.5 -14.5q0 -14 -14.5 -34t-34 -39.5t-39 -34t-28.5 -17.5q-3 -1 -9 -1q-16 0 -16 18q0 19 10 45t24 49.5t29 39.5t24 16zM266 570q0 4 -3 6t-5 2q-6 0 -15.5 -13t-17.5 -29.5t-14 -32t-6 -21.5q0 -2 2 -2q3 0 12.5 12t20 27.5
t18.5 30.5t8 20z" />
    <glyph glyph-name="mu" unicode="&#xb5;" horiz-adv-x="618" 
d="M395 350q0 -11 -0.5 -34t-1 -50.5t-1 -56.5t-0.5 -53q0 -30 3.5 -57.5t13.5 -48t29 -33t49 -12.5q33 0 54 16.5t29 36.5q-7 -17 -27 -26.5t-50 -9.5q-27 0 -43 10.5t-25 29t-12 44t-3 54.5q0 14 0.5 40.5t1 55.5t1.5 55t2 38q2 29 16.5 38t49.5 12q-38 0 -61.5 -9
t-24.5 -40zM524 411q-5 -30 -13.5 -73t-16 -85.5t-13 -79t-5.5 -53.5q0 -23 9.5 -35.5t26.5 -12.5q23 0 44.5 13.5t38.5 34.5q0 -28 -5.5 -52t-18.5 -42t-33.5 -28t-50.5 -10q-39 0 -66 19t-35 57h-4q-17 -30 -45 -52.5t-70 -22.5q-32 0 -54.5 14t-31.5 44h-4
q-2 -42 -2.5 -86.5t-0.5 -81.5q0 -34 2.5 -71.5t7.5 -64.5q-5 -1 -10.5 -1.5t-12.5 -0.5q-68 0 -97 20t-29 66q0 21 7.5 59t18 82t22.5 90.5t20 85.5l17 208q0 37 34 49t118 12q-20 -91 -37.5 -165.5t-17.5 -115.5q0 -27 13 -42.5t37 -15.5q103 0 106 143l3 135q1 18 7 30
t18 18.5t31.5 9.5t48.5 3q13 0 23.5 -0.5t19.5 -1.5zM157 341q1 15 4 24.5t9.5 15.5t17 10t26.5 7q-38 -3 -56.5 -12.5t-20.5 -38.5q-1 -15 -2.5 -40.5t-4 -54.5t-5.5 -58t-6 -51q-2 -16 -7.5 -41t-13 -55.5t-15 -63t-14 -62t-10.5 -54.5t-4 -40q0 -36 25 -52.5t75 -17.5
q-32 7 -53 22.5t-21 49.5q0 23 8 67t18 91t19.5 90t12.5 64q2 15 4.5 39t5 51.5t4.5 56.5t4 53zM268 7q21 0 39 8t32 20.5t24 29t15 34.5q-14 -31 -41 -51.5t-67 -20.5q-25 0 -44.5 8t-33.5 29q9 -31 28.5 -44t47.5 -13z" />
    <glyph glyph-name="mu" unicode="&#x3bc;" horiz-adv-x="618" 
d="M395 350q0 -11 -0.5 -34t-1 -50.5t-1 -56.5t-0.5 -53q0 -30 3.5 -57.5t13.5 -48t29 -33t49 -12.5q33 0 54 16.5t29 36.5q-7 -17 -27 -26.5t-50 -9.5q-27 0 -43 10.5t-25 29t-12 44t-3 54.5q0 14 0.5 40.5t1 55.5t1.5 55t2 38q2 29 16.5 38t49.5 12q-38 0 -61.5 -9
t-24.5 -40zM524 411q-5 -30 -13.5 -73t-16 -85.5t-13 -79t-5.5 -53.5q0 -23 9.5 -35.5t26.5 -12.5q23 0 44.5 13.5t38.5 34.5q0 -28 -5.5 -52t-18.5 -42t-33.5 -28t-50.5 -10q-39 0 -66 19t-35 57h-4q-17 -30 -45 -52.5t-70 -22.5q-32 0 -54.5 14t-31.5 44h-4
q-2 -42 -2.5 -86.5t-0.5 -81.5q0 -34 2.5 -71.5t7.5 -64.5q-5 -1 -10.5 -1.5t-12.5 -0.5q-68 0 -97 20t-29 66q0 21 7.5 59t18 82t22.5 90.5t20 85.5l17 208q0 37 34 49t118 12q-20 -91 -37.5 -165.5t-17.5 -115.5q0 -27 13 -42.5t37 -15.5q103 0 106 143l3 135q1 18 7 30
t18 18.5t31.5 9.5t48.5 3q13 0 23.5 -0.5t19.5 -1.5zM157 341q1 15 4 24.5t9.5 15.5t17 10t26.5 7q-38 -3 -56.5 -12.5t-20.5 -38.5q-1 -15 -2.5 -40.5t-4 -54.5t-5.5 -58t-6 -51q-2 -16 -7.5 -41t-13 -55.5t-15 -63t-14 -62t-10.5 -54.5t-4 -40q0 -36 25 -52.5t75 -17.5
q-32 7 -53 22.5t-21 49.5q0 23 8 67t18 91t19.5 90t12.5 64q2 15 4.5 39t5 51.5t4.5 56.5t4 53zM268 7q21 0 39 8t32 20.5t24 29t15 34.5q-14 -31 -41 -51.5t-67 -20.5q-25 0 -44.5 8t-33.5 29q9 -31 28.5 -44t47.5 -13z" />
    <glyph glyph-name="paragraph" unicode="&#xb6;" horiz-adv-x="615" 
d="M252 597q-26 -8 -49.5 -22.5t-41.5 -37.5t-28.5 -53.5t-10.5 -69.5q0 -41 13 -73.5t37 -56t57 -37.5t73 -18q-28 7 -54 23t-46 40t-32 56.5t-12 72.5q0 66 23 107.5t71 68.5zM477 594v-602q0 -43 -11 -79t-32.5 -62t-54.5 -40.5t-77 -14.5q-57 0 -89 30t-32 81
q0 25 9.5 45.5t24.5 35t34.5 22t40.5 7.5q35 0 54.5 -16t19.5 -39q0 -41 -42 -51q1 5 2 7t1 5q0 17 -12 29.5t-35 12.5q-26 0 -39.5 -16t-13.5 -42q0 -32 21 -51.5t58 -19.5q67 0 96 39t29 112v210q-70 0 -129.5 9.5t-103.5 34t-69 67.5t-25 111q0 56 21.5 97t60 68t92.5 40
t119 13h135v-43h-53z" />
    <glyph glyph-name="periodcentered" unicode="&#xb7;" horiz-adv-x="254" 
d="M55 290q0 27 20 47.5t52 20.5q34 0 53 -19.5t19 -50.5q0 -29 -20 -49t-52 -20q-31 0 -51.5 19t-20.5 52zM73 289q0 -24 14 -39t37 -17q-15 13 -21.5 29.5t-6.5 31.5q0 16 3.5 26t8.5 21q-16 -5 -25.5 -18.5t-9.5 -33.5z" />
    <glyph glyph-name="periodcentered" unicode="&#x2219;" horiz-adv-x="254" 
d="M55 290q0 27 20 47.5t52 20.5q34 0 53 -19.5t19 -50.5q0 -29 -20 -49t-52 -20q-31 0 -51.5 19t-20.5 52zM73 289q0 -24 14 -39t37 -17q-15 13 -21.5 29.5t-6.5 31.5q0 16 3.5 26t8.5 21q-16 -5 -25.5 -18.5t-9.5 -33.5z" />
    <glyph glyph-name="cedilla" unicode="&#xb8;" 
d="M279 0q-14 -6 -26 -14t-12 -17q0 -12 21 -17.5t46.5 -13t46.5 -23t21 -46.5q0 -20 -13.5 -38t-34.5 -32t-46.5 -22.5t-49.5 -8.5q-40 0 -60 14t-20 37q0 18 11 29t25 18q9 -19 32 -34.5t46 -15.5q17 0 28 6.5t11 19.5q0 14 -20.5 22t-45 16t-45 20.5t-20.5 35.5t21.5 38
t51.5 26h32zM210 -33q-21 -10 -21 -30q0 -18 20.5 -28t45 -18t45 -17.5t20.5 -27.5q0 -15 -11 -26q11 6 18.5 15t7.5 22q0 19 -21 29t-46.5 18.5t-46.5 17.5t-21 27q0 11 10 18zM178 -153q-13 -8 -13 -25q0 -19 19 -31t54 -12q-61 14 -61 57v5.5t1 5.5z" />
    <glyph glyph-name="uni00B9" unicode="&#xb9;" horiz-adv-x="409" 
d="M120 631l138 13q2 -1 4.5 -3.5l4.5 -4.5l-5 -53v-279q0 -20 7 -25t26 -5h26v-19h-195v19h31q17 0 22 5t5 25v267q0 20 -7 28.5t-30 8.5h-26zM174 613q11 -2 16 -10t5 -18v-296q0 -9 -3 -15t-14 -9q10 1 14.5 1h10.5h5v350z" />
    <glyph glyph-name="ordmasculine" unicode="&#xba;" horiz-adv-x="392" 
d="M197 641q56 0 90 -34t34 -90q0 -30 -11 -54.5t-30 -42t-45.5 -27t-57.5 -9.5q-54 0 -88 33.5t-34 89.5q0 28 10.5 52.5t29.5 42.5t45 28.5t57 10.5zM177 594q-30 0 -45 -20t-15 -50q0 -21 6.5 -39.5t18 -32t27 -21.5t33.5 -8q29 0 43 21.5t14 50.5q0 43 -23.5 71
t-58.5 28z" />
    <glyph glyph-name="guillemotright" unicode="&#xbb;" horiz-adv-x="566" 
d="M521 203q0 -9 -19 -27.5t-48 -39t-64 -40.5t-66 -32q-6 -2 -11 -2q-11 0 -19 7.5t-8 16.5q0 8 13.5 24t32.5 34t39 35.5t34 28.5q-12 9 -32 25.5t-39.5 34t-33.5 32.5t-14 21q0 8 8.5 16.5t19.5 8.5q7 0 11 -2q39 -15 74.5 -35t62.5 -39.5t43 -35.5t16 -25v-6zM499 199
q4 4 4 7q0 4 -4.5 8.5t-7.5 4.5q-2 0 -5 -3q-12 -12 -31 -28.5t-40 -32.5t-42 -30t-37 -23q-11 -6 -20 -10.5t-14 -5.5q4 -6 13 -6q5 0 11 3q23 10 47.5 24t47.5 29t43 31t35 32zM305 203q0 -9 -19 -27.5t-48 -39t-64 -40.5t-66 -32q-6 -2 -11 -2q-11 0 -19 7.5t-8 16.5
q0 8 13.5 24t32.5 34t39 35.5t34 28.5q-12 9 -32 25.5t-39.5 34t-33.5 32.5t-14 21q0 8 8.5 16.5t19.5 8.5q7 0 11 -2q39 -15 74.5 -35t62.5 -39.5t43 -35.5t16 -25v-6zM283 199q4 4 4 7q0 4 -4.5 8.5t-7.5 4.5q-2 0 -5 -3q-10 -14 -28.5 -30.5t-40 -32t-43.5 -29t-38 -22.5
q-11 -6 -20 -10.5t-14 -5.5q4 -6 13 -6q5 0 11 3q23 10 47.5 24t47.5 29t43 31t35 32z" />
    <glyph glyph-name="onequarter" unicode="&#xbc;" horiz-adv-x="982" 
d="M599 645l40 -16l-278 -656l-40 16zM120 631l138 13q2 -1 4.5 -3.5l4.5 -4.5l-5 -53v-279q0 -20 7 -25t26 -5h26v-19h-195v19h31q17 0 22 5t5 25v267q0 20 -7 28.5t-30 8.5h-26zM174 613q11 -2 16 -10t5 -18v-296q0 -9 -3 -15t-14 -9q10 1 14.5 1h10.5h5v350zM696 369
q0 -51 -12.5 -96.5t-48.5 -94.5q75 91 75 163q0 31 -14 41v-13zM765 338q0 -24 -13.5 -50.5t-36 -55t-51.5 -58.5t-61 -61h148v129q21 2 39.5 8.5t37.5 16.5v-154h66l-4 -18h-62v-51q0 -32 40 -33h7v-12q-25 0 -46.5 0.5t-40.5 0.5q-20 0 -43.5 -0.5t-41.5 -0.5v12
q30 2 39 10.5t9 28.5v45h-156q-14 0 -20 2.5t-10 17.5q33 34 55.5 64.5t36.5 63t20 69.5t6 84q38 0 60 -13t22 -45zM763 233v-190q0 -15 -7 -23t-19 -12q9 2 18.5 2h14.5h24q-10 4 -14.5 10.5t-4.5 20.5v194z" />
    <glyph glyph-name="onehalf" unicode="&#xbd;" horiz-adv-x="942" 
d="M580 645l40 -16l-278 -656l-40 16zM120 631l138 13q2 -1 4.5 -3.5l4.5 -4.5l-5 -53v-279q0 -20 7 -25t26 -5h26v-19h-195v19h31q17 0 22 5t5 25v267q0 20 -7 28.5t-30 8.5h-26zM174 613q11 -2 16 -10t5 -18v-296q0 -9 -3 -15t-14 -9q10 1 14.5 1h10.5h5v350zM715 384
q61 0 94.5 -29t33.5 -77q0 -35 -14.5 -62t-39 -51.5t-58 -49.5t-72.5 -56l1 -2q5 2 12 3t15 1h120q14 0 19.5 7.5t9.5 32.5l18 -1q-1 -17 -1.5 -35.5t-2.5 -35.5q-1 -18 -8.5 -23.5t-27.5 -5.5h-210v11q0 22 16 39.5t40 38.5q25 22 46 43t36 42t23.5 43.5t8.5 48.5
q0 31 -15.5 50t-47.5 19q-29 0 -44.5 -18t-15.5 -42q0 -13 3.5 -24t9.5 -22q-32 0 -53 15t-21 46q0 41 35 67.5t90 26.5zM726 343q27 -4 43 -23.5t16 -51.5q0 -19 -3.5 -35t-11.5 -31.5t-20.5 -31.5t-29.5 -36q18 18 32.5 34t25 31.5t16.5 32.5t6 37q0 36 -19.5 53.5
t-54.5 20.5zM614 295q0 25 15 45.5t38 28.5q-29 -9 -48 -29t-19 -49q0 -44 48 -53q-34 21 -34 57zM616 20q-1 -3 -1 -10l207 1q16 0 17 14l2 25q-5 -17 -10 -23.5t-17 -6.5h-198z" />
    <glyph glyph-name="threequarters" unicode="&#xbe;" horiz-adv-x="1032" 
d="M648 645l40 -16l-278 -656l-40 16zM149 560q0 -23 14.5 -31.5t37.5 -8.5q-20 3 -29.5 15t-9.5 30q0 14 6 27t16 21q-13 -8 -24 -21.5t-11 -31.5zM269 639q60 0 91.5 -24t31.5 -62q0 -36 -21 -57.5t-59 -32.5v-3q45 -3 73.5 -23t28.5 -61q0 -29 -14 -53t-37 -41t-53.5 -26
t-63.5 -9q-20 0 -38 2.5t-32 8.5t-22 16t-8 25q0 23 17 35t48 13q0 -32 16 -50.5t40 -18.5q32 0 47 27t15 65q0 30 -13 49.5t-40 19.5q-11 0 -22 -2t-21 -5q-2 4 -4 8.5t-2 9.5q0 10 16 10l20 1q30 1 42.5 23t12.5 54q0 26 -15 43.5t-39 17.5q-25 0 -38.5 -14t-13.5 -34
q0 -22 11 -38q-10 -2 -19 -2q-64 0 -64 48q0 33 34.5 56.5t94.5 23.5zM251 256q-80 3 -80 49q0 20 16 30q-12 -2 -21.5 -10t-9.5 -23q0 -25 25 -35.5t70 -10.5zM272 609q25 -3 41 -21.5t16 -47.5q0 -21 -5.5 -38t-20.5 -31q22 14 31.5 32t9.5 40q0 29 -20 47.5t-52 18.5z
M284 448q30 -4 43 -26t13 -51q0 -32 -10 -54.5t-27 -38.5q24 15 38.5 39t14.5 58q0 32 -19 52.5t-53 20.5zM746 369q0 -51 -12.5 -96.5t-48.5 -94.5q75 91 75 163q0 31 -14 41v-13zM815 338q0 -24 -13.5 -50.5t-36 -55t-51.5 -58.5t-61 -61h148v129q21 2 39.5 8.5t37.5 16.5
v-154h66l-4 -18h-62v-51q0 -32 40 -33h7v-12q-25 0 -46.5 0.5t-40.5 0.5q-20 0 -43.5 -0.5t-41.5 -0.5v12q30 2 39 10.5t9 28.5v45h-156q-14 0 -20 2.5t-10 17.5q33 34 55.5 64.5t36.5 63t20 69.5t6 84q38 0 60 -13t22 -45zM813 233v-190q0 -15 -7 -23t-19 -12q9 2 18.5 2
h14.5h24q-10 4 -14.5 10.5t-4.5 20.5v194z" />
    <glyph glyph-name="questiondown" unicode="&#xbf;" horiz-adv-x="537" 
d="M473 -69q0 -26 -12.5 -50.5t-38 -43.5t-65 -31t-93.5 -12q-105 0 -154.5 42t-49.5 105q0 31 9 54t24.5 42.5t37 36t46.5 34.5q16 12 31.5 22t27.5 19.5t19.5 19.5t7.5 23q0 23 -12.5 34.5t-34.5 19.5l8 19q28 0 54 -4.5t45 -15t30.5 -27t11.5 -41.5q0 -37 -25 -61
t-66 -53q-27 -19 -45.5 -33.5t-30.5 -29t-17 -30.5t-5 -37q0 -36 22.5 -63.5t66.5 -27.5q43 0 67 27t24 65q0 29 -9.5 48.5t-23.5 39.5q21 3 36 3q54 0 84 -23t30 -71zM312 -169q39 16 63.5 39t24.5 60q0 54 -48 79q25 -25 25 -78q0 -32 -18 -57.5t-47 -42.5zM303 188
q0 25 -14.5 37.5t-39.5 20.5q14 -7 24 -19t10 -37q0 -18 -15 -34t-37.5 -32t-49 -33t-49 -39t-37.5 -49t-15 -62q0 -32 14 -55t39 -40q-18 20 -26.5 44t-8.5 50q0 33 15 58.5t38 46.5t49.5 38.5t49.5 34t38 33.5t15 37zM215 379q0 26 19.5 45t48.5 19q32 0 50 -18.5
t18 -47.5q0 -26 -18.5 -45.5t-49.5 -19.5q-29 0 -48.5 18t-19.5 49zM233 378q0 -23 13.5 -36t34.5 -15q-14 12 -20 27t-6 29q0 15 3 25t8 18q-14 -5 -23.5 -17t-9.5 -31z" />
    <glyph glyph-name="Agrave" unicode="&#xc0;" horiz-adv-x="631" 
d="M623 -3q-17 1 -32 1.5t-30 0.5h-31.5h-38.5q-41 0 -74 -0.5t-71 -2.5v22q26 3 39.5 11.5t13.5 37.5q0 10 -6 31.5t-13.5 44.5t-14.5 44.5t-10 32.5h-184q-5 -16 -13 -38t-15.5 -44.5t-13 -42.5t-5.5 -31q0 -23 19.5 -33.5t47.5 -12.5l23 -2v-21q-34 1 -62.5 1.5
t-62.5 0.5h-23.5t-18.5 -0.5t-19 -1t-24 -0.5v19q21 7 37 15.5t28.5 22t23.5 34t22 51.5l181 506q27 3 56 14l166 -476q13 -39 24 -67.5t22 -48.5t25 -31t34 -15v-22zM265 490l-86 -247h170zM369 240q7 -21 15.5 -47t16 -51t12.5 -46t5 -33q0 -15 -6.5 -26.5t-22.5 -22.5
q16 2 29.5 2.5t29.5 0.5h24t29 -2q-24 9 -36 25.5t-22 45.5l-154 470l-12 -35zM106 57q0 4 0.5 10t3.5 17q-14 -28 -30 -43.5t-39 -26.5q8 0 12.5 0.5l9 1t9.5 0.5h13q14 0 26.5 -0.5t29.5 -1.5q-35 12 -35 43zM258 815q11 0 23.5 -17t23 -39t17.5 -43.5t7 -30.5
q0 -17 -13 -17q-11 0 -28.5 13t-34.5 30t-29.5 35t-12.5 28q0 7 4.5 14.5t11 13.5t13.5 9.5t13 3.5h5zM245 767q-10 0 -10 -8q0 -6 9.5 -18.5t21.5 -24.5t23 -21.5t14 -9.5t3 1q0 3 -8 16t-18.5 27.5t-20.5 26t-14 11.5z" />
    <glyph glyph-name="Aacute" unicode="&#xc1;" horiz-adv-x="631" 
d="M623 -3q-17 1 -32 1.5t-30 0.5h-31.5h-38.5q-41 0 -74 -0.5t-71 -2.5v22q26 3 39.5 11.5t13.5 37.5q0 10 -6 31.5t-13.5 44.5t-14.5 44.5t-10 32.5h-184q-5 -16 -13 -38t-15.5 -44.5t-13 -42.5t-5.5 -31q0 -23 19.5 -33.5t47.5 -12.5l23 -2v-21q-34 1 -62.5 1.5
t-62.5 0.5h-23.5t-18.5 -0.5t-19 -1t-24 -0.5v19q21 7 37 15.5t28.5 22t23.5 34t22 51.5l181 506q27 3 56 14l166 -476q13 -39 24 -67.5t22 -48.5t25 -31t34 -15v-22zM265 490l-86 -247h170zM369 240q7 -21 15.5 -47t16 -51t12.5 -46t5 -33q0 -15 -6.5 -26.5t-22.5 -22.5
q16 2 29.5 2.5t29.5 0.5h24t29 -2q-24 9 -36 25.5t-22 45.5l-154 470l-12 -35zM106 57q0 4 0.5 10t3.5 17q-14 -28 -30 -43.5t-39 -26.5q8 0 12.5 0.5l9 1t9.5 0.5h13q14 0 26.5 -0.5t29.5 -1.5q-35 12 -35 43zM341 812q14 0 30 -11.5t16 -24.5q0 -12 -12.5 -29t-29 -33.5
t-33 -29t-24.5 -14.5q-2 -1 -7 -1q-14 0 -14 16t8.5 38t20.5 42t24.5 33.5t20.5 13.5zM330 764q0 7 -7 7q-5 0 -13 -11t-15 -25t-12 -27t-5 -18q0 -2 2 -2q3 0 11 10.5t16.5 23.5t15.5 25.5t7 16.5z" />
    <glyph glyph-name="Acircumflex" unicode="&#xc2;" horiz-adv-x="631" 
d="M623 -3q-17 1 -32 1.5t-30 0.5h-31.5h-38.5q-41 0 -74 -0.5t-71 -2.5v22q26 3 39.5 11.5t13.5 37.5q0 10 -6 31.5t-13.5 44.5t-14.5 44.5t-10 32.5h-184q-5 -16 -13 -38t-15.5 -44.5t-13 -42.5t-5.5 -31q0 -23 19.5 -33.5t47.5 -12.5l23 -2v-21q-34 1 -62.5 1.5
t-62.5 0.5h-23.5t-18.5 -0.5t-19 -1t-24 -0.5v19q21 7 37 15.5t28.5 22t23.5 34t22 51.5l181 506q27 3 56 14l166 -476q13 -39 24 -67.5t22 -48.5t25 -31t34 -15v-22zM265 490l-86 -247h170zM369 240q7 -21 15.5 -47t16 -51t12.5 -46t5 -33q0 -15 -6.5 -26.5t-22.5 -22.5
q16 2 29.5 2.5t29.5 0.5h24t29 -2q-24 9 -36 25.5t-22 45.5l-154 470l-12 -35zM106 57q0 4 0.5 10t3.5 17q-14 -28 -30 -43.5t-39 -26.5q8 0 12.5 0.5l9 1t9.5 0.5h13q14 0 26.5 -0.5t29.5 -1.5q-35 12 -35 43zM322 812q14 0 28 -16.5t25.5 -38t18.5 -44t7 -34.5
q0 -8 -5 -12.5t-12 -4.5q-19 0 -40.5 17.5t-35.5 36.5q-14 -17 -31.5 -33.5t-31.5 -16.5q-8 0 -8 11q0 9 8.5 31.5t21 45.5t26.5 40.5t25 17.5h4zM308 764q-4 0 -13 -10.5t-18 -24t-15.5 -25.5t-6.5 -15q0 -2 2 -2q3 0 9.5 6.5t14.5 15t15.5 17.5t11.5 14q4 -6 13 -15.5
l18 -19t17 -16t11 -6.5q2 0 2 2q0 4 -8 17t-18 26.5t-19.5 24.5t-12.5 11h-3z" />
    <glyph glyph-name="Atilde" unicode="&#xc3;" horiz-adv-x="631" 
d="M623 -3q-17 1 -32 1.5t-30 0.5h-31.5h-38.5q-41 0 -74 -0.5t-71 -2.5v22q26 3 39.5 11.5t13.5 37.5q0 10 -6 31.5t-13.5 44.5t-14.5 44.5t-10 32.5h-184q-5 -16 -13 -38t-15.5 -44.5t-13 -42.5t-5.5 -31q0 -23 19.5 -33.5t47.5 -12.5l23 -2v-21q-34 1 -62.5 1.5
t-62.5 0.5h-23.5t-18.5 -0.5t-19 -1t-24 -0.5v19q21 7 37 15.5t28.5 22t23.5 34t22 51.5l181 506q27 3 56 14l166 -476q13 -39 24 -67.5t22 -48.5t25 -31t34 -15v-22zM265 490l-86 -247h170zM369 240q7 -21 15.5 -47t16 -51t12.5 -46t5 -33q0 -15 -6.5 -26.5t-22.5 -22.5
q16 2 29.5 2.5t29.5 0.5h24t29 -2q-24 9 -36 25.5t-22 45.5l-154 470l-12 -35zM106 57q0 4 0.5 10t3.5 17q-14 -28 -30 -43.5t-39 -26.5q8 0 12.5 0.5l9 1t9.5 0.5h13q14 0 26.5 -0.5t29.5 -1.5q-35 12 -35 43zM397 804q14 -14 23.5 -36t9.5 -42q0 -43 -52 -43
q-15 0 -34 3.5t-38.5 7.5t-37 7.5t-27.5 3.5q-12 0 -15 -6.5t-3 -17.5q0 -4 0.5 -8.5t1.5 -9.5l-11 -1q-11 13 -23 30t-12 38q0 23 13.5 38t39.5 15q16 0 35.5 -4t38.5 -8.5t36.5 -8t30.5 -3.5q11 0 14.5 5.5t3.5 13.5q0 11 -3 23zM408 730q-3 -18 -28 -18q-11 0 -30 3.5
t-40 7.5t-41 7.5t-33 3.5q-33 0 -33 -23q0 -7 3 -14t8 -12v9q0 25 25 25q10 0 28 -3.5t38 -8t40 -8t35 -3.5q32 0 32 22q0 8 -4 12z" />
    <glyph glyph-name="Adieresis" unicode="&#xc4;" horiz-adv-x="631" 
d="M623 -3q-17 1 -32 1.5t-30 0.5h-31.5h-38.5q-41 0 -74 -0.5t-71 -2.5v22q26 3 39.5 11.5t13.5 37.5q0 10 -6 31.5t-13.5 44.5t-14.5 44.5t-10 32.5h-184q-5 -16 -13 -38t-15.5 -44.5t-13 -42.5t-5.5 -31q0 -23 19.5 -33.5t47.5 -12.5l23 -2v-21q-34 1 -62.5 1.5
t-62.5 0.5h-23.5t-18.5 -0.5t-19 -1t-24 -0.5v19q21 7 37 15.5t28.5 22t23.5 34t22 51.5l181 506q27 3 56 14l166 -476q13 -39 24 -67.5t22 -48.5t25 -31t34 -15v-22zM265 490l-86 -247h170zM369 240q7 -21 15.5 -47t16 -51t12.5 -46t5 -33q0 -15 -6.5 -26.5t-22.5 -22.5
q16 2 29.5 2.5t29.5 0.5h24t29 -2q-24 9 -36 25.5t-22 45.5l-154 470l-12 -35zM106 57q0 4 0.5 10t3.5 17q-14 -28 -30 -43.5t-39 -26.5q8 0 12.5 0.5l9 1t9.5 0.5h13q14 0 26.5 -0.5t29.5 -1.5q-35 12 -35 43zM239 771q24 0 37.5 -12.5t13.5 -33.5q0 -22 -14 -36t-38 -14
t-37 13t-13 34q0 23 14.5 36t36.5 13zM402 771q23 0 36 -12.5t13 -33.5q0 -22 -13.5 -36t-38.5 -14q-23 0 -37 13t-14 34q0 23 16 36t38 13zM201 724q0 -17 10.5 -26.5t26.5 -11.5q-10 8 -15 19t-5 22q0 18 8 32q-25 -9 -25 -35zM363 723q0 -18 10 -27t26 -11q-20 17 -20 42
q0 17 8 31q-24 -7 -24 -35z" />
    <glyph glyph-name="Aring" unicode="&#xc5;" horiz-adv-x="631" 
d="M623 -3q-17 1 -32 1.5t-30 0.5h-31.5h-38.5q-41 0 -74 -0.5t-71 -2.5v22q26 3 39.5 11.5t13.5 37.5q0 10 -6 31.5t-13.5 44.5t-14.5 44.5t-10 32.5h-184q-5 -16 -13 -38t-15.5 -44.5t-13 -42.5t-5.5 -31q0 -23 19.5 -33.5t47.5 -12.5l23 -2v-21q-34 1 -62.5 1.5
t-62.5 0.5h-23.5t-18.5 -0.5t-19 -1t-24 -0.5v19q21 7 37 15.5t28.5 22t23.5 34t22 51.5l175 491q-17 7 -25.5 22.5t-8.5 36.5q0 26 19 46t47 20q26 0 40.5 -17.5t14.5 -46.5t-20 -47l161 -461q13 -39 24 -67.5t22 -48.5t25 -31t34 -15v-22zM265 490l-86 -247h170zM369 240
q14 -44 23.5 -74t15 -50t8 -32t2.5 -21q0 -15 -6.5 -26.5t-22.5 -22.5q16 2 29.5 2.5t29.5 0.5h24t29 -2q-24 9 -36 25.5t-22 45.5l-154 470l-12 -35zM277 692q0 -19 10.5 -31t29.5 -12q18 0 28.5 8t10.5 25q0 20 -11 33t-30 13q-17 0 -27.5 -9.5t-10.5 -26.5zM106 57
q0 4 0.5 10t3.5 17q-14 -28 -30 -43.5t-39 -26.5q8 0 12.5 0.5l9 1t9.5 0.5h13q14 0 26.5 -0.5t29.5 -1.5q-35 12 -35 43z" />
    <glyph glyph-name="AE" unicode="&#xc6;" horiz-adv-x="886" 
d="M111 59q1 4 3.5 10.5t9.5 17.5q-24 -29 -46 -45t-51 -27q17 1 23.5 1.5t23.5 0.5q14 0 27 -0.5t30 -1.5q-23 9 -23 29q0 7 3 15zM447 617q-16 0 -46 3q28 -11 36 -30t8 -43v-464q0 -25 -10 -41.5t-34 -27.5q15 2 31 2.5t24 0.5h8v600h-17zM701 615q47 -10 72 -35t43 -67
q-5 26 -13 53.5t-17 49.5q-14 -1 -20.5 -1.5t-18.5 -0.5zM759 18h24t25 -1q8 22 13.5 41.5t12.5 46.5q-15 -34 -41.5 -56.5t-65.5 -30.5h32zM483 634h59.5t81.5 0.5t90.5 1t86.5 1.5q14 -38 22.5 -78.5t14.5 -85.5l-20 -3q-15 37 -32 63.5t-41 43.5t-58 25.5t-83 8.5h-44
v-279h15q42 0 68 3.5t41.5 14t24 29.5t15.5 49l16 -3q-3 -26 -5 -54.5t-2 -58.5q0 -29 1.5 -56t3.5 -52l-15 -2q-8 33 -16 53t-23.5 31.5t-42 15t-71.5 3.5h-10v-285h86q45 0 77 9.5t54 27.5t36.5 44.5t25.5 60.5l16 -2q-4 -49 -13.5 -91t-19.5 -74q-41 0 -86.5 1t-91 1.5
t-88 1.5t-76.5 1q-32 0 -68.5 -0.5t-62.5 -1.5v20q46 4 62.5 21.5t16.5 55.5v135h-195q-14 -21 -31.5 -47.5t-34 -51.5t-27.5 -46.5t-11 -31.5q0 -17 15.5 -24.5t40.5 -9.5l23 -2l-7 -22q-35 1 -64.5 1.5t-64.5 0.5h-24.5t-20.5 -0.5t-20.5 -1t-24.5 -0.5l6 20
q24 7 43.5 15.5t37.5 22.5t36.5 35.5t40.5 53.5l281 416q-2 29 -20 41.5t-58 16.5v21q26 -1 64 -2t70 -1zM428 253v271l-180 -271h180z" />
    <glyph glyph-name="Ccedilla" unicode="&#xc7;" horiz-adv-x="675" 
d="M420 0q81 0 128 49.5t70 142.5l22 -2q-1 -44 -9 -91.5t-18 -86.5q-48 -13 -102.5 -23t-117.5 -10h-10t-10 1q-7 -5 -11.5 -9.5t-4.5 -9.5q0 -12 20 -17t44 -12.5t44 -21.5t20 -44q0 -19 -12.5 -36.5t-32.5 -30.5t-44.5 -21t-47.5 -8q-38 0 -57 13.5t-19 34.5
q0 17 10.5 27.5t24.5 17.5q8 -18 30 -33t44 -15q16 0 26.5 6.5t10.5 18.5q0 13 -19.5 20.5t-43 15.5t-43 19.5t-19.5 33.5q0 18 14 31t35 22q-69 7 -123.5 34t-92.5 69t-58 97t-20 120q0 69 25 131t70.5 109t109 74.5t140.5 27.5q64 0 112 -7.5t91 -20.5q10 -39 15.5 -80
t7.5 -92l-20 -2q-13 37 -30 69t-41.5 54.5t-59.5 35.5t-83 13q-44 0 -79 -22.5t-59 -60.5t-37 -89.5t-13 -108.5q0 -64 13.5 -124t41.5 -106.5t70 -74.5t98 -28zM66 295q0 -60 18 -109.5t50.5 -87t76.5 -63t96 -37.5q-46 15 -85 43.5t-67.5 68.5t-45 91t-16.5 110
q0 78 26 140t71 108q-32 -23 -55.5 -52.5t-38.5 -63.5t-22.5 -71.5t-7.5 -76.5zM580 596q-17 6 -47.5 12.5t-56.5 11.5q49 -20 81 -55.5t47 -92.5q-5 35 -10.5 66.5t-13.5 57.5zM318 -58q0 11 8 17q-18 -9 -18 -29q0 -17 19.5 -26.5t42.5 -17t42.5 -17t19.5 -25.5
q0 -13 -10 -25q10 6 17 14.5t7 20.5q0 18 -20 28t-44 17.5t-44 16.5t-20 26zM597 31q6 24 12.5 54.5t11.5 65.5q-12 -42 -34 -79.5t-64 -62.5q23 6 40.5 11t33.5 11zM297 -155q-12 -8 -12 -24q0 -18 17.5 -29.5t51.5 -11.5q-58 14 -58 54v5.5t1 5.5z" />
    <glyph glyph-name="Egrave" unicode="&#xc8;" horiz-adv-x="584" 
d="M181 634h59.5t81.5 0.5t90.5 1t86.5 1.5q14 -38 22.5 -78.5t14.5 -85.5l-20 -3q-15 37 -32 63.5t-41 43.5t-58 25.5t-83 8.5h-44v-279h15q42 0 68 3.5t41.5 14t24 29.5t15.5 49l16 -3q-3 -26 -5 -54.5t-2 -58.5q0 -29 1.5 -56t3.5 -52l-15 -2q-8 33 -16 53t-23.5 31.5
t-42 15t-71.5 3.5h-10v-285h86q45 0 77 9.5t54 27.5t36.5 44.5t25.5 60.5l16 -2q-4 -49 -13.5 -91t-19.5 -74q-41 0 -86.5 1t-91 1.5t-88 1.5t-76.5 1q-32 0 -68.5 -0.5t-62.5 -1.5v20q46 4 62.5 21.5t16.5 55.5v452q0 35 -17.5 50t-61.5 19v21q26 -1 64 -2t70 -1zM145 617
q-16 0 -46 3q28 -11 36 -30t8 -43v-464q0 -25 -10 -41.5t-34 -27.5q15 2 31 2.5t24 0.5h8v600h-17zM399 615q47 -10 72 -35t43 -67q-5 26 -13 53.5t-17 49.5q-14 -1 -20.5 -1.5t-18.5 -0.5zM457 18h24t25 -1q8 22 13.5 41.5t12.5 46.5q-15 -34 -41.5 -56.5t-65.5 -30.5h32z
M282 815q11 0 23.5 -17t23 -39t17.5 -43.5t7 -30.5q0 -17 -13 -17q-11 0 -28.5 13t-34.5 30t-29.5 35t-12.5 28q0 7 4.5 14.5t11 13.5t13.5 9.5t13 3.5h5zM269 767q-10 0 -10 -8q0 -6 9.5 -18.5t21.5 -24.5t23 -21.5t14 -9.5t3 1q0 3 -8 16t-18.5 27.5t-20.5 26t-14 11.5z
" />
    <glyph glyph-name="Eacute" unicode="&#xc9;" horiz-adv-x="584" 
d="M181 634h59.5t81.5 0.5t90.5 1t86.5 1.5q14 -38 22.5 -78.5t14.5 -85.5l-20 -3q-15 37 -32 63.5t-41 43.5t-58 25.5t-83 8.5h-44v-279h15q42 0 68 3.5t41.5 14t24 29.5t15.5 49l16 -3q-3 -26 -5 -54.5t-2 -58.5q0 -29 1.5 -56t3.5 -52l-15 -2q-8 33 -16 53t-23.5 31.5
t-42 15t-71.5 3.5h-10v-285h86q45 0 77 9.5t54 27.5t36.5 44.5t25.5 60.5l16 -2q-4 -49 -13.5 -91t-19.5 -74q-41 0 -86.5 1t-91 1.5t-88 1.5t-76.5 1q-32 0 -68.5 -0.5t-62.5 -1.5v20q46 4 62.5 21.5t16.5 55.5v452q0 35 -17.5 50t-61.5 19v21q26 -1 64 -2t70 -1zM145 617
q-16 0 -46 3q28 -11 36 -30t8 -43v-464q0 -25 -10 -41.5t-34 -27.5q15 2 31 2.5t24 0.5h8v600h-17zM399 615q47 -10 72 -35t43 -67q-5 26 -13 53.5t-17 49.5q-14 -1 -20.5 -1.5t-18.5 -0.5zM457 18h24t25 -1q8 22 13.5 41.5t12.5 46.5q-15 -34 -41.5 -56.5t-65.5 -30.5h32z
M368 812q14 0 30 -11.5t16 -24.5q0 -12 -12.5 -29t-29 -33.5t-33 -29t-24.5 -14.5q-2 -1 -7 -1q-14 0 -14 16t8.5 38t20.5 42t24.5 33.5t20.5 13.5zM357 764q0 7 -7 7q-5 0 -13 -11t-15 -25t-12 -27t-5 -18q0 -2 2 -2q3 0 11 10.5t16.5 23.5t15.5 25.5t7 16.5z" />
    <glyph glyph-name="Ecircumflex" unicode="&#xca;" horiz-adv-x="584" 
d="M181 634h59.5t81.5 0.5t90.5 1t86.5 1.5q14 -38 22.5 -78.5t14.5 -85.5l-20 -3q-15 37 -32 63.5t-41 43.5t-58 25.5t-83 8.5h-44v-279h15q42 0 68 3.5t41.5 14t24 29.5t15.5 49l16 -3q-3 -26 -5 -54.5t-2 -58.5q0 -29 1.5 -56t3.5 -52l-15 -2q-8 33 -16 53t-23.5 31.5
t-42 15t-71.5 3.5h-10v-285h86q45 0 77 9.5t54 27.5t36.5 44.5t25.5 60.5l16 -2q-4 -49 -13.5 -91t-19.5 -74q-41 0 -86.5 1t-91 1.5t-88 1.5t-76.5 1q-32 0 -68.5 -0.5t-62.5 -1.5v20q46 4 62.5 21.5t16.5 55.5v452q0 35 -17.5 50t-61.5 19v21q26 -1 64 -2t70 -1zM145 617
q-16 0 -46 3q28 -11 36 -30t8 -43v-464q0 -25 -10 -41.5t-34 -27.5q15 2 31 2.5t24 0.5h8v600h-17zM399 615q47 -10 72 -35t43 -67q-5 26 -13 53.5t-17 49.5q-14 -1 -20.5 -1.5t-18.5 -0.5zM457 18h24t25 -1q8 22 13.5 41.5t12.5 46.5q-15 -34 -41.5 -56.5t-65.5 -30.5h32z
M326 812q14 0 28 -16.5t25.5 -38t18.5 -44t7 -34.5q0 -8 -5 -12.5t-12 -4.5q-19 0 -40.5 17.5t-35.5 36.5q-14 -17 -31.5 -33.5t-31.5 -16.5q-8 0 -8 11q0 9 8.5 31.5t21 45.5t26.5 40.5t25 17.5h4zM312 764q-4 0 -13 -10.5t-18 -24t-15.5 -25.5t-6.5 -15q0 -2 2 -2
q3 0 9.5 6.5t14.5 15t15.5 17.5t11.5 14q4 -6 13 -15.5l18 -19t17 -16t11 -6.5q2 0 2 2q0 4 -8 17t-18 26.5t-19.5 24.5t-12.5 11h-3z" />
    <glyph glyph-name="Edieresis" unicode="&#xcb;" horiz-adv-x="584" 
d="M181 634h59.5t81.5 0.5t90.5 1t86.5 1.5q14 -38 22.5 -78.5t14.5 -85.5l-20 -3q-15 37 -32 63.5t-41 43.5t-58 25.5t-83 8.5h-44v-279h15q42 0 68 3.5t41.5 14t24 29.5t15.5 49l16 -3q-3 -26 -5 -54.5t-2 -58.5q0 -29 1.5 -56t3.5 -52l-15 -2q-8 33 -16 53t-23.5 31.5
t-42 15t-71.5 3.5h-10v-285h86q45 0 77 9.5t54 27.5t36.5 44.5t25.5 60.5l16 -2q-4 -49 -13.5 -91t-19.5 -74q-41 0 -86.5 1t-91 1.5t-88 1.5t-76.5 1q-32 0 -68.5 -0.5t-62.5 -1.5v20q46 4 62.5 21.5t16.5 55.5v452q0 35 -17.5 50t-61.5 19v21q26 -1 64 -2t70 -1zM145 617
q-16 0 -46 3q28 -11 36 -30t8 -43v-464q0 -25 -10 -41.5t-34 -27.5q15 2 31 2.5t24 0.5h8v600h-17zM399 615q47 -10 72 -35t43 -67q-5 26 -13 53.5t-17 49.5q-14 -1 -20.5 -1.5t-18.5 -0.5zM457 18h24t25 -1q8 22 13.5 41.5t12.5 46.5q-15 -34 -41.5 -56.5t-65.5 -30.5h32z
M236 771q24 0 37.5 -12.5t13.5 -33.5q0 -22 -14 -36t-38 -14t-37 13t-13 34q0 23 14.5 36t36.5 13zM399 771q23 0 36 -12.5t13 -33.5q0 -22 -13.5 -36t-38.5 -14q-23 0 -37 13t-14 34q0 23 16 36t38 13zM198 724q0 -17 10.5 -26.5t26.5 -11.5q-10 8 -15 19t-5 22q0 18 8 32
q-25 -9 -25 -35zM360 723q0 -18 10 -27t26 -11q-20 17 -20 42q0 17 8 31q-24 -7 -24 -35z" />
    <glyph glyph-name="Igrave" unicode="&#xcc;" horiz-adv-x="384" 
d="M338 618q-46 -6 -63 -23t-17 -58v-431q0 -48 16.5 -67t63.5 -23v-21q-24 0 -43 1l-38 2t-39.5 2t-47.5 1q-32 0 -64.5 -1t-59.5 -2v20q47 4 63.5 21.5t16.5 55.5v452q0 35 -17.5 50t-62.5 19v21q27 -1 65 -2t70 -1q45 0 81 3t76 3v-22zM144 617q-15 0 -45 3
q28 -11 35.5 -30t7.5 -43v-464q0 -25 -9.5 -41.5t-33.5 -27.5q15 2 30.5 2.5t24.5 0.5h19.5t22.5 -1q-19 10 -26.5 24t-7.5 40v471q0 26 4 41.5t19 25.5q-8 -1 -20.5 -1h-20.5zM153 815q11 0 23.5 -17t23 -39t17.5 -43.5t7 -30.5q0 -17 -13 -17q-11 0 -28.5 13t-34.5 30
t-29.5 35t-12.5 28q0 7 4.5 14.5t11 13.5t13.5 9.5t13 3.5h5zM140 767q-10 0 -10 -8q0 -6 9.5 -18.5t21.5 -24.5t23 -21.5t14 -9.5t3 1q0 3 -8 16t-18.5 27.5t-20.5 26t-14 11.5z" />
    <glyph glyph-name="Iacute" unicode="&#xcd;" horiz-adv-x="384" 
d="M338 618q-46 -6 -63 -23t-17 -58v-431q0 -48 16.5 -67t63.5 -23v-21q-24 0 -43 1l-38 2t-39.5 2t-47.5 1q-32 0 -64.5 -1t-59.5 -2v20q47 4 63.5 21.5t16.5 55.5v452q0 35 -17.5 50t-62.5 19v21q27 -1 65 -2t70 -1q45 0 81 3t76 3v-22zM144 617q-15 0 -45 3
q28 -11 35.5 -30t7.5 -43v-464q0 -25 -9.5 -41.5t-33.5 -27.5q15 2 30.5 2.5t24.5 0.5h19.5t22.5 -1q-19 10 -26.5 24t-7.5 40v471q0 26 4 41.5t19 25.5q-8 -1 -20.5 -1h-20.5zM245 812q14 0 30 -11.5t16 -24.5q0 -12 -12.5 -29t-29 -33.5t-33 -29t-24.5 -14.5q-2 -1 -7 -1
q-14 0 -14 16t8.5 38t20.5 42t24.5 33.5t20.5 13.5zM234 764q0 7 -7 7q-5 0 -13 -11t-15 -25t-12 -27t-5 -18q0 -2 2 -2q3 0 11 10.5t16.5 23.5t15.5 25.5t7 16.5z" />
    <glyph glyph-name="Icircumflex" unicode="&#xce;" horiz-adv-x="384" 
d="M338 618q-46 -6 -63 -23t-17 -58v-431q0 -48 16.5 -67t63.5 -23v-21q-24 0 -43 1l-38 2t-39.5 2t-47.5 1q-32 0 -64.5 -1t-59.5 -2v20q47 4 63.5 21.5t16.5 55.5v452q0 35 -17.5 50t-62.5 19v21q27 -1 65 -2t70 -1q45 0 81 3t76 3v-22zM144 617q-15 0 -45 3
q28 -11 35.5 -30t7.5 -43v-464q0 -25 -9.5 -41.5t-33.5 -27.5q15 2 30.5 2.5t24.5 0.5h19.5t22.5 -1q-19 10 -26.5 24t-7.5 40v471q0 26 4 41.5t19 25.5q-8 -1 -20.5 -1h-20.5zM199 812q14 0 28 -16.5t25.5 -38t18.5 -44t7 -34.5q0 -8 -5 -12.5t-12 -4.5q-19 0 -40.5 17.5
t-35.5 36.5q-14 -17 -31.5 -33.5t-31.5 -16.5q-8 0 -8 11q0 9 8.5 31.5t21 45.5t26.5 40.5t25 17.5h4zM185 764q-4 0 -13 -10.5t-18 -24t-15.5 -25.5t-6.5 -15q0 -2 2 -2q3 0 9.5 6.5t14.5 15t15.5 17.5t11.5 14q4 -6 13 -15.5l18 -19t17 -16t11 -6.5q2 0 2 2q0 4 -8 17
t-18 26.5t-19.5 24.5t-12.5 11h-3z" />
    <glyph glyph-name="Idieresis" unicode="&#xcf;" horiz-adv-x="384" 
d="M338 618q-46 -6 -63 -23t-17 -58v-431q0 -48 16.5 -67t63.5 -23v-21q-24 0 -43 1l-38 2t-39.5 2t-47.5 1q-32 0 -64.5 -1t-59.5 -2v20q47 4 63.5 21.5t16.5 55.5v452q0 35 -17.5 50t-62.5 19v21q27 -1 65 -2t70 -1q45 0 81 3t76 3v-22zM144 617q-15 0 -45 3
q28 -11 35.5 -30t7.5 -43v-464q0 -25 -9.5 -41.5t-33.5 -27.5q15 2 30.5 2.5t24.5 0.5h19.5t22.5 -1q-19 10 -26.5 24t-7.5 40v471q0 26 4 41.5t19 25.5q-8 -1 -20.5 -1h-20.5zM113 771q24 0 37.5 -12.5t13.5 -33.5q0 -22 -14 -36t-38 -14t-37 13t-13 34q0 23 14.5 36
t36.5 13zM276 771q23 0 36 -12.5t13 -33.5q0 -22 -13.5 -36t-38.5 -14q-23 0 -37 13t-14 34q0 23 16 36t38 13zM75 724q0 -17 10.5 -26.5t26.5 -11.5q-10 8 -15 19t-5 22q0 18 8 32q-25 -9 -25 -35zM237 723q0 -18 10 -27t26 -11q-20 17 -20 42q0 17 8 31q-24 -7 -24 -35z
" />
    <glyph glyph-name="Eth" unicode="&#xd0;" horiz-adv-x="738" 
d="M350 642q79 0 142.5 -21.5t107 -61.5t67 -96.5t23.5 -126.5q0 -71 -23.5 -132.5t-68.5 -108t-111.5 -73t-152.5 -26.5q-38 0 -77 2.5t-87 2.5q-32 0 -64.5 -1t-59.5 -2v20q47 4 63 21.5t16 55.5v221h-81v26h81v205q0 35 -17 50t-62 19v21q27 -1 64.5 -2t70.5 -1
q44 0 86.5 4t82.5 4zM330 615q-38 0 -55 -18.5t-17 -60.5v-194h105v-26h-105v-203q0 -54 22.5 -74t65.5 -20q52 0 88 26t58.5 67t32 91.5t9.5 100.5q0 54 -12 109.5t-37.5 100.5t-64 73t-90.5 28zM144 617q-9 0 -19.5 0.5t-25.5 2.5q27 -11 35 -30t8 -43v-464
q0 -25 -10 -41.5t-33 -27.5q15 2 30.5 2.5t24.5 0.5h19.5t22.5 -1q-19 10 -26.5 24t-7.5 40v471q0 24 4 40t17 27q-8 -1 -19.5 -1h-19.5zM579 324q0 44 -8.5 87.5t-28.5 82t-52 68.5t-78 48q37 -19 64 -50.5t43.5 -71.5t24.5 -87t8 -96q0 -35 -4.5 -72t-15.5 -72.5
t-30.5 -67.5t-49.5 -57q40 29 65 61t38.5 68t18.5 75.5t5 83.5z" />
    <glyph glyph-name="Ntilde" unicode="&#xd1;" horiz-adv-x="772" 
d="M642 -10l-8 -9q-11 0 -19.5 0.5t-25.5 0.5h-21.5t-21.5 -2q-39 58 -88 128t-99.5 142t-100 140t-89.5 124v-409q0 -23 5.5 -38.5t17 -25t28 -15t39.5 -8.5v-21q-22 1 -48 2t-53 1q-23 0 -48 -1l-50 -2v22q42 5 61 23t19 63v439q0 22 -16.5 41.5t-59.5 22.5v32
q32 -2 55.5 -2.5t52.5 -0.5q26 0 47 1t40 2l354 -519v406q0 42 -27.5 62.5t-78.5 22.5v28q23 -1 54 -2.5t63 -1.5q17 0 45.5 1.5t54.5 2.5v-27q-45 -5 -63.5 -27.5t-18.5 -58.5v-537zM584 0l-428 605h-25l424 -605h29zM573 615q23 -5 35.5 -17t20.5 -33q5 16 14.5 29.5
t26.5 19.5q-8 -1 -21.5 -1.5t-22.5 -0.5q-11 0 -25 0.5t-28 2.5zM119 17q9 1 18.5 1.5t16.5 0.5q11 0 20 -0.5t19 -1.5q-14 8 -25.5 18.5t-13.5 30.5q-2 -20 -11.5 -30.5t-23.5 -18.5zM498 804q14 -14 23.5 -36t9.5 -42q0 -43 -52 -43q-15 0 -34 3.5t-38.5 7.5t-37 7.5
t-27.5 3.5q-12 0 -15 -6.5t-3 -17.5q0 -4 0.5 -8.5t1.5 -9.5l-11 -1q-11 13 -23 30t-12 38q0 23 13.5 38t39.5 15q16 0 35.5 -4t38.5 -8.5t36.5 -8t30.5 -3.5q11 0 14.5 5.5t3.5 13.5q0 11 -3 23zM509 730q-3 -18 -28 -18q-11 0 -30 3.5t-40 7.5t-41 7.5t-33 3.5
q-33 0 -33 -23q0 -7 3 -14t8 -12v9q0 25 25 25q10 0 28 -3.5t38 -8t40 -8t35 -3.5q32 0 32 22q0 8 -4 12z" />
    <glyph glyph-name="Ograve" unicode="&#xd2;" horiz-adv-x="804" 
d="M405 644q79 0 144 -23t111 -64t71 -98.5t25 -127.5t-25 -133.5t-72 -112t-115 -77t-154 -28.5q-72 0 -134 21.5t-108.5 62t-73 99.5t-26.5 134q0 73 28 136.5t76.5 110t113.5 73.5t139 27zM418 0q52 2 87 28t56.5 65.5t30.5 89t9 97.5q0 57 -12.5 116.5t-39.5 108t-70 79
t-104 30.5q-49 0 -82.5 -24t-53.5 -63t-29 -89t-9 -101q0 -56 12 -115.5t38 -108.5t67 -81t100 -32zM649 316q0 52 -12.5 101t-38 90t-64 70t-89.5 40q49 -16 82 -50.5t53.5 -80.5t29.5 -99t9 -106q0 -78 -20.5 -141.5t-61.5 -104.5q30 22 51 53t34.5 67t20 77t6.5 84z
M65 295q0 -60 17.5 -108.5t49 -85t75.5 -61.5t96 -37q-46 16 -84.5 44.5t-66.5 68t-43.5 90t-15.5 109.5q0 78 27.5 139.5t68.5 100.5q-63 -46 -93.5 -114t-30.5 -146zM361 815q11 0 23.5 -17t23 -39t17.5 -43.5t7 -30.5q0 -17 -13 -17q-11 0 -28.5 13t-34.5 30t-29.5 35
t-12.5 28q0 7 4.5 14.5t11 13.5t13.5 9.5t13 3.5h5zM348 767q-10 0 -10 -8q0 -6 9.5 -18.5t21.5 -24.5t23 -21.5t14 -9.5t3 1q0 3 -8 16t-18.5 27.5t-20.5 26t-14 11.5z" />
    <glyph glyph-name="Oacute" unicode="&#xd3;" horiz-adv-x="804" 
d="M405 644q79 0 144 -23t111 -64t71 -98.5t25 -127.5t-25 -133.5t-72 -112t-115 -77t-154 -28.5q-72 0 -134 21.5t-108.5 62t-73 99.5t-26.5 134q0 73 28 136.5t76.5 110t113.5 73.5t139 27zM418 0q52 2 87 28t56.5 65.5t30.5 89t9 97.5q0 57 -12.5 116.5t-39.5 108t-70 79
t-104 30.5q-49 0 -82.5 -24t-53.5 -63t-29 -89t-9 -101q0 -56 12 -115.5t38 -108.5t67 -81t100 -32zM649 316q0 52 -12.5 101t-38 90t-64 70t-89.5 40q49 -16 82 -50.5t53.5 -80.5t29.5 -99t9 -106q0 -78 -20.5 -141.5t-61.5 -104.5q30 22 51 53t34.5 67t20 77t6.5 84z
M65 295q0 -60 17.5 -108.5t49 -85t75.5 -61.5t96 -37q-46 16 -84.5 44.5t-66.5 68t-43.5 90t-15.5 109.5q0 78 27.5 139.5t68.5 100.5q-63 -46 -93.5 -114t-30.5 -146zM433 812q14 0 30 -11.5t16 -24.5q0 -12 -12.5 -29t-29 -33.5t-33 -29t-24.5 -14.5q-2 -1 -7 -1
q-14 0 -14 16t8.5 38t20.5 42t24.5 33.5t20.5 13.5zM422 764q0 7 -7 7q-5 0 -13 -11t-15 -25t-12 -27t-5 -18q0 -2 2 -2q3 0 11 10.5t16.5 23.5t15.5 25.5t7 16.5z" />
    <glyph glyph-name="Ocircumflex" unicode="&#xd4;" horiz-adv-x="804" 
d="M405 644q79 0 144 -23t111 -64t71 -98.5t25 -127.5t-25 -133.5t-72 -112t-115 -77t-154 -28.5q-72 0 -134 21.5t-108.5 62t-73 99.5t-26.5 134q0 73 28 136.5t76.5 110t113.5 73.5t139 27zM418 0q52 2 87 28t56.5 65.5t30.5 89t9 97.5q0 57 -12.5 116.5t-39.5 108t-70 79
t-104 30.5q-49 0 -82.5 -24t-53.5 -63t-29 -89t-9 -101q0 -56 12 -115.5t38 -108.5t67 -81t100 -32zM649 316q0 52 -12.5 101t-38 90t-64 70t-89.5 40q49 -16 82 -50.5t53.5 -80.5t29.5 -99t9 -106q0 -78 -20.5 -141.5t-61.5 -104.5q30 22 51 53t34.5 67t20 77t6.5 84z
M65 295q0 -60 17.5 -108.5t49 -85t75.5 -61.5t96 -37q-46 16 -84.5 44.5t-66.5 68t-43.5 90t-15.5 109.5q0 78 27.5 139.5t68.5 100.5q-63 -46 -93.5 -114t-30.5 -146zM405 812q14 0 28 -16.5t25.5 -38t18.5 -44t7 -34.5q0 -8 -5 -12.5t-12 -4.5q-19 0 -40.5 17.5
t-35.5 36.5q-14 -17 -31.5 -33.5t-31.5 -16.5q-8 0 -8 11q0 9 8.5 31.5t21 45.5t26.5 40.5t25 17.5h4zM391 764q-4 0 -13 -10.5t-18 -24t-15.5 -25.5t-6.5 -15q0 -2 2 -2q3 0 9.5 6.5t14.5 15t15.5 17.5t11.5 14q4 -6 13 -15.5l18 -19t17 -16t11 -6.5q2 0 2 2q0 4 -8 17
t-18 26.5t-19.5 24.5t-12.5 11h-3z" />
    <glyph glyph-name="Otilde" unicode="&#xd5;" horiz-adv-x="804" 
d="M405 644q79 0 144 -23t111 -64t71 -98.5t25 -127.5t-25 -133.5t-72 -112t-115 -77t-154 -28.5q-72 0 -134 21.5t-108.5 62t-73 99.5t-26.5 134q0 73 28 136.5t76.5 110t113.5 73.5t139 27zM418 0q52 2 87 28t56.5 65.5t30.5 89t9 97.5q0 57 -12.5 116.5t-39.5 108t-70 79
t-104 30.5q-49 0 -82.5 -24t-53.5 -63t-29 -89t-9 -101q0 -56 12 -115.5t38 -108.5t67 -81t100 -32zM649 316q0 52 -12.5 101t-38 90t-64 70t-89.5 40q49 -16 82 -50.5t53.5 -80.5t29.5 -99t9 -106q0 -78 -20.5 -141.5t-61.5 -104.5q30 22 51 53t34.5 67t20 77t6.5 84z
M65 295q0 -60 17.5 -108.5t49 -85t75.5 -61.5t96 -37q-46 16 -84.5 44.5t-66.5 68t-43.5 90t-15.5 109.5q0 78 27.5 139.5t68.5 100.5q-63 -46 -93.5 -114t-30.5 -146zM488 804q14 -14 23.5 -36t9.5 -42q0 -43 -52 -43q-15 0 -34 3.5t-38.5 7.5t-37 7.5t-27.5 3.5
q-12 0 -15 -6.5t-3 -17.5q0 -4 0.5 -8.5t1.5 -9.5l-11 -1q-11 13 -23 30t-12 38q0 23 13.5 38t39.5 15q16 0 35.5 -4t38.5 -8.5t36.5 -8t30.5 -3.5q11 0 14.5 5.5t3.5 13.5q0 11 -3 23zM499 730q-3 -18 -28 -18q-11 0 -30 3.5t-40 7.5t-41 7.5t-33 3.5q-33 0 -33 -23
q0 -7 3 -14t8 -12v9q0 25 25 25q10 0 28 -3.5t38 -8t40 -8t35 -3.5q32 0 32 22q0 8 -4 12z" />
    <glyph glyph-name="Odieresis" unicode="&#xd6;" horiz-adv-x="804" 
d="M405 644q79 0 144 -23t111 -64t71 -98.5t25 -127.5t-25 -133.5t-72 -112t-115 -77t-154 -28.5q-72 0 -134 21.5t-108.5 62t-73 99.5t-26.5 134q0 73 28 136.5t76.5 110t113.5 73.5t139 27zM418 0q52 2 87 28t56.5 65.5t30.5 89t9 97.5q0 57 -12.5 116.5t-39.5 108t-70 79
t-104 30.5q-49 0 -82.5 -24t-53.5 -63t-29 -89t-9 -101q0 -56 12 -115.5t38 -108.5t67 -81t100 -32zM649 316q0 52 -12.5 101t-38 90t-64 70t-89.5 40q49 -16 82 -50.5t53.5 -80.5t29.5 -99t9 -106q0 -78 -20.5 -141.5t-61.5 -104.5q30 22 51 53t34.5 67t20 77t6.5 84z
M65 295q0 -60 17.5 -108.5t49 -85t75.5 -61.5t96 -37q-46 16 -84.5 44.5t-66.5 68t-43.5 90t-15.5 109.5q0 78 27.5 139.5t68.5 100.5q-63 -46 -93.5 -114t-30.5 -146zM316 771q24 0 37.5 -12.5t13.5 -33.5q0 -22 -14 -36t-38 -14t-37 13t-13 34q0 23 14.5 36t36.5 13z
M479 771q23 0 36 -12.5t13 -33.5q0 -22 -13.5 -36t-38.5 -14q-23 0 -37 13t-14 34q0 23 16 36t38 13zM278 724q0 -17 10.5 -26.5t26.5 -11.5q-10 8 -15 19t-5 22q0 18 8 32q-25 -9 -25 -35zM440 723q0 -18 10 -27t26 -11q-20 17 -20 42q0 17 8 31q-24 -7 -24 -35z" />
    <glyph glyph-name="multiply" unicode="&#xd7;" horiz-adv-x="457" 
d="M97 367l130 -124l128 125l34 -35l-129 -123l132 -122l-35 -38l-131 129l-131 -132l-32 34l130 129l-130 121z" />
    <glyph glyph-name="Oslash" unicode="&#xd8;" horiz-adv-x="804" 
d="M405 644q52 0 98 -10t84 -29l59 99q7 0 12.5 -3.5t8.5 -7.5l-59 -99q70 -41 109 -108t39 -155q0 -70 -25 -133.5t-72 -112t-115 -77t-154 -28.5q-35 0 -68.5 5.5t-63.5 15.5l-61 -103q-6 1 -11.5 4t-9.5 7l59 100q-42 17 -76.5 44.5t-59 63.5t-38 81.5t-13.5 98.5
q0 73 28 136.5t76.5 110t113.5 73.5t139 27zM201 337q0 -33 4 -68.5t13 -70t23 -66t33 -57.5l264 447q-27 42 -67 67t-96 25q-49 0 -82.5 -24t-53.5 -63t-29 -89t-9 -101zM418 0q52 2 87 28t56.5 65.5t30.5 89t9 97.5q0 56 -11.5 113t-37.5 105l-262 -442q25 -26 56.5 -41
t71.5 -15zM649 316q0 52 -12.5 101t-38 90t-64 70t-89.5 40q49 -16 82 -50.5t53.5 -80.5t29.5 -99t9 -106q0 -78 -20.5 -141.5t-61.5 -104.5q30 22 51 53t34.5 67t20 77t6.5 84zM65 295q0 -60 17.5 -108.5t49 -85t75.5 -61.5t96 -37q-46 16 -84.5 44.5t-66.5 68t-43.5 90
t-15.5 109.5q0 78 27.5 139.5t68.5 100.5q-63 -46 -93.5 -114t-30.5 -146z" />
    <glyph glyph-name="Ugrave" unicode="&#xd9;" horiz-adv-x="727" 
d="M107 549q0 34 -13 49.5t-48 19.5v22h274v-22q-31 -3 -47 -14t-16 -45t-0.5 -76.5t-1 -88.5t-1 -91.5t-0.5 -84.5q0 -44 10 -81t30.5 -64t52 -42.5t74.5 -15.5q40 0 72 15t54 41t33.5 62.5t11.5 80.5v322q0 38 -23.5 59t-84.5 23v22q13 0 30 -0.5l34 -1t33 -0.5h27
q22 0 47.5 0.5t42.5 1.5v-22q-39 -5 -57.5 -23.5t-18.5 -54.5l-1 -324q0 -114 -63 -174.5t-184 -60.5q-54 0 -102 12.5t-85 41t-58.5 74t-21.5 111.5v329zM134 617q-8 0 -19 0.5t-16 1.5q17 -11 21.5 -28.5t4.5 -43.5v-305q0 -47 8 -82t23 -60.5t37 -43t50 -29.5
q-53 29 -73.5 83.5t-20.5 122.5v328q0 21 5 33.5t16 23.5q-11 -1 -18 -1h-18zM608 620q-11 0 -28.5 1t-30.5 2q32 -8 43 -19t16 -36q5 24 16.5 37t33.5 18q-11 -1 -22.5 -2t-27.5 -1zM362 815q11 0 23.5 -17t23 -39t17.5 -43.5t7 -30.5q0 -17 -13 -17q-11 0 -28.5 13
t-34.5 30t-29.5 35t-12.5 28q0 7 4.5 14.5t11 13.5t13.5 9.5t13 3.5h5zM349 767q-10 0 -10 -8q0 -6 9.5 -18.5t21.5 -24.5t23 -21.5t14 -9.5t3 1q0 3 -8 16t-18.5 27.5t-20.5 26t-14 11.5z" />
    <glyph glyph-name="Uacute" unicode="&#xda;" horiz-adv-x="727" 
d="M107 549q0 34 -13 49.5t-48 19.5v22h274v-22q-31 -3 -47 -14t-16 -45t-0.5 -76.5t-1 -88.5t-1 -91.5t-0.5 -84.5q0 -44 10 -81t30.5 -64t52 -42.5t74.5 -15.5q40 0 72 15t54 41t33.5 62.5t11.5 80.5v322q0 38 -23.5 59t-84.5 23v22q13 0 30 -0.5l34 -1t33 -0.5h27
q22 0 47.5 0.5t42.5 1.5v-22q-39 -5 -57.5 -23.5t-18.5 -54.5l-1 -324q0 -114 -63 -174.5t-184 -60.5q-54 0 -102 12.5t-85 41t-58.5 74t-21.5 111.5v329zM134 617q-8 0 -19 0.5t-16 1.5q17 -11 21.5 -28.5t4.5 -43.5v-305q0 -47 8 -82t23 -60.5t37 -43t50 -29.5
q-53 29 -73.5 83.5t-20.5 122.5v328q0 21 5 33.5t16 23.5q-11 -1 -18 -1h-18zM608 620q-11 0 -28.5 1t-30.5 2q32 -8 43 -19t16 -36q5 24 16.5 37t33.5 18q-11 -1 -22.5 -2t-27.5 -1zM449 812q14 0 30 -11.5t16 -24.5q0 -12 -12.5 -29t-29 -33.5t-33 -29t-24.5 -14.5
q-2 -1 -7 -1q-14 0 -14 16t8.5 38t20.5 42t24.5 33.5t20.5 13.5zM438 764q0 7 -7 7q-5 0 -13 -11t-15 -25t-12 -27t-5 -18q0 -2 2 -2q3 0 11 10.5t16.5 23.5t15.5 25.5t7 16.5z" />
    <glyph glyph-name="Ucircumflex" unicode="&#xdb;" horiz-adv-x="727" 
d="M107 549q0 34 -13 49.5t-48 19.5v22h274v-22q-31 -3 -47 -14t-16 -45t-0.5 -76.5t-1 -88.5t-1 -91.5t-0.5 -84.5q0 -44 10 -81t30.5 -64t52 -42.5t74.5 -15.5q40 0 72 15t54 41t33.5 62.5t11.5 80.5v322q0 38 -23.5 59t-84.5 23v22q13 0 30 -0.5l34 -1t33 -0.5h27
q22 0 47.5 0.5t42.5 1.5v-22q-39 -5 -57.5 -23.5t-18.5 -54.5l-1 -324q0 -114 -63 -174.5t-184 -60.5q-54 0 -102 12.5t-85 41t-58.5 74t-21.5 111.5v329zM134 617q-8 0 -19 0.5t-16 1.5q17 -11 21.5 -28.5t4.5 -43.5v-305q0 -47 8 -82t23 -60.5t37 -43t50 -29.5
q-53 29 -73.5 83.5t-20.5 122.5v328q0 21 5 33.5t16 23.5q-11 -1 -18 -1h-18zM608 620q-11 0 -28.5 1t-30.5 2q32 -8 43 -19t16 -36q5 24 16.5 37t33.5 18q-11 -1 -22.5 -2t-27.5 -1zM407 812q14 0 28 -16.5t25.5 -38t18.5 -44t7 -34.5q0 -8 -5 -12.5t-12 -4.5
q-19 0 -40.5 17.5t-35.5 36.5q-14 -17 -31.5 -33.5t-31.5 -16.5q-8 0 -8 11q0 9 8.5 31.5t21 45.5t26.5 40.5t25 17.5h4zM393 764q-4 0 -13 -10.5t-18 -24t-15.5 -25.5t-6.5 -15q0 -2 2 -2q3 0 9.5 6.5t14.5 15t15.5 17.5t11.5 14q4 -6 13 -15.5l18 -19t17 -16t11 -6.5
q2 0 2 2q0 4 -8 17t-18 26.5t-19.5 24.5t-12.5 11h-3z" />
    <glyph glyph-name="Udieresis" unicode="&#xdc;" horiz-adv-x="727" 
d="M107 549q0 34 -13 49.5t-48 19.5v22h274v-22q-31 -3 -47 -14t-16 -45t-0.5 -76.5t-1 -88.5t-1 -91.5t-0.5 -84.5q0 -44 10 -81t30.5 -64t52 -42.5t74.5 -15.5q40 0 72 15t54 41t33.5 62.5t11.5 80.5v322q0 38 -23.5 59t-84.5 23v22q13 0 30 -0.5l34 -1t33 -0.5h27
q22 0 47.5 0.5t42.5 1.5v-22q-39 -5 -57.5 -23.5t-18.5 -54.5l-1 -324q0 -114 -63 -174.5t-184 -60.5q-54 0 -102 12.5t-85 41t-58.5 74t-21.5 111.5v329zM134 617q-8 0 -19 0.5t-16 1.5q17 -11 21.5 -28.5t4.5 -43.5v-305q0 -47 8 -82t23 -60.5t37 -43t50 -29.5
q-53 29 -73.5 83.5t-20.5 122.5v328q0 21 5 33.5t16 23.5q-11 -1 -18 -1h-18zM608 620q-11 0 -28.5 1t-30.5 2q32 -8 43 -19t16 -36q5 24 16.5 37t33.5 18q-11 -1 -22.5 -2t-27.5 -1zM324 771q24 0 37.5 -12.5t13.5 -33.5q0 -22 -14 -36t-38 -14t-37 13t-13 34q0 23 14.5 36
t36.5 13zM487 771q23 0 36 -12.5t13 -33.5q0 -22 -13.5 -36t-38.5 -14q-23 0 -37 13t-14 34q0 23 16 36t38 13zM286 724q0 -17 10.5 -26.5t26.5 -11.5q-10 8 -15 19t-5 22q0 18 8 32q-25 -9 -25 -35zM448 723q0 -18 10 -27t26 -11q-20 17 -20 42q0 17 8 31q-24 -7 -24 -35z
" />
    <glyph glyph-name="Yacute" unicode="&#xdd;" horiz-adv-x="600" 
d="M375 102q0 -23 2.5 -37.5t10.5 -23.5t22.5 -14t38.5 -8v-21q-38 1 -84 1.5t-83 0.5q-36 0 -66 -1t-59 -2v22q23 2 37.5 6.5t22.5 13.5t11 24t3 37v145q0 23 -6 41.5t-17 39.5l-130 245q-14 25 -28.5 36t-41.5 15v21q35 -1 69 -1.5t69 -0.5t68.5 0.5t72.5 1.5v-22
q-27 -2 -40 -6.5t-13 -15.5q0 -12 5.5 -24.5t13.5 -29.5l98 -215q17 31 37.5 70.5t38.5 77t30 68t12 44.5q0 16 -15 22.5t-48 8.5v21q25 -1 49.5 -2t49.5 -1t45.5 0.5t37.5 1.5v-19q-34 -4 -53 -17.5t-30 -36.5l-110 -215q-9 -20 -14.5 -39.5t-5.5 -48.5v-163zM294 17
q-15 9 -20 23t-5 34v185q0 13 -1 23t-4 19.5t-7 19t-10 22.5q-16 30 -37.5 69.5t-41 77t-33 68t-13.5 42.5q0 13 9 21q-11 -1 -18 -1h-14q-20 0 -39 3q13 -8 20 -17.5t14 -22.5l128 -246q14 -24 20 -42.5t6 -43.5v-169q0 -47 -33 -66q14 2 23 2.5t20 0.5q10 0 16.5 -0.5z
M489 592q0 -9 -2.5 -17.5t-4.5 -16.5l18 31q6 11 15.5 20t23.5 14h-38h-19.5t-17.5 1q10 -2 17.5 -10t7.5 -22zM391 812q14 0 30 -11.5t16 -24.5q0 -12 -12.5 -29t-29 -33.5t-33 -29t-24.5 -14.5q-2 -1 -7 -1q-14 0 -14 16t8.5 38t20.5 42t24.5 33.5t20.5 13.5zM380 764
q0 7 -7 7q-5 0 -13 -11t-15 -25t-12 -27t-5 -18q0 -2 2 -2q3 0 11 10.5t16.5 23.5t15.5 25.5t7 16.5z" />
    <glyph glyph-name="Thorn" unicode="&#xde;" horiz-adv-x="549" 
d="M144 611q-9 0 -19.5 0.5t-25.5 2.5q27 -11 35 -29.5t8 -43.5v-459q0 -25 -10 -41t-33 -27q15 2 30.5 2.5t24.5 0.5h19t22 -1q-18 9 -25.5 23t-7.5 40v466q0 26 4 41.5t18 25.5q-7 -1 -19.5 -1h-20.5zM310 197q49 0 75 32.5t26 97.5q0 69 -32.5 111.5t-97.5 42.5h-24v-279
q14 -2 26.5 -3.5t26.5 -1.5zM335 612q-44 -6 -61 -23t-17 -58v-22q16 2 39 4.5t48 2.5q43 0 81.5 -10.5t67.5 -31.5t46 -53.5t17 -76.5q0 -49 -19 -83t-50.5 -55.5t-72 -31.5t-84.5 -10q-36 0 -73 8v-67q0 -24 3.5 -40t12.5 -26.5t24 -15.5t38 -7v-21q-23 0 -41.5 1t-37.5 2
t-39.5 2t-46.5 1q-32 0 -64.5 -1t-58.5 -2v20q46 4 62.5 21t16.5 55v447q0 35 -17.5 50t-61.5 19v20q26 -1 63.5 -2t69.5 -1q45 0 80.5 3t74.5 3v-21zM345 482q42 -17 63 -56.5t21 -96.5q0 -46 -14 -82.5t-54 -55.5q98 39 98 145q0 58 -29.5 94.5t-84.5 51.5z" />
    <glyph glyph-name="germandbls" unicode="&#xdf;" horiz-adv-x="549" 
d="M127 418q0 51 11 92t42 70q-35 -26 -54.5 -70.5t-19.5 -105.5v-33l-30 -12l30 -8v-295q0 -14 -5 -24t-22 -16q13 1 22 1.5t19 0.5h7v400zM351 473q0 37 -22.5 61.5t-61.5 24.5q-21 0 -35 -6.5t-22.5 -17.5t-12 -25t-3.5 -30q0 -32 8 -69.5t8 -77.5v-333h-174l-2 19l27 5
q29 6 29 29v285l-54 16v14l54 23v15q0 57 18 101.5t48.5 74.5t72.5 46t90 16q39 0 69 -11.5t50 -30t30.5 -43t10.5 -50.5q0 -32 -15.5 -55t-34 -41t-34 -32t-15.5 -28q0 -17 10.5 -30.5t26.5 -26.5t34.5 -27.5t34.5 -34t26.5 -45t10.5 -61.5q0 -35 -13.5 -61t-36 -43
t-53.5 -25t-65 -8q-23 0 -43 4t-35.5 12.5t-24.5 22t-9 33.5q0 32 22 45.5t52 13.5q2 -33 17.5 -52.5t37.5 -19.5q21 0 29.5 11.5t8.5 29.5q0 20 -11.5 36.5t-28.5 30.5t-36.5 27.5t-36.5 29.5t-28.5 35.5t-11.5 45.5q0 28 14.5 50.5t32.5 42.5t32.5 40.5t14.5 43.5z
M303 108q-43 -6 -43 -45q0 -23 23.5 -39t54.5 -16q-26 9 -41 23t-15 37q0 14 6 24.5t15 15.5zM429 93q0 -47 -37 -59q56 17 56 74q0 22 -11.5 39.5t-29 32.5t-38 28.5t-38 28.5t-29 32.5t-11.5 39.5t16 44t35.5 44t36 44.5t16.5 46.5q0 43 -30.5 65t-87.5 22q19 -2 36 -8
t30.5 -18t21.5 -29.5t8 -41.5q0 -26 -15.5 -47.5t-33.5 -42.5t-33.5 -43t-15.5 -50q0 -22 11.5 -39t28.5 -32t37 -28.5t37 -28.5t28.5 -33t11.5 -41z" />
    <glyph glyph-name="agrave" unicode="&#xe0;" horiz-adv-x="465" 
d="M293 212q-29 -8 -52.5 -20.5t-40 -28t-25.5 -32t-9 -31.5q0 -17 9.5 -25t22.5 -8q18 0 35 10t29.5 26t20.5 37t9 43zM361 -10q-68 0 -68 92v29q-21 -53 -56 -87t-91 -34q-42 0 -68.5 22t-26.5 67q0 56 59.5 98t183.5 62v38q0 47 -14 65.5t-46 18.5q-45 0 -75.5 -29.5
t-31.5 -87.5q-5 -1 -16 -1q-15 0 -29.5 4t-26 12t-18.5 20.5t-7 29.5q0 21 13 41t38.5 35.5t63.5 24.5t89 9q94 0 132.5 -34.5t38.5 -98.5q0 -18 -2 -43t-4 -51t-4 -49.5t-2 -37.5q0 -39 18 -39q19 0 38 19q1 -5 1 -8v-8q0 -15 -6.5 -29t-18.5 -25.5t-28.5 -18t-35.5 -6.5z
M149 390q-41 -8 -69 -27t-28 -51q0 -28 17 -38t38 -12q-13 8 -22 20t-9 33q0 24 19.5 43.5t53.5 31.5zM148 8q37 0 57.5 14t31.5 25q-16 -12 -34.5 -19.5t-43.5 -7.5q-33 0 -47.5 20.5t-14.5 43.5q0 42 33.5 72t79.5 48q-23 -7 -47.5 -17.5t-44.5 -25.5t-33 -35t-13 -47
q0 -19 6.5 -32.5t17.5 -22t24.5 -12.5t27.5 -4zM262 377q32 -11 41 -32.5t9 -54.5q0 -57 -1 -105t-1 -96q0 -36 11.5 -59t43.5 -23q16 0 26.5 6t15.5 12q-14 -6 -34 -6q-44 0 -44 58q0 15 0.5 43.5t0.5 61t0.5 64.5t0.5 54q0 34 -16.5 53t-52.5 24zM207 629q13 0 27.5 -20
t27 -46t20.5 -51t8 -36q0 -20 -15 -20q-12 0 -33 15t-41 35.5t-34.5 41.5t-14.5 33q0 8 5 16.5t12.5 15.5t16 11.5t15.5 4.5h6zM192 573q-5 0 -8.5 -3t-3.5 -7q0 -7 11.5 -21.5t25.5 -29t27 -25.5t16 -11t3 2q0 3 -9.5 18.5t-22 32.5t-24 30.5t-15.5 13.5z" />
    <glyph glyph-name="aacute" unicode="&#xe1;" horiz-adv-x="465" 
d="M293 212q-29 -8 -52.5 -20.5t-40 -28t-25.5 -32t-9 -31.5q0 -17 9.5 -25t22.5 -8q18 0 35 10t29.5 26t20.5 37t9 43zM361 -10q-68 0 -68 92v29q-21 -53 -56 -87t-91 -34q-42 0 -68.5 22t-26.5 67q0 56 59.5 98t183.5 62v38q0 47 -14 65.5t-46 18.5q-45 0 -75.5 -29.5
t-31.5 -87.5q-5 -1 -16 -1q-15 0 -29.5 4t-26 12t-18.5 20.5t-7 29.5q0 21 13 41t38.5 35.5t63.5 24.5t89 9q94 0 132.5 -34.5t38.5 -98.5q0 -18 -2 -43t-4 -51t-4 -49.5t-2 -37.5q0 -39 18 -39q19 0 38 19q1 -5 1 -8v-8q0 -15 -6.5 -29t-18.5 -25.5t-28.5 -18t-35.5 -6.5z
M149 390q-41 -8 -69 -27t-28 -51q0 -28 17 -38t38 -12q-13 8 -22 20t-9 33q0 24 19.5 43.5t53.5 31.5zM148 8q37 0 57.5 14t31.5 25q-16 -12 -34.5 -19.5t-43.5 -7.5q-33 0 -47.5 20.5t-14.5 43.5q0 42 33.5 72t79.5 48q-23 -7 -47.5 -17.5t-44.5 -25.5t-33 -35t-13 -47
q0 -19 6.5 -32.5t17.5 -22t24.5 -12.5t27.5 -4zM262 377q32 -11 41 -32.5t9 -54.5q0 -57 -1 -105t-1 -96q0 -36 11.5 -59t43.5 -23q16 0 26.5 6t15.5 12q-14 -6 -34 -6q-44 0 -44 58q0 15 0.5 43.5t0.5 61t0.5 64.5t0.5 54q0 34 -16.5 53t-52.5 24zM279 626q8 0 17.5 -4
t17.5 -10t13.5 -13.5t5.5 -14.5q0 -14 -14.5 -34t-34 -39.5t-39 -34t-28.5 -17.5q-3 -1 -9 -1q-16 0 -16 18q0 19 10 45t24 49.5t29 39.5t24 16zM266 570q0 4 -3 6t-5 2q-6 0 -15.5 -13t-17.5 -29.5t-14 -32t-6 -21.5q0 -2 2 -2q3 0 12.5 12t20 27.5t18.5 30.5t8 20z" />
    <glyph glyph-name="acircumflex" unicode="&#xe2;" horiz-adv-x="465" 
d="M293 212q-29 -8 -52.5 -20.5t-40 -28t-25.5 -32t-9 -31.5q0 -17 9.5 -25t22.5 -8q18 0 35 10t29.5 26t20.5 37t9 43zM361 -10q-68 0 -68 92v29q-21 -53 -56 -87t-91 -34q-42 0 -68.5 22t-26.5 67q0 56 59.5 98t183.5 62v38q0 47 -14 65.5t-46 18.5q-45 0 -75.5 -29.5
t-31.5 -87.5q-5 -1 -16 -1q-15 0 -29.5 4t-26 12t-18.5 20.5t-7 29.5q0 21 13 41t38.5 35.5t63.5 24.5t89 9q94 0 132.5 -34.5t38.5 -98.5q0 -18 -2 -43t-4 -51t-4 -49.5t-2 -37.5q0 -39 18 -39q19 0 38 19q1 -5 1 -8v-8q0 -15 -6.5 -29t-18.5 -25.5t-28.5 -18t-35.5 -6.5z
M149 390q-41 -8 -69 -27t-28 -51q0 -28 17 -38t38 -12q-13 8 -22 20t-9 33q0 24 19.5 43.5t53.5 31.5zM148 8q37 0 57.5 14t31.5 25q-16 -12 -34.5 -19.5t-43.5 -7.5q-33 0 -47.5 20.5t-14.5 43.5q0 42 33.5 72t79.5 48q-23 -7 -47.5 -17.5t-44.5 -25.5t-33 -35t-13 -47
q0 -19 6.5 -32.5t17.5 -22t24.5 -12.5t27.5 -4zM262 377q32 -11 41 -32.5t9 -54.5q0 -57 -1 -105t-1 -96q0 -36 11.5 -59t43.5 -23q16 0 26.5 6t15.5 12q-14 -6 -34 -6q-44 0 -44 58q0 15 0.5 43.5t0.5 61t0.5 64.5t0.5 54q0 34 -16.5 53t-52.5 24zM245 626q16 0 32.5 -19
t30 -45t22 -52.5t8.5 -40.5q0 -10 -6 -15t-14 -5q-11 0 -23.5 6t-24.5 15t-22.5 20.5t-18.5 22.5q-9 -10 -18.5 -20.5t-19 -19t-19 -14t-18.5 -5.5t-9 13q0 7 4.5 21.5t12.5 32.5t18 36.5t20.5 33.5t20.5 25t19 10h5zM228 569q-5 0 -15 -12.5t-20.5 -28t-18.5 -29.5t-8 -18
q0 -2 3 -2t11 7.5t17.5 17.5t18 20.5t13.5 16.5q5 -7 15 -18.5t20.5 -22t20 -18.5t13.5 -8q2 0 2 2q0 5 -9 20t-21 31.5t-23 29t-15 12.5h-4z" />
    <glyph glyph-name="atilde" unicode="&#xe3;" horiz-adv-x="465" 
d="M293 212q-29 -8 -52.5 -20.5t-40 -28t-25.5 -32t-9 -31.5q0 -17 9.5 -25t22.5 -8q18 0 35 10t29.5 26t20.5 37t9 43zM361 -10q-68 0 -68 92v29q-21 -53 -56 -87t-91 -34q-42 0 -68.5 22t-26.5 67q0 56 59.5 98t183.5 62v38q0 47 -14 65.5t-46 18.5q-45 0 -75.5 -29.5
t-31.5 -87.5q-5 -1 -16 -1q-15 0 -29.5 4t-26 12t-18.5 20.5t-7 29.5q0 21 13 41t38.5 35.5t63.5 24.5t89 9q94 0 132.5 -34.5t38.5 -98.5q0 -18 -2 -43t-4 -51t-4 -49.5t-2 -37.5q0 -39 18 -39q19 0 38 19q1 -5 1 -8v-8q0 -15 -6.5 -29t-18.5 -25.5t-28.5 -18t-35.5 -6.5z
M149 390q-41 -8 -69 -27t-28 -51q0 -28 17 -38t38 -12q-13 8 -22 20t-9 33q0 24 19.5 43.5t53.5 31.5zM148 8q37 0 57.5 14t31.5 25q-16 -12 -34.5 -19.5t-43.5 -7.5q-33 0 -47.5 20.5t-14.5 43.5q0 42 33.5 72t79.5 48q-23 -7 -47.5 -17.5t-44.5 -25.5t-33 -35t-13 -47
q0 -19 6.5 -32.5t17.5 -22t24.5 -12.5t27.5 -4zM262 377q32 -11 41 -32.5t9 -54.5q0 -57 -1 -105t-1 -96q0 -36 11.5 -59t43.5 -23q16 0 26.5 6t15.5 12q-14 -6 -34 -6q-44 0 -44 58q0 15 0.5 43.5t0.5 61t0.5 64.5t0.5 54q0 34 -16.5 53t-52.5 24zM336 616q17 -17 28 -42
t11 -49q0 -51 -61 -51q-17 0 -40 4t-46 9t-43.5 9t-32.5 4q-14 0 -17.5 -8t-3.5 -20q0 -5 0.5 -10t1.5 -11l-13 -2q-13 15 -27 35.5t-14 45.5q0 27 16.5 44.5t46.5 17.5q19 0 41.5 -4.5t45 -9.5t43.5 -9.5t36 -4.5q12 0 16.5 6t4.5 16q0 14 -4 27zM349 530q-4 -22 -33 -22
q-13 0 -35.5 4t-47 9t-48 9t-39.5 4q-38 0 -38 -27q0 -8 4 -16t9 -15q-1 5 -1 11q0 29 30 29q12 0 33 -4t44.5 -9t47 -9t41.5 -4q38 0 38 25q0 8 -5 15z" />
    <glyph glyph-name="adieresis" unicode="&#xe4;" horiz-adv-x="465" 
d="M293 212q-29 -8 -52.5 -20.5t-40 -28t-25.5 -32t-9 -31.5q0 -17 9.5 -25t22.5 -8q18 0 35 10t29.5 26t20.5 37t9 43zM361 -10q-68 0 -68 92v29q-21 -53 -56 -87t-91 -34q-42 0 -68.5 22t-26.5 67q0 56 59.5 98t183.5 62v38q0 47 -14 65.5t-46 18.5q-45 0 -75.5 -29.5
t-31.5 -87.5q-5 -1 -16 -1q-15 0 -29.5 4t-26 12t-18.5 20.5t-7 29.5q0 21 13 41t38.5 35.5t63.5 24.5t89 9q94 0 132.5 -34.5t38.5 -98.5q0 -18 -2 -43t-4 -51t-4 -49.5t-2 -37.5q0 -39 18 -39q19 0 38 19q1 -5 1 -8v-8q0 -15 -6.5 -29t-18.5 -25.5t-28.5 -18t-35.5 -6.5z
M149 390q-41 -8 -69 -27t-28 -51q0 -28 17 -38t38 -12q-13 8 -22 20t-9 33q0 24 19.5 43.5t53.5 31.5zM148 8q37 0 57.5 14t31.5 25q-16 -12 -34.5 -19.5t-43.5 -7.5q-33 0 -47.5 20.5t-14.5 43.5q0 42 33.5 72t79.5 48q-23 -7 -47.5 -17.5t-44.5 -25.5t-33 -35t-13 -47
q0 -19 6.5 -32.5t17.5 -22t24.5 -12.5t27.5 -4zM262 377q32 -11 41 -32.5t9 -54.5q0 -57 -1 -105t-1 -96q0 -36 11.5 -59t43.5 -23q16 0 26.5 6t15.5 12q-14 -6 -34 -6q-44 0 -44 58q0 15 0.5 43.5t0.5 61t0.5 64.5t0.5 54q0 34 -16.5 53t-52.5 24zM135 578q29 0 44.5 -14.5
t15.5 -40.5t-16 -42t-45 -16q-28 0 -43.5 15t-15.5 40q0 27 17 42.5t43 15.5zM327 578q27 0 42.5 -14.5t15.5 -40.5t-16.5 -42t-45.5 -16q-27 0 -43 15t-16 40q0 27 18.5 42.5t44.5 15.5zM91 522q0 -20 12.5 -31t30.5 -13q-11 9 -17 22t-6 26q0 22 9 37q-29 -9 -29 -41z
M281 521q0 -21 12 -31.5t30 -12.5q-11 9 -17 22t-6 27q0 21 9 36q-28 -9 -28 -41z" />
    <glyph glyph-name="aring" unicode="&#xe5;" horiz-adv-x="465" 
d="M293 212q-29 -8 -52.5 -20.5t-40 -28t-25.5 -32t-9 -31.5q0 -17 9.5 -25t22.5 -8q18 0 35 10t29.5 26t20.5 37t9 43zM361 -10q-68 0 -68 92v29q-21 -53 -56 -87t-91 -34q-42 0 -68.5 22t-26.5 67q0 56 59.5 98t183.5 62v38q0 47 -14 65.5t-46 18.5q-45 0 -75.5 -29.5
t-31.5 -87.5q-5 -1 -16 -1q-15 0 -29.5 4t-26 12t-18.5 20.5t-7 29.5q0 21 13 41t38.5 35.5t63.5 24.5t89 9q94 0 132.5 -34.5t38.5 -98.5q0 -18 -2 -43t-4 -51t-4 -49.5t-2 -37.5q0 -39 18 -39q19 0 38 19q1 -5 1 -8v-8q0 -15 -6.5 -29t-18.5 -25.5t-28.5 -18t-35.5 -6.5z
M149 390q-41 -8 -69 -27t-28 -51q0 -28 17 -38t38 -12q-13 8 -22 20t-9 33q0 24 19.5 43.5t53.5 31.5zM148 8q37 0 57.5 14t31.5 25q-16 -12 -34.5 -19.5t-43.5 -7.5q-33 0 -47.5 20.5t-14.5 43.5q0 42 33.5 72t79.5 48q-23 -7 -47.5 -17.5t-44.5 -25.5t-33 -35t-13 -47
q0 -19 6.5 -32.5t17.5 -22t24.5 -12.5t27.5 -4zM262 377q32 -11 41 -32.5t9 -54.5q0 -57 -1 -105t-1 -96q0 -36 11.5 -59t43.5 -23q16 0 26.5 6t15.5 12q-14 -6 -34 -6q-44 0 -44 58q0 15 0.5 43.5t0.5 61t0.5 64.5t0.5 54q0 34 -16.5 53t-52.5 24zM195 533q0 -19 10.5 -31
t29.5 -12q18 0 28.5 8t10.5 25q0 20 -11 33t-30 13q-17 0 -27.5 -9.5t-10.5 -26.5zM174 528q0 26 19 46t47 20q26 0 40.5 -17.5t14.5 -46.5q0 -28 -19 -46.5t-45 -18.5q-27 0 -42 18t-15 45z" />
    <glyph glyph-name="ae" unicode="&#xe6;" horiz-adv-x="707" 
d="M671 74q0 -32 -38 -58t-116 -26q-74 0 -129.5 30t-80.5 95h-7q-23 -61 -60.5 -93t-93.5 -32q-42 0 -68.5 22t-26.5 67q0 56 59.5 98t183.5 62v38q0 47 -14 65.5t-46 18.5q-45 0 -75.5 -29.5t-31.5 -87.5q-5 -1 -16 -1q-15 0 -29.5 4t-26 12t-18.5 20.5t-7 29.5
q0 21 13 41t38.5 35.5t63.5 24.5t89 9q47 0 80 -15t52 -41q32 26 72.5 40.5t89.5 14.5q86 0 125.5 -41t39.5 -110q0 -23 -9 -35t-38 -13l-245 -9q6 -63 41 -96.5t83 -33.5q42 0 65.5 12.5t40.5 34.5q17 -5 28.5 -18.5t11.5 -34.5zM580 261q0 38 -19 62.5t-61 24.5
q-43 0 -69 -27.5t-29 -74.5h178v15zM310 199q0 -44 15 -79.5t42 -60.5t65 -39t85 -14q30 0 53.5 5t39 11.5t23.5 14t8 13.5q0 7 -6 11q-17 -18 -45 -27.5t-73 -9.5q-41 0 -75.5 13t-59.5 37t-39 57.5t-14 74.5q0 60 27 103.5t61 64.5q-55 -28 -81 -73t-26 -102zM293 212
q-29 -8 -52.5 -20.5t-40 -28t-25.5 -32t-9 -31.5q0 -17 9.5 -25t22.5 -8q20 0 37 10t29.5 26t19.5 37t8 43zM148 8q37 0 58.5 14t32.5 25q-16 -12 -35.5 -19.5t-44.5 -7.5q-33 0 -47.5 20.5t-14.5 43.5q0 42 33.5 72t79.5 48q-23 -7 -47.5 -17.5t-44.5 -25.5t-33 -35
t-13 -47q0 -19 6.5 -32.5t17.5 -22t24.5 -12.5t27.5 -4zM149 390q-41 -8 -69 -27t-28 -51q0 -28 17 -38t38 -12q-13 8 -22 20t-9 33q0 24 19.5 43.5t53.5 31.5zM511 366q25 -1 42 -9.5t27.5 -23t15 -33t4.5 -39.5v-15h21v17q0 48 -22.5 76t-66.5 28h-10t-11 -1z" />
    <glyph glyph-name="ccedilla" unicode="&#xe7;" horiz-adv-x="440" 
d="M232 355q50 0 71.5 -22t21.5 -53v-8.5t-1 -8.5q14 0 19.5 8t5.5 21q0 32 -25 48.5t-59 16.5q-11 0 -18 -0.5t-15 -1.5zM74 206q0 54 17 92.5t42 60.5q-36 -28 -57.5 -67.5t-21.5 -94.5q0 -88 54 -139t151 -51q30 0 52 5.5t36.5 13.5t21.5 16.5t7 14.5q0 10 -5 14
q-14 -20 -40.5 -32t-68.5 -12q-86 0 -137 47.5t-51 131.5zM191 -33q-21 -10 -21 -30q0 -18 20.5 -28t45 -18t45 -17.5t20.5 -27.5q0 -15 -11 -26q11 6 18.5 15t7.5 22q0 19 -21 29t-46.5 18.5t-46.5 17.5t-21 27q0 11 10 18zM159 -153q-13 -8 -13 -25q0 -19 19 -31t54 -12
q-61 14 -61 57v5.5t1 5.5zM267 418q80 0 115.5 -28t35.5 -67t-23.5 -58.5t-61.5 -19.5q-10 0 -17.5 0.5t-12.5 1.5q2 5 2 8.5v6.5q0 30 -14.5 52t-52.5 22q-39 0 -69 -28.5t-30 -85.5q0 -69 34 -104t87 -35q41 0 64.5 16t38.5 38q17 -5 28.5 -19.5t11.5 -37.5
q0 -15 -8 -30.5t-26 -29t-47.5 -22t-72.5 -8.5h-9q-18 -10 -18 -21q0 -12 21 -17.5t46.5 -13t46.5 -23t21 -46.5q0 -20 -13.5 -38t-34.5 -32t-46.5 -22.5t-49.5 -8.5q-40 0 -60 14t-20 37q0 18 11 29t25 18q9 -19 32 -34.5t46 -15.5q17 0 28 6.5t11 19.5q0 14 -20.5 22
t-45 16t-45 20.5t-20.5 35.5q0 19 15 32.5t38 24.5q-38 5 -70 19.5t-55.5 39t-37 59t-13.5 79.5q0 56 19 99t51 71.5t75 43t90 14.5z" />
    <glyph glyph-name="egrave" unicode="&#xe8;" horiz-adv-x="446" 
d="M410 74q0 -32 -38 -58t-116 -26q-45 0 -85.5 13t-71 38.5t-49 64t-18.5 89.5q0 49 17.5 90t49 70.5t74.5 46t94 16.5q86 0 125.5 -41t39.5 -110q0 -23 -9 -35t-38 -13l-245 -9q6 -63 41 -96.5t83 -33.5q42 0 65.5 12.5t40.5 34.5q17 -5 28.5 -18.5t11.5 -34.5zM319 261
q0 38 -19 62.5t-61 24.5q-43 0 -69 -27.5t-29 -74.5h178v15zM69 206q0 60 27 103.5t61 64.5q-45 -22 -76 -66t-31 -109q0 -44 15 -79.5t42 -61t65 -39t85 -13.5q30 0 53.5 5t39 11.5t23.5 14t8 13.5q0 7 -6 11q-17 -18 -45 -27.5t-73 -9.5q-41 0 -75.5 13t-59.5 37t-39 57.5
t-14 74.5zM250 366q25 -1 42 -9.5t27.5 -23t15 -33t4.5 -39.5v-15h23v17q0 48 -19.5 76t-71.5 28h-10t-11 -1zM214 629q13 0 27.5 -20t27 -46t20.5 -51t8 -36q0 -20 -15 -20q-12 0 -33 15t-41 35.5t-34.5 41.5t-14.5 33q0 8 5 16.5t12.5 15.5t16 11.5t15.5 4.5h6zM199 573
q-5 0 -8.5 -3t-3.5 -7q0 -7 11.5 -21.5t25.5 -29t27 -25.5t16 -11t3 2q0 3 -9.5 18.5t-22 32.5t-24 30.5t-15.5 13.5z" />
    <glyph glyph-name="eacute" unicode="&#xe9;" horiz-adv-x="446" 
d="M410 74q0 -32 -38 -58t-116 -26q-45 0 -85.5 13t-71 38.5t-49 64t-18.5 89.5q0 49 17.5 90t49 70.5t74.5 46t94 16.5q86 0 125.5 -41t39.5 -110q0 -23 -9 -35t-38 -13l-245 -9q6 -63 41 -96.5t83 -33.5q42 0 65.5 12.5t40.5 34.5q17 -5 28.5 -18.5t11.5 -34.5zM319 261
q0 38 -19 62.5t-61 24.5q-43 0 -69 -27.5t-29 -74.5h178v15zM69 206q0 60 27 103.5t61 64.5q-45 -22 -76 -66t-31 -109q0 -44 15 -79.5t42 -61t65 -39t85 -13.5q30 0 53.5 5t39 11.5t23.5 14t8 13.5q0 7 -6 11q-17 -18 -45 -27.5t-73 -9.5q-41 0 -75.5 13t-59.5 37t-39 57.5
t-14 74.5zM250 366q25 -1 42 -9.5t27.5 -23t15 -33t4.5 -39.5v-15h23v17q0 48 -19.5 76t-71.5 28h-10t-11 -1zM282 626q8 0 17.5 -4t17.5 -10t13.5 -13.5t5.5 -14.5q0 -14 -14.5 -34t-34 -39.5t-39 -34t-28.5 -17.5q-3 -1 -9 -1q-16 0 -16 18q0 19 10 45t24 49.5t29 39.5
t24 16zM269 570q0 4 -3 6t-5 2q-6 0 -15.5 -13t-17.5 -29.5t-14 -32t-6 -21.5q0 -2 2 -2q3 0 12.5 12t20 27.5t18.5 30.5t8 20z" />
    <glyph glyph-name="ecircumflex" unicode="&#xea;" horiz-adv-x="446" 
d="M410 74q0 -32 -38 -58t-116 -26q-45 0 -85.5 13t-71 38.5t-49 64t-18.5 89.5q0 49 17.5 90t49 70.5t74.5 46t94 16.5q86 0 125.5 -41t39.5 -110q0 -23 -9 -35t-38 -13l-245 -9q6 -63 41 -96.5t83 -33.5q42 0 65.5 12.5t40.5 34.5q17 -5 28.5 -18.5t11.5 -34.5zM319 261
q0 38 -19 62.5t-61 24.5q-43 0 -69 -27.5t-29 -74.5h178v15zM69 206q0 60 27 103.5t61 64.5q-45 -22 -76 -66t-31 -109q0 -44 15 -79.5t42 -61t65 -39t85 -13.5q30 0 53.5 5t39 11.5t23.5 14t8 13.5q0 7 -6 11q-17 -18 -45 -27.5t-73 -9.5q-41 0 -75.5 13t-59.5 37t-39 57.5
t-14 74.5zM250 366q25 -1 42 -9.5t27.5 -23t15 -33t4.5 -39.5v-15h23v17q0 48 -19.5 76t-71.5 28h-10t-11 -1zM250 626q16 0 32.5 -19t30 -45t22 -52.5t8.5 -40.5q0 -10 -6 -15t-14 -5q-11 0 -23.5 6t-24.5 15t-22.5 20.5t-18.5 22.5q-9 -10 -18.5 -20.5t-19 -19t-19 -14
t-18.5 -5.5t-9 13q0 7 4.5 21.5t12.5 32.5t18 36.5t20.5 33.5t20.5 25t19 10h5zM233 569q-5 0 -15 -12.5t-20.5 -28t-18.5 -29.5t-8 -18q0 -2 3 -2t11 7.5t17.5 17.5t18 20.5t13.5 16.5q5 -7 15 -18.5t20.5 -22t20 -18.5t13.5 -8q2 0 2 2q0 5 -9 20t-21 31.5t-23 29
t-15 12.5h-4z" />
    <glyph glyph-name="edieresis" unicode="&#xeb;" horiz-adv-x="446" 
d="M410 74q0 -32 -38 -58t-116 -26q-45 0 -85.5 13t-71 38.5t-49 64t-18.5 89.5q0 49 17.5 90t49 70.5t74.5 46t94 16.5q86 0 125.5 -41t39.5 -110q0 -23 -9 -35t-38 -13l-245 -9q6 -63 41 -96.5t83 -33.5q42 0 65.5 12.5t40.5 34.5q17 -5 28.5 -18.5t11.5 -34.5zM319 261
q0 38 -19 62.5t-61 24.5q-43 0 -69 -27.5t-29 -74.5h178v15zM69 206q0 60 27 103.5t61 64.5q-45 -22 -76 -66t-31 -109q0 -44 15 -79.5t42 -61t65 -39t85 -13.5q30 0 53.5 5t39 11.5t23.5 14t8 13.5q0 7 -6 11q-17 -18 -45 -27.5t-73 -9.5q-41 0 -75.5 13t-59.5 37t-39 57.5
t-14 74.5zM250 366q25 -1 42 -9.5t27.5 -23t15 -33t4.5 -39.5v-15h23v17q0 48 -19.5 76t-71.5 28h-10t-11 -1zM149 578q29 0 44.5 -14.5t15.5 -40.5t-16 -42t-45 -16q-28 0 -43.5 15t-15.5 40q0 27 17 42.5t43 15.5zM341 578q27 0 42.5 -14.5t15.5 -40.5t-16.5 -42
t-45.5 -16q-27 0 -43 15t-16 40q0 27 18.5 42.5t44.5 15.5zM105 522q0 -20 12.5 -31t30.5 -13q-11 9 -17 22t-6 26q0 22 9 37q-29 -9 -29 -41zM295 521q0 -21 12 -31.5t30 -12.5q-11 9 -17 22t-6 27q0 21 9 36q-28 -9 -28 -41z" />
    <glyph glyph-name="igrave" unicode="&#xec;" horiz-adv-x="278" 
d="M204 25h56l-2 -25h-228l-1 19l26 5q29 6 29 29v271q0 16 -6 23.5t-22 9.5l-28 2v30q16 2 40 4.5t50 4.5t51.5 3.5t45.5 2.5q-5 -43 -8 -91t-3 -102v-186zM65 367q22 -2 28.5 -12.5t6.5 -28.5v-270q0 -14 -5 -24.5t-23 -15.5q16 2 23.5 2h17.5h8v353zM103 629
q13 0 27.5 -20t27 -46t20.5 -51t8 -36q0 -20 -15 -20q-12 0 -33 15t-41 35.5t-34.5 41.5t-14.5 33q0 8 5 16.5t12.5 15.5t16 11.5t15.5 4.5h6zM88 573q-5 0 -8.5 -3t-3.5 -7q0 -7 11.5 -21.5t25.5 -29t27 -25.5t16 -11t3 2q0 3 -9.5 18.5t-22 32.5t-24 30.5t-15.5 13.5z" />
    <glyph glyph-name="iacute" unicode="&#xed;" horiz-adv-x="278" 
d="M204 25h56l-2 -25h-228l-1 19l26 5q29 6 29 29v271q0 16 -6 23.5t-22 9.5l-28 2v30q16 2 40 4.5t50 4.5t51.5 3.5t45.5 2.5q-5 -43 -8 -91t-3 -102v-186zM65 367q22 -2 28.5 -12.5t6.5 -28.5v-270q0 -14 -5 -24.5t-23 -15.5q16 2 23.5 2h17.5h8v353zM181 626q8 0 17.5 -4
t17.5 -10t13.5 -13.5t5.5 -14.5q0 -14 -14.5 -34t-34 -39.5t-39 -34t-28.5 -17.5q-3 -1 -9 -1q-16 0 -16 18q0 19 10 45t24 49.5t29 39.5t24 16zM168 570q0 4 -3 6t-5 2q-6 0 -15.5 -13t-17.5 -29.5t-14 -32t-6 -21.5q0 -2 2 -2q3 0 12.5 12t20 27.5t18.5 30.5t8 20z" />
    <glyph glyph-name="icircumflex" unicode="&#xee;" horiz-adv-x="278" 
d="M204 25h56l-2 -25h-228l-1 19l26 5q29 6 29 29v271q0 16 -6 23.5t-22 9.5l-28 2v30q16 2 40 4.5t50 4.5t51.5 3.5t45.5 2.5q-5 -43 -8 -91t-3 -102v-186zM65 367q22 -2 28.5 -12.5t6.5 -28.5v-270q0 -14 -5 -24.5t-23 -15.5q16 2 23.5 2h17.5h8v353zM156 626
q16 0 32.5 -19t30 -45t22 -52.5t8.5 -40.5q0 -10 -6 -15t-14 -5q-11 0 -23.5 6t-24.5 15t-22.5 20.5t-18.5 22.5q-9 -10 -18.5 -20.5t-19 -19t-19 -14t-18.5 -5.5t-9 13q0 7 4.5 21.5t12.5 32.5t18 36.5t20.5 33.5t20.5 25t19 10h5zM139 569q-5 0 -15 -12.5t-20.5 -28
t-18.5 -29.5t-8 -18q0 -2 3 -2t11 7.5t17.5 17.5t18 20.5t13.5 16.5q5 -7 15 -18.5t20.5 -22t20 -18.5t13.5 -8q2 0 2 2q0 5 -9 20t-21 31.5t-23 29t-15 12.5h-4z" />
    <glyph glyph-name="idieresis" unicode="&#xef;" horiz-adv-x="278" 
d="M204 25h56l-2 -25h-228l-1 19l26 5q29 6 29 29v271q0 16 -6 23.5t-22 9.5l-28 2v30q16 2 40 4.5t50 4.5t51.5 3.5t45.5 2.5q-5 -43 -8 -91t-3 -102v-186zM65 367q22 -2 28.5 -12.5t6.5 -28.5v-270q0 -14 -5 -24.5t-23 -15.5q16 2 23.5 2h17.5h8v353zM43 578
q29 0 44.5 -14.5t15.5 -40.5t-16 -42t-45 -16q-28 0 -43.5 15t-15.5 40q0 27 17 42.5t43 15.5zM235 578q27 0 42.5 -14.5t15.5 -40.5t-16.5 -42t-45.5 -16q-27 0 -43 15t-16 40q0 27 18.5 42.5t44.5 15.5zM-1 522q0 -20 12.5 -31t30.5 -13q-11 9 -17 22t-6 26q0 22 9 37
q-29 -9 -29 -41zM189 521q0 -21 12 -31.5t30 -12.5q-11 9 -17 22t-6 27q0 21 9 36q-28 -9 -28 -41z" />
    <glyph glyph-name="eth" unicode="&#xf0;" horiz-adv-x="528" 
d="M93 616q56 -19 109 -52q45 -29 92.5 -76t78.5 -118q1 3 1 9q0 35 -21.5 71.5t-59 68.5t-89 57.5t-111.5 39.5zM81 654q51 -6 94.5 -20.5t81.5 -36.5l81 55l16 -21l-72 -47q42 -26 77.5 -63t62 -83.5t41.5 -102.5t15 -120q0 -53 -18.5 -94.5t-50.5 -70t-75 -44t-91 -15.5
q-47 0 -84 16t-62.5 43.5t-39 65t-13.5 80.5q0 46 17 86.5t46 70.5t67 47t80 17q21 0 41 -3.5t37 -11.5q-10 18 -24.5 36t-31 35.5t-34 32.5t-33.5 26l-88 -61l-15 21l82 57q-30 22 -61 37.5t-57 25.5q0 11 2.5 23t8.5 19zM83 204q0 113 87 173q-45 -23 -76 -68t-31 -110
q0 -88 51.5 -140t142.5 -52q20 0 37.5 4.5t29.5 11.5q-23 -5 -56 -5q-40 0 -74 13.5t-58.5 38t-38.5 58.5t-14 76zM396 183q0 -30 -8 -59t-30 -55q26 26 41.5 61.5t15.5 75.5q0 76 -41 117.5t-105 41.5q-32 0 -56 -12q20 4 39 4q33 0 59.5 -14t45 -38t29 -55.5t10.5 -66.5z
M144 225q0 -34 11 -64.5t30 -53.5t44 -36.5t54 -13.5q25 0 42.5 10t29 27t17 38.5t5.5 44.5q0 31 -9.5 61t-27 52.5t-42.5 36.5t-55 14q-46 0 -72.5 -31t-26.5 -85z" />
    <glyph glyph-name="ntilde" unicode="&#xf1;" horiz-adv-x="555" 
d="M363 232q0 41 -18 65t-56 24q-39 0 -62.5 -22.5t-23.5 -70.5v-203h56l-2 -25h-228l-1 19l26 5q16 3 22.5 9.5t6.5 23.5v182q0 53 -10.5 83.5t-39.5 44.5q15 17 35.5 29t52.5 12q37 0 54.5 -22t20.5 -67h4q20 42 53.5 68t91.5 26q69 0 103.5 -39.5t34.5 -109.5v-239h48
l-3 -25h-217l-1 22l25 2q28 1 28 32v176zM401 252q0 48 -23.5 72.5t-63.5 24.5q-17 0 -32 -5t-28 -13q21 6 43 6q40 0 61.5 -25t21.5 -70v-189q0 -14 -5 -23t-22 -14q14 2 23 2h25v234zM121 261q0 49 -10 79t-33 30q-8 0 -14 -4q20 -12 28 -40t8 -79v-191q0 -14 -5 -24.5
t-23 -15.5q16 2 23.5 2h17.5h8v243zM390 616q17 -17 28 -42t11 -49q0 -51 -61 -51q-17 0 -40 4t-46 9t-43.5 9t-32.5 4q-14 0 -17.5 -8t-3.5 -20q0 -5 0.5 -10t1.5 -11l-13 -2q-13 15 -27 35.5t-14 45.5q0 27 16.5 44.5t46.5 17.5q19 0 41.5 -4.5t45 -9.5t43.5 -9.5t36 -4.5
q12 0 16.5 6t4.5 16q0 14 -4 27zM403 530q-4 -22 -33 -22q-13 0 -35.5 4t-47 9t-48 9t-39.5 4q-38 0 -38 -27q0 -8 4 -16t9 -15q-1 5 -1 11q0 29 30 29q12 0 33 -4t44.5 -9t47 -9t41.5 -4q38 0 38 25q0 8 -5 15z" />
    <glyph glyph-name="ograve" unicode="&#xf2;" horiz-adv-x="511" 
d="M271 420q46 0 84 -15t65 -42t42 -65.5t15 -84.5q0 -49 -18 -90t-50 -70t-76 -45.5t-96 -16.5q-45 0 -82.5 14.5t-64 41.5t-41.5 65t-15 84q0 47 18 88t49.5 71t75 47.5t94.5 17.5zM237 341q-50 0 -75 -33t-25 -83q0 -35 11 -65.5t30.5 -53.5t45.5 -36t55 -13
q24 0 41.5 9.5t29.5 26t18 38.5t6 46q0 35 -10.5 65t-29 52t-43.5 34.5t-54 12.5zM74 204q0 113 89 173q-46 -23 -77.5 -68t-31.5 -110q0 -88 52 -140t146 -52q20 0 38 4.5t30 11.5q-23 -5 -57 -5q-41 0 -75.5 13.5t-60 38t-39.5 58.5t-14 76zM394 183q0 -30 -8 -59t-31 -55
q27 26 42.5 61.5t15.5 75.5q0 76 -41.5 117.5t-107.5 41.5q-15 0 -30 -3t-27 -9q20 4 40 4q33 0 60.5 -14t46.5 -38t29.5 -55.5t10.5 -66.5zM211 629q13 0 27.5 -20t27 -46t20.5 -51t8 -36q0 -20 -15 -20q-12 0 -33 15t-41 35.5t-34.5 41.5t-14.5 33q0 8 5 16.5t12.5 15.5
t16 11.5t15.5 4.5h6zM196 573q-5 0 -8.5 -3t-3.5 -7q0 -7 11.5 -21.5t25.5 -29t27 -25.5t16 -11t3 2q0 3 -9.5 18.5t-22 32.5t-24 30.5t-15.5 13.5z" />
    <glyph glyph-name="oacute" unicode="&#xf3;" horiz-adv-x="511" 
d="M271 420q46 0 84 -15t65 -42t42 -65.5t15 -84.5q0 -49 -18 -90t-50 -70t-76 -45.5t-96 -16.5q-45 0 -82.5 14.5t-64 41.5t-41.5 65t-15 84q0 47 18 88t49.5 71t75 47.5t94.5 17.5zM237 341q-50 0 -75 -33t-25 -83q0 -35 11 -65.5t30.5 -53.5t45.5 -36t55 -13
q24 0 41.5 9.5t29.5 26t18 38.5t6 46q0 35 -10.5 65t-29 52t-43.5 34.5t-54 12.5zM74 204q0 113 89 173q-46 -23 -77.5 -68t-31.5 -110q0 -88 52 -140t146 -52q20 0 38 4.5t30 11.5q-23 -5 -57 -5q-41 0 -75.5 13.5t-60 38t-39.5 58.5t-14 76zM394 183q0 -30 -8 -59t-31 -55
q27 26 42.5 61.5t15.5 75.5q0 76 -41.5 117.5t-107.5 41.5q-15 0 -30 -3t-27 -9q20 4 40 4q33 0 60.5 -14t46.5 -38t29.5 -55.5t10.5 -66.5zM286 626q8 0 17.5 -4t17.5 -10t13.5 -13.5t5.5 -14.5q0 -14 -14.5 -34t-34 -39.5t-39 -34t-28.5 -17.5q-3 -1 -9 -1q-16 0 -16 18
q0 19 10 45t24 49.5t29 39.5t24 16zM273 570q0 4 -3 6t-5 2q-6 0 -15.5 -13t-17.5 -29.5t-14 -32t-6 -21.5q0 -2 2 -2q3 0 12.5 12t20 27.5t18.5 30.5t8 20z" />
    <glyph glyph-name="ocircumflex" unicode="&#xf4;" horiz-adv-x="511" 
d="M271 420q46 0 84 -15t65 -42t42 -65.5t15 -84.5q0 -49 -18 -90t-50 -70t-76 -45.5t-96 -16.5q-45 0 -82.5 14.5t-64 41.5t-41.5 65t-15 84q0 47 18 88t49.5 71t75 47.5t94.5 17.5zM237 341q-50 0 -75 -33t-25 -83q0 -35 11 -65.5t30.5 -53.5t45.5 -36t55 -13
q24 0 41.5 9.5t29.5 26t18 38.5t6 46q0 35 -10.5 65t-29 52t-43.5 34.5t-54 12.5zM74 204q0 113 89 173q-46 -23 -77.5 -68t-31.5 -110q0 -88 52 -140t146 -52q20 0 38 4.5t30 11.5q-23 -5 -57 -5q-41 0 -75.5 13.5t-60 38t-39.5 58.5t-14 76zM394 183q0 -30 -8 -59t-31 -55
q27 26 42.5 61.5t15.5 75.5q0 76 -41.5 117.5t-107.5 41.5q-15 0 -30 -3t-27 -9q20 4 40 4q33 0 60.5 -14t46.5 -38t29.5 -55.5t10.5 -66.5zM259 626q16 0 32.5 -19t30 -45t22 -52.5t8.5 -40.5q0 -10 -6 -15t-14 -5q-11 0 -23.5 6t-24.5 15t-22.5 20.5t-18.5 22.5
q-9 -10 -18.5 -20.5t-19 -19t-19 -14t-18.5 -5.5t-9 13q0 7 4.5 21.5t12.5 32.5t18 36.5t20.5 33.5t20.5 25t19 10h5zM242 569q-5 0 -15 -12.5t-20.5 -28t-18.5 -29.5t-8 -18q0 -2 3 -2t11 7.5t17.5 17.5t18 20.5t13.5 16.5q5 -7 15 -18.5t20.5 -22t20 -18.5t13.5 -8
q2 0 2 2q0 5 -9 20t-21 31.5t-23 29t-15 12.5h-4z" />
    <glyph glyph-name="otilde" unicode="&#xf5;" horiz-adv-x="511" 
d="M271 420q46 0 84 -15t65 -42t42 -65.5t15 -84.5q0 -49 -18 -90t-50 -70t-76 -45.5t-96 -16.5q-45 0 -82.5 14.5t-64 41.5t-41.5 65t-15 84q0 47 18 88t49.5 71t75 47.5t94.5 17.5zM237 341q-50 0 -75 -33t-25 -83q0 -35 11 -65.5t30.5 -53.5t45.5 -36t55 -13
q24 0 41.5 9.5t29.5 26t18 38.5t6 46q0 35 -10.5 65t-29 52t-43.5 34.5t-54 12.5zM74 204q0 113 89 173q-46 -23 -77.5 -68t-31.5 -110q0 -88 52 -140t146 -52q20 0 38 4.5t30 11.5q-23 -5 -57 -5q-41 0 -75.5 13.5t-60 38t-39.5 58.5t-14 76zM394 183q0 -30 -8 -59t-31 -55
q27 26 42.5 61.5t15.5 75.5q0 76 -41.5 117.5t-107.5 41.5q-15 0 -30 -3t-27 -9q20 4 40 4q33 0 60.5 -14t46.5 -38t29.5 -55.5t10.5 -66.5zM349 616q17 -17 28 -42t11 -49q0 -51 -61 -51q-17 0 -40 4t-46 9t-43.5 9t-32.5 4q-14 0 -17.5 -8t-3.5 -20q0 -5 0.5 -10t1.5 -11
l-13 -2q-13 15 -27 35.5t-14 45.5q0 27 16.5 44.5t46.5 17.5q19 0 41.5 -4.5t45 -9.5t43.5 -9.5t36 -4.5q12 0 16.5 6t4.5 16q0 14 -4 27zM362 530q-4 -22 -33 -22q-13 0 -35.5 4t-47 9t-48 9t-39.5 4q-38 0 -38 -27q0 -8 4 -16t9 -15q-1 5 -1 11q0 29 30 29q12 0 33 -4
t44.5 -9t47 -9t41.5 -4q38 0 38 25q0 8 -5 15z" />
    <glyph glyph-name="odieresis" unicode="&#xf6;" horiz-adv-x="511" 
d="M271 420q46 0 84 -15t65 -42t42 -65.5t15 -84.5q0 -49 -18 -90t-50 -70t-76 -45.5t-96 -16.5q-45 0 -82.5 14.5t-64 41.5t-41.5 65t-15 84q0 47 18 88t49.5 71t75 47.5t94.5 17.5zM237 341q-50 0 -75 -33t-25 -83q0 -35 11 -65.5t30.5 -53.5t45.5 -36t55 -13
q24 0 41.5 9.5t29.5 26t18 38.5t6 46q0 35 -10.5 65t-29 52t-43.5 34.5t-54 12.5zM74 204q0 113 89 173q-46 -23 -77.5 -68t-31.5 -110q0 -88 52 -140t146 -52q20 0 38 4.5t30 11.5q-23 -5 -57 -5q-41 0 -75.5 13.5t-60 38t-39.5 58.5t-14 76zM394 183q0 -30 -8 -59t-31 -55
q27 26 42.5 61.5t15.5 75.5q0 76 -41.5 117.5t-107.5 41.5q-15 0 -30 -3t-27 -9q20 4 40 4q33 0 60.5 -14t46.5 -38t29.5 -55.5t10.5 -66.5zM162 578q29 0 44.5 -14.5t15.5 -40.5t-16 -42t-45 -16q-28 0 -43.5 15t-15.5 40q0 27 17 42.5t43 15.5zM354 578q27 0 42.5 -14.5
t15.5 -40.5t-16.5 -42t-45.5 -16q-27 0 -43 15t-16 40q0 27 18.5 42.5t44.5 15.5zM118 522q0 -20 12.5 -31t30.5 -13q-11 9 -17 22t-6 26q0 22 9 37q-29 -9 -29 -41zM308 521q0 -21 12 -31.5t30 -12.5q-11 9 -17 22t-6 27q0 21 9 36q-28 -9 -28 -41z" />
    <glyph glyph-name="divide" unicode="&#xf7;" horiz-adv-x="492" 
d="M58 237h376v-42h-376v42zM175 64q0 26 19 45.5t49 19.5q32 0 50 -19t18 -48q0 -27 -18.5 -46t-49.5 -19q-29 0 -48.5 18t-19.5 49zM192 63q0 -23 13.5 -37t34.5 -16q-14 12 -20 28t-6 30q0 15 3 24.5t8 20.5q-15 -5 -24 -18t-9 -32zM177 358q0 26 19 45.5t49 19.5
q32 0 50 -19t18 -48q0 -27 -18.5 -46t-49.5 -19q-29 0 -48.5 18t-19.5 49zM194 357q0 -23 13.5 -37t34.5 -16q-14 12 -20 28t-6 30q0 15 3 24.5t8 20.5q-15 -5 -24 -18t-9 -32z" />
    <glyph glyph-name="oslash" unicode="&#xf8;" horiz-adv-x="507" 
d="M269 420q36 0 67.5 -9t54.5 -25l50 59l18 -16l-49 -58q32 -28 48.5 -68t16.5 -90q0 -49 -18 -90t-50 -70t-76 -45.5t-96 -16.5q-66 0 -116 31l-50 -59l-20 18l48 56q-30 26 -47.5 67.5t-17.5 91.5q0 47 18 88t49.5 71t75 47.5t94.5 17.5zM372 177q0 29 -7.5 57t-24.5 49
l-156 -184q20 -20 43 -31t50 -11q24 0 41.5 9.5t29.5 26t18 38.5t6 46zM235 341q-50 0 -75 -33t-25 -83q0 -29 7.5 -57t24.5 -49l157 184q-18 18 -40.5 28t-48.5 10zM72 204q0 113 89 173q-46 -23 -77.5 -68t-31.5 -110q0 -88 52 -140t146 -52q20 0 38 4.5t30 11.5
q-23 -5 -57 -5q-41 0 -75.5 13.5t-60 38t-39.5 58.5t-14 76zM396 183q0 -30 -8 -60t-31 -56q31 32 44.5 65.5t13.5 73.5q0 76 -41 118.5t-107 42.5q-15 0 -30 -3t-27 -9q20 4 40 4q33 0 60 -14.5t46 -38.5t29.5 -56t10.5 -67z" />
    <glyph glyph-name="ugrave" unicode="&#xf9;" horiz-adv-x="568" 
d="M356 82q-15 -37 -48.5 -64.5t-91.5 -27.5q-68 0 -102 40t-34 109v185q0 17 -6 24t-23 9l-27 2v30q18 1 40 3.5t46 4.5l48 4t46 4q-1 -30 -2.5 -66t-2.5 -70.5t-1.5 -64.5t-0.5 -47q0 -40 14.5 -63t50.5 -23q40 0 67.5 25t27.5 70v158q0 16 -5.5 23.5t-22.5 9.5l-28 2v30
q91 10 183 15q-2 -46 -4.5 -93.5t-2.5 -101.5v-108q0 -22 7.5 -28t15.5 -6q13 0 22 6.5t20 17.5q1 -4 1.5 -8t0.5 -10q0 -36 -26 -58.5t-67 -22.5q-38 0 -62.5 21.5t-28.5 68.5h-4zM96 135q0 -61 31 -95t83 -34q21 0 41.5 4.5t36.5 14.5q-14 -5 -28.5 -6.5t-28.5 -1.5
q-53 0 -83.5 31t-30.5 92v231l-56 -4q35 -3 35 -41v-191zM339 367q22 -2 28 -12.5t6 -28.5v-216q0 -49 19 -76t59 -27q15 0 25.5 4t18.5 11q-7 -2 -14.5 -4t-18.5 -2q-30 0 -49 19t-19 57v279zM236 629q13 0 27.5 -20t27 -46t20.5 -51t8 -36q0 -20 -15 -20q-12 0 -33 15
t-41 35.5t-34.5 41.5t-14.5 33q0 8 5 16.5t12.5 15.5t16 11.5t15.5 4.5h6zM221 573q-5 0 -8.5 -3t-3.5 -7q0 -7 11.5 -21.5t25.5 -29t27 -25.5t16 -11t3 2q0 3 -9.5 18.5t-22 32.5t-24 30.5t-15.5 13.5z" />
    <glyph glyph-name="uacute" unicode="&#xfa;" horiz-adv-x="568" 
d="M356 82q-15 -37 -48.5 -64.5t-91.5 -27.5q-68 0 -102 40t-34 109v185q0 17 -6 24t-23 9l-27 2v30q18 1 40 3.5t46 4.5l48 4t46 4q-1 -30 -2.5 -66t-2.5 -70.5t-1.5 -64.5t-0.5 -47q0 -40 14.5 -63t50.5 -23q40 0 67.5 25t27.5 70v158q0 16 -5.5 23.5t-22.5 9.5l-28 2v30
q91 10 183 15q-2 -46 -4.5 -93.5t-2.5 -101.5v-108q0 -22 7.5 -28t15.5 -6q13 0 22 6.5t20 17.5q1 -4 1.5 -8t0.5 -10q0 -36 -26 -58.5t-67 -22.5q-38 0 -62.5 21.5t-28.5 68.5h-4zM96 135q0 -61 31 -95t83 -34q21 0 41.5 4.5t36.5 14.5q-14 -5 -28.5 -6.5t-28.5 -1.5
q-53 0 -83.5 31t-30.5 92v231l-56 -4q35 -3 35 -41v-191zM339 367q22 -2 28 -12.5t6 -28.5v-216q0 -49 19 -76t59 -27q15 0 25.5 4t18.5 11q-7 -2 -14.5 -4t-18.5 -2q-30 0 -49 19t-19 57v279zM323 626q8 0 17.5 -4t17.5 -10t13.5 -13.5t5.5 -14.5q0 -14 -14.5 -34
t-34 -39.5t-39 -34t-28.5 -17.5q-3 -1 -9 -1q-16 0 -16 18q0 19 10 45t24 49.5t29 39.5t24 16zM310 570q0 4 -3 6t-5 2q-6 0 -15.5 -13t-17.5 -29.5t-14 -32t-6 -21.5q0 -2 2 -2q3 0 12.5 12t20 27.5t18.5 30.5t8 20z" />
    <glyph glyph-name="ucircumflex" unicode="&#xfb;" horiz-adv-x="568" 
d="M356 82q-15 -37 -48.5 -64.5t-91.5 -27.5q-68 0 -102 40t-34 109v185q0 17 -6 24t-23 9l-27 2v30q18 1 40 3.5t46 4.5l48 4t46 4q-1 -30 -2.5 -66t-2.5 -70.5t-1.5 -64.5t-0.5 -47q0 -40 14.5 -63t50.5 -23q40 0 67.5 25t27.5 70v158q0 16 -5.5 23.5t-22.5 9.5l-28 2v30
q91 10 183 15q-2 -46 -4.5 -93.5t-2.5 -101.5v-108q0 -22 7.5 -28t15.5 -6q13 0 22 6.5t20 17.5q1 -4 1.5 -8t0.5 -10q0 -36 -26 -58.5t-67 -22.5q-38 0 -62.5 21.5t-28.5 68.5h-4zM96 135q0 -61 31 -95t83 -34q21 0 41.5 4.5t36.5 14.5q-14 -5 -28.5 -6.5t-28.5 -1.5
q-53 0 -83.5 31t-30.5 92v231l-56 -4q35 -3 35 -41v-191zM339 367q22 -2 28 -12.5t6 -28.5v-216q0 -49 19 -76t59 -27q15 0 25.5 4t18.5 11q-7 -2 -14.5 -4t-18.5 -2q-30 0 -49 19t-19 57v279zM283 626q16 0 32.5 -19t30 -45t22 -52.5t8.5 -40.5q0 -10 -6 -15t-14 -5
q-11 0 -23.5 6t-24.5 15t-22.5 20.5t-18.5 22.5q-9 -10 -18.5 -20.5t-19 -19t-19 -14t-18.5 -5.5t-9 13q0 7 4.5 21.5t12.5 32.5t18 36.5t20.5 33.5t20.5 25t19 10h5zM266 569q-5 0 -15 -12.5t-20.5 -28t-18.5 -29.5t-8 -18q0 -2 3 -2t11 7.5t17.5 17.5t18 20.5t13.5 16.5
q5 -7 15 -18.5t20.5 -22t20 -18.5t13.5 -8q2 0 2 2q0 5 -9 20t-21 31.5t-23 29t-15 12.5h-4z" />
    <glyph glyph-name="udieresis" unicode="&#xfc;" horiz-adv-x="568" 
d="M356 82q-15 -37 -48.5 -64.5t-91.5 -27.5q-68 0 -102 40t-34 109v185q0 17 -6 24t-23 9l-27 2v30q18 1 40 3.5t46 4.5l48 4t46 4q-1 -30 -2.5 -66t-2.5 -70.5t-1.5 -64.5t-0.5 -47q0 -40 14.5 -63t50.5 -23q40 0 67.5 25t27.5 70v158q0 16 -5.5 23.5t-22.5 9.5l-28 2v30
q91 10 183 15q-2 -46 -4.5 -93.5t-2.5 -101.5v-108q0 -22 7.5 -28t15.5 -6q13 0 22 6.5t20 17.5q1 -4 1.5 -8t0.5 -10q0 -36 -26 -58.5t-67 -22.5q-38 0 -62.5 21.5t-28.5 68.5h-4zM96 135q0 -61 31 -95t83 -34q21 0 41.5 4.5t36.5 14.5q-14 -5 -28.5 -6.5t-28.5 -1.5
q-53 0 -83.5 31t-30.5 92v231l-56 -4q35 -3 35 -41v-191zM339 367q22 -2 28 -12.5t6 -28.5v-216q0 -49 19 -76t59 -27q15 0 25.5 4t18.5 11q-7 -2 -14.5 -4t-18.5 -2q-30 0 -49 19t-19 57v279zM180 578q29 0 44.5 -14.5t15.5 -40.5t-16 -42t-45 -16q-28 0 -43.5 15t-15.5 40
q0 27 17 42.5t43 15.5zM372 578q27 0 42.5 -14.5t15.5 -40.5t-16.5 -42t-45.5 -16q-27 0 -43 15t-16 40q0 27 18.5 42.5t44.5 15.5zM136 522q0 -20 12.5 -31t30.5 -13q-11 9 -17 22t-6 26q0 22 9 37q-29 -9 -29 -41zM326 521q0 -21 12 -31.5t30 -12.5q-11 9 -17 22t-6 27
q0 21 9 36q-28 -9 -28 -41z" />
    <glyph glyph-name="yacute" unicode="&#xfd;" horiz-adv-x="493" 
d="M126 -170q-23 0 -37 15.5t-14 47.5q-16 -13 -16 -35t16 -33t40 -11q26 0 43 9t28 22q-14 -7 -27.5 -11t-32.5 -4zM125 368q-10 -1 -18 -1h-19t-19.5 0.5t-19.5 1.5q11 -3 17.5 -11t13.5 -22l166 -353l12 31l-152 311q-2 5 -4.5 10t-2.5 10q0 19 26 23zM79 -84
q12 -13 25.5 -27.5t35.5 -14.5q33 0 51 18t29 42l12 26q-20 43 -44.5 96t-49 105.5t-46.5 99t-36 76.5q-8 16 -20.5 22.5t-35.5 8.5v32q12 0 28.5 -0.5t33.5 -1t32 -1t26 -0.5h33t38.5 0.5t37.5 1t30 0.5v-31q-26 -2 -42 -5.5t-16 -16.5q0 -8 9.5 -32t24.5 -57t33 -71.5
t34 -73.5q15 35 30.5 73.5t28 72t21 58t8.5 31.5q0 12 -16 15.5t-51 5.5v30q27 -1 56 -1.5t46 -0.5q14 0 36 1.5t42 1.5v-31q-17 -1 -28.5 -2t-19 -4.5t-12 -9t-8.5 -15.5q-12 -32 -28 -69.5t-33.5 -78.5t-36.5 -85t-37 -88q-21 -51 -40.5 -92t-41.5 -69.5t-46.5 -43.5
t-55.5 -15q-29 0 -52 13t-23 44q0 23 10 37.5t28 25.5zM342 626q8 0 17.5 -4t17.5 -10t13.5 -13.5t5.5 -14.5q0 -14 -14.5 -34t-34 -39.5t-39 -34t-28.5 -17.5q-3 -1 -9 -1q-16 0 -16 18q0 19 10 45t24 49.5t29 39.5t24 16zM329 570q0 4 -3 6t-5 2q-6 0 -15.5 -13
t-17.5 -29.5t-14 -32t-6 -21.5q0 -2 2 -2q3 0 12.5 12t20 27.5t18.5 30.5t8 20z" />
    <glyph glyph-name="thorn" unicode="&#xfe;" horiz-adv-x="542" 
d="M310 50q51 0 82 35.5t31 92.5q0 37 -10.5 67t-29.5 51t-45 32t-56 11q-40 0 -63.5 -21.5t-23.5 -56.5v-80q0 -62 29.5 -96.5t85.5 -34.5zM474 201q0 -47 -15.5 -88t-42.5 -63q37 25 58 66t21 94q0 87 -48 138.5t-130 51.5q-31 0 -52 -9.5t-30 -17.5q16 9 33 13.5t43 4.5
q34 0 64 -14.5t52 -40t34.5 -60.5t12.5 -75zM259 -166l-2 -25h-234l-1 19l26 5q14 3 21.5 9t7.5 20v703q0 16 -6 23.5t-22 9.5l-28 2v30q16 2 40 4.5t50 4.5t51.5 3.5t45.5 2.5q-5 -33 -8.5 -69t-3.5 -75l-1 -134q25 25 54 38.5t68 13.5q44 0 80.5 -13.5t63 -40t41 -64.5
t14.5 -87q0 -53 -18 -94.5t-47.5 -70t-67.5 -44t-77 -15.5q-37 0 -66 12t-49 33q0 -29 1 -53t1.5 -46.5t1.5 -47t2 -54.5h62zM59 608q22 -2 28.5 -12.5t6.5 -28.5v-702q0 -14 -5 -24.5t-23 -15.5q16 2 23.5 2h17.5h8v785z" />
    <glyph glyph-name="ydieresis" unicode="&#xff;" horiz-adv-x="493" 
d="M126 -170q-23 0 -37 15.5t-14 47.5q-16 -13 -16 -35t16 -33t40 -11q26 0 43 9t28 22q-14 -7 -27.5 -11t-32.5 -4zM125 368q-10 -1 -18 -1h-19t-19.5 0.5t-19.5 1.5q11 -3 17.5 -11t13.5 -22l166 -353l12 31l-152 311q-2 5 -4.5 10t-2.5 10q0 19 26 23zM79 -84
q12 -13 25.5 -27.5t35.5 -14.5q33 0 51 18t29 42l12 26q-20 43 -44.5 96t-49 105.5t-46.5 99t-36 76.5q-8 16 -20.5 22.5t-35.5 8.5v32q12 0 28.5 -0.5t33.5 -1t32 -1t26 -0.5h33t38.5 0.5t37.5 1t30 0.5v-31q-26 -2 -42 -5.5t-16 -16.5q0 -8 9.5 -32t24.5 -57t33 -71.5
t34 -73.5q15 35 30.5 73.5t28 72t21 58t8.5 31.5q0 12 -16 15.5t-51 5.5v30q27 -1 56 -1.5t46 -0.5q14 0 36 1.5t42 1.5v-31q-17 -1 -28.5 -2t-19 -4.5t-12 -9t-8.5 -15.5q-12 -32 -28 -69.5t-33.5 -78.5t-36.5 -85t-37 -88q-21 -51 -40.5 -92t-41.5 -69.5t-46.5 -43.5
t-55.5 -15q-29 0 -52 13t-23 44q0 23 10 37.5t28 25.5zM181 578q29 0 44.5 -14.5t15.5 -40.5t-16 -42t-45 -16q-28 0 -43.5 15t-15.5 40q0 27 17 42.5t43 15.5zM373 578q27 0 42.5 -14.5t15.5 -40.5t-16.5 -42t-45.5 -16q-27 0 -43 15t-16 40q0 27 18.5 42.5t44.5 15.5z
M137 522q0 -20 12.5 -31t30.5 -13q-11 9 -17 22t-6 26q0 22 9 37q-29 -9 -29 -41zM327 521q0 -21 12 -31.5t30 -12.5q-11 9 -17 22t-6 27q0 21 9 36q-28 -9 -28 -41z" />
    <glyph glyph-name="dotlessi" unicode="&#x131;" horiz-adv-x="268" 
d="M199 25h56l-2 -25h-228l-1 19l26 5q29 6 29 29v271q0 16 -6 23.5t-22 9.5l-28 2v30q16 2 40 4.5t50 4.5t51.5 3.5t45.5 2.5q-5 -43 -8 -91t-3 -102v-186zM60 367q22 -2 28.5 -12.5t6.5 -28.5v-270q0 -14 -5 -24.5t-23 -15.5q16 2 23.5 2h17.5h8v353z" />
    <glyph glyph-name="OE" unicode="&#x152;" horiz-adv-x="1059" 
d="M418 0q52 2 87 28t56.5 65.5t30.5 89t9 97.5q0 57 -12.5 116.5t-39.5 108t-70 79t-104 30.5q-49 0 -82.5 -24t-53.5 -63t-29 -89t-9 -101q0 -56 12 -115.5t38 -108.5t67 -81t100 -32zM649 316q0 52 -12.5 101t-38 90t-64 70t-89.5 40q49 -16 82 -50.5t53.5 -80.5
t29.5 -99t9 -106q0 -78 -20.5 -141.5t-61.5 -104.5q30 22 51 53t34.5 67t20 77t6.5 84zM65 295q0 -60 17.5 -108.5t49 -85t75.5 -61.5t96 -37q-46 16 -84.5 44.5t-66.5 68t-43.5 90t-15.5 109.5q0 78 27.5 139.5t68.5 100.5q-63 -46 -93.5 -114t-30.5 -146zM874 615
q47 -10 72 -35t43 -67q-5 26 -13 53.5t-17 49.5q-14 -1 -20.5 -1.5t-18.5 -0.5zM932 18h24t25 -1q8 22 13.5 41.5t12.5 46.5q-15 -34 -41.5 -56.5t-65.5 -30.5h32zM606 634h67.5t98.5 0.5t107.5 1t94.5 1.5q14 -38 22.5 -78.5t14.5 -85.5l-20 -3q-15 37 -32 63.5t-41 43.5
t-58 25.5t-83 8.5h-202q85 -37 132.5 -109.5t48.5 -169.5q39 0 63.5 4t39.5 14.5t23 29t15 48.5l16 -3q-3 -26 -5 -54.5t-2 -58.5q0 -29 1.5 -56t3.5 -52l-15 -2q-8 32 -15.5 52t-22 31t-38.5 15.5t-65 4.5q-7 -91 -54.5 -167t-131.5 -118h250q45 0 77 9.5t54 27.5
t36.5 44.5t25.5 60.5l16 -2q-4 -49 -13.5 -91t-19.5 -74q-41 0 -91.5 1t-101.5 1.5t-98 1.5t-81 1h-54t-52 -1q-29 -9 -60.5 -14t-66.5 -5q-72 0 -134 21.5t-108.5 62t-73 99.5t-26.5 134q0 73 28 136.5t76.5 110t113.5 73.5t139 27q22 0 42.5 -2t40.5 -6q26 -1 58 -1.5
t60 -0.5z" />
    <glyph glyph-name="oe" unicode="&#x153;" horiz-adv-x="788" 
d="M237 341q-50 0 -75 -33t-25 -83q0 -35 11 -65.5t30.5 -53.5t45.5 -36t55 -13q24 0 41.5 9.5t29.5 26t18 38.5t6 46q0 35 -10.5 65t-29 52t-43.5 34.5t-54 12.5zM74 204q0 113 89 173q-46 -23 -77.5 -68t-31.5 -110q0 -88 52 -140t146 -52q20 0 38 4.5t30 11.5
q-23 -5 -57 -5q-41 0 -75.5 13.5t-60 38t-39.5 58.5t-14 76zM661 261q0 38 -19 62.5t-61 24.5q-43 0 -69 -27.5t-29 -74.5h178v15zM592 366q25 -1 42 -9.5t27.5 -23t15 -33t4.5 -39.5v-15h23v17q0 48 -19.5 76t-71.5 28h-10t-11 -1zM412 206q0 60 27 103.5t61 64.5
q-32 -16 -57.5 -43.5t-39.5 -65.5q-15 48 -52.5 74t-88.5 26q-15 0 -30 -3t-27 -9q20 4 40 4q33 0 60.5 -14t46.5 -38t29.5 -55.5t10.5 -66.5q0 -30 -7.5 -59t-30.5 -55q31 29 46 72q17 -63 70 -99t130 -36q30 0 53.5 5t39 11.5t23.5 14t8 13.5q0 7 -6 11q-17 -18 -45 -27.5
t-73 -9.5q-41 0 -75.5 13t-59.5 37t-39 57.5t-14 74.5zM752 74q0 -32 -38 -58t-116 -26q-54 0 -101 18t-78 54q-32 -34 -78.5 -52.5t-103.5 -18.5q-45 0 -82.5 14.5t-64 41.5t-41.5 65t-15 84q0 47 18 88t49.5 71t75 47.5t94.5 17.5q53 0 94 -19t68 -53q32 33 77 51.5
t99 18.5q86 0 125.5 -41t39.5 -110q0 -23 -9 -35t-38 -13l-245 -9q6 -63 41 -96.5t83 -33.5q42 0 65.5 12.5t40.5 34.5q17 -5 28.5 -18.5t11.5 -34.5z" />
    <glyph glyph-name="Scaron" unicode="&#x160;" horiz-adv-x="550" 
d="M305 625q-49 -2 -78 -32t-29 -76q0 -34 21.5 -60t53.5 -48.5t69.5 -44.5t69.5 -48t53.5 -59t21.5 -77q0 -51 -20 -87.5t-53 -60.5t-76.5 -35.5t-91.5 -11.5q-47 0 -89.5 8t-84.5 26q0 38 3 71.5t11 70.5h22q10 -70 47.5 -112.5t98.5 -42.5q23 0 39.5 10.5t27 27
t15.5 37.5t5 43q0 39 -20.5 66t-51 48.5t-66 41.5t-66 45t-51 59t-20.5 84q0 45 19.5 79t53 56t79 33t97.5 11q43 0 87 -7t76 -21q-2 -32 -6 -69t-10 -77h-17q-11 70 -43.5 111t-96.5 41zM107 483q0 44 15.5 71.5t38.5 42.5q-76 -41 -76 -127q0 -46 20.5 -78t51 -56
t66.5 -43.5t66.5 -42t51 -51t20.5 -70.5q0 -38 -9.5 -63.5t-28.5 -48.5q29 23 46.5 52.5t17.5 71.5t-20.5 71.5t-51.5 52.5t-67 43t-67 44t-52 55t-22 76zM97 134q-3 -32 -4 -53t-1 -46q17 -10 40.5 -18t50.5 -11q-39 20 -59.5 52.5t-26.5 75.5zM453 511q2 29 4 50t2 44
q-34 14 -92 23q43 -16 60 -45.5t26 -71.5zM282 659q-11 0 -22.5 16t-21.5 37.5t-16.5 42t-6.5 29.5q0 15 14 15q7 0 16 -5.5t18.5 -14t18 -18.5t14.5 -18q6 8 13.5 17t15.5 17t15.5 13.5t13.5 5.5q8 0 8 -9q0 -10 -8 -31t-19 -42.5t-24 -38t-23 -16.5h-6zM289 675
q4 0 11.5 10t15 22.5t13.5 24.5t6 15l-2 1q-2 0 -8 -6.5t-13 -15.5t-13.5 -18t-10.5 -14q-4 6 -11 16t-13.5 19t-12.5 16t-8 7t-2 -2q0 -6 6 -18.5t13.5 -25t15 -22t10.5 -9.5h3z" />
    <glyph glyph-name="scaron" unicode="&#x161;" horiz-adv-x="446" 
d="M303 93q0 16 -19 26t-47 18.5t-61.5 17.5t-61.5 25t-47 40t-19 63q0 59 50.5 97t136.5 38t126 -25.5t40 -58.5q0 -26 -19.5 -40t-48.5 -14q-15 0 -28 3q4 8 4 21q0 21 -18 39t-67 18q-41 0 -58.5 -14.5t-17.5 -34.5q0 -19 19 -29t47 -18.5t61.5 -16.5t61.5 -22.5t47 -38
t19 -60.5q0 -35 -16 -60.5t-43 -42t-62.5 -25t-74.5 -8.5q-78 0 -117.5 20.5t-39.5 55.5q0 29 20.5 43.5t49.5 14.5q11 0 22 -3q-2 -3 -2 -7.5v-8.5q0 -29 21 -45t59 -16q39 0 61 12.5t22 35.5zM125 375q-23 -12 -39.5 -34.5t-16.5 -51.5q0 -16 4.5 -33t18.5 -33t40 -30
t69 -25q37 -9 61 -17t38 -16t19.5 -17t5.5 -21q0 -28 -19 -44q37 22 37 55q0 16 -8 27t-24.5 19.5t-42 16.5t-61.5 18q-65 18 -90.5 42.5t-25.5 62.5q0 29 9.5 48t24.5 33zM239 376q89 0 89 -66q0 -9 -1 -14q26 0 26 24q0 28 -25 43t-57 15q-10 0 -16.5 -0.5t-15.5 -1.5z
M211 8q-52 0 -85.5 20t-33.5 58q0 8 2 18q-11 -2 -18 -10t-7 -23q0 -17 11.5 -29t28.5 -19.5t38 -11.5t40 -4h12t12 1zM215 446q-12 0 -26 19t-26 44t-19.5 49t-7.5 35q0 18 16 18q9 0 19.5 -6.5t21.5 -16.5t21 -21.5t17 -21.5q6 9 15 20t18.5 20t18.5 15.5t16 6.5
q9 0 9 -11t-9 -36t-22.5 -50.5t-28.5 -44.5t-27 -19h-6zM223 465q4 0 13 11.5t18 26.5t16 28.5t7 17.5q0 2 -2 2q-3 0 -10 -7.5t-15 -18t-16 -21.5t-12 -17q-5 7 -13 18.5t-16 22.5t-15 19t-10 8q-2 0 -2 -2q0 -8 6.5 -22.5t15.5 -29t18 -25.5t13 -11h4z" />
    <glyph glyph-name="Ydieresis" unicode="&#x178;" horiz-adv-x="600" 
d="M375 102q0 -23 2.5 -37.5t10.5 -23.5t22.5 -14t38.5 -8v-21q-38 1 -84 1.5t-83 0.5q-36 0 -66 -1t-59 -2v22q23 2 37.5 6.5t22.5 13.5t11 24t3 37v145q0 23 -6 41.5t-17 39.5l-130 245q-14 25 -28.5 36t-41.5 15v21q35 -1 69 -1.5t69 -0.5t68.5 0.5t72.5 1.5v-22
q-27 -2 -40 -6.5t-13 -15.5q0 -12 5.5 -24.5t13.5 -29.5l98 -215q17 31 37.5 70.5t38.5 77t30 68t12 44.5q0 16 -15 22.5t-48 8.5v21q25 -1 49.5 -2t49.5 -1t45.5 0.5t37.5 1.5v-19q-34 -4 -53 -17.5t-30 -36.5l-110 -215q-9 -20 -14.5 -39.5t-5.5 -48.5v-163zM294 17
q-15 9 -20 23t-5 34v185q0 13 -1 23t-4 19.5t-7 19t-10 22.5q-16 30 -37.5 69.5t-41 77t-33 68t-13.5 42.5q0 13 9 21q-11 -1 -18 -1h-14q-20 0 -39 3q13 -8 20 -17.5t14 -22.5l128 -246q14 -24 20 -42.5t6 -43.5v-169q0 -47 -33 -66q14 2 23 2.5t20 0.5q10 0 16.5 -0.5z
M489 592q0 -9 -2.5 -17.5t-4.5 -16.5l18 31q6 11 15.5 20t23.5 14h-38h-19.5t-17.5 1q10 -2 17.5 -10t7.5 -22zM257 808q29 0 44.5 -14.5t15.5 -40.5t-16 -42t-45 -16q-28 0 -43.5 15t-15.5 40q0 27 17 42.5t43 15.5zM449 808q27 0 42.5 -14.5t15.5 -40.5t-16.5 -42
t-45.5 -16q-27 0 -43 15t-16 40q0 27 18.5 42.5t44.5 15.5zM213 752q0 -20 12.5 -31t30.5 -13q-11 9 -17 22t-6 26q0 22 9 37q-29 -9 -29 -41zM403 751q0 -21 12 -31.5t30 -12.5q-11 9 -17 22t-6 27q0 21 9 36q-28 -9 -28 -41z" />
    <glyph glyph-name="Zcaron" unicode="&#x17d;" horiz-adv-x="583" 
d="M217 29h99q177 0 214 166l26 -3q-4 -52 -10.5 -99t-18.5 -91l-7 -6q-40 1 -91.5 2t-100.5 2t-89 1h-57q-32 0 -64.5 -1t-62.5 -2l-6 13l326 597h-105q-86 0 -137 -36t-85 -109l-19 6q3 27 6.5 48t6.5 40t7 38.5t9 42.5l8 7q65 -2 136.5 -3.5t143.5 -1.5q51 0 102.5 1.5
t93.5 1.5l8 -16zM102 28l326 581h-31q-76 -143 -159 -292.5t-160 -289.5zM513 30q8 30 14 60.5t10 65.5q-15 -45 -43 -78.5t-79 -47.5h98zM73 615q-8 -27 -13.5 -57.5t-13.5 -68.5q22 51 54.5 80.5t83.5 41.5q-30 0 -57.5 1t-53.5 3zM298 659q-11 0 -22.5 16t-21.5 37.5
t-16.5 42t-6.5 29.5q0 15 14 15q7 0 16 -5.5t18.5 -14t18 -18.5t14.5 -18q6 8 13.5 17t15.5 17t15.5 13.5t13.5 5.5q8 0 8 -9q0 -10 -8 -31t-19 -42.5t-24 -38t-23 -16.5h-6zM305 675q4 0 11.5 10t15 22.5t13.5 24.5t6 15l-2 1q-2 0 -8 -6.5t-13 -15.5t-13.5 -18t-10.5 -14
q-4 6 -11 16t-13.5 19t-12.5 16t-8 7t-2 -2q0 -6 6 -18.5t13.5 -25t15 -22t10.5 -9.5h3z" />
    <glyph glyph-name="zcaron" unicode="&#x17e;" horiz-adv-x="442" 
d="M313 365l-238 -293q-4 -5 -7 -11t-3 -14q0 -10 4 -18l268 336h-24zM163 365q-44 0 -62 -30t-30 -95h-16q-13 29 -24 62.5t-11 59.5q0 25 10.5 33t40.5 8h320q16 -19 16 -38q0 -14 -6 -27.5t-15 -25.5l-222 -278h111q46 0 67.5 27.5t30.5 87.5h18q13 -32 20.5 -65.5
t7.5 -48.5q0 -20 -9.5 -27.5t-38.5 -7.5h-314l-9 18t-5 24t9.5 29.5t29.5 39.5l208 254h-127zM53 313q0 33 17.5 51t58.5 20h-70q-19 0 -19 -20q0 -16 4 -31.5t9 -32.5v13zM389 70q0 19 -5 41q-1 -16 -6.5 -32t-16 -29.5t-26.5 -22.5t-38 -10q23 1 40.5 3t29 7.5t17 15
t5.5 27.5zM216 446q-12 0 -26 19t-26 44t-19.5 49t-7.5 35q0 18 16 18q9 0 19.5 -6.5t21.5 -16.5t21 -21.5t17 -21.5q6 9 15 20t18.5 20t18.5 15.5t16 6.5q9 0 9 -11t-9 -36t-22.5 -50.5t-28.5 -44.5t-27 -19h-6zM224 465q4 0 13 11.5t18 26.5t16 28.5t7 17.5q0 2 -2 2
q-3 0 -10 -7.5t-15 -18t-16 -21.5t-12 -17q-5 7 -13 18.5t-16 22.5t-15 19t-10 8q-2 0 -2 -2q0 -8 6.5 -22.5t15.5 -29t18 -25.5t13 -11h4z" />
    <glyph glyph-name="florin" unicode="&#x192;" horiz-adv-x="496" 
d="M236 602q-33 -23 -55 -68.5t-22 -113.5q0 -50 3.5 -121.5t8 -144.5t8 -135.5t3.5 -94.5q0 -23 -6 -38.5t-23 -24.5q26 9 38 28.5t12 47.5q0 41 -3.5 101t-8 128t-8 138.5t-3.5 133.5q0 65 13 101.5t43 62.5zM316 586q26 -1 39 -15.5t13 -35.5q0 -13 -5 -22.5t-13 -17.5
q3 -3 8 -4.5t10 -1.5q14 0 21 8t7 22q0 29 -16.5 48.5t-47.5 19.5h-7.5t-8.5 -1zM264 -11q-1 -51 -14 -87t-34 -58.5t-49 -32.5t-59 -10q-50 0 -78.5 22.5t-28.5 59.5q0 49 41 73q20 -33 42 -59t46 -26q17 0 26 12t9 46q0 39 -2.5 88.5t-6 104.5t-7 112t-5.5 110h-99l-3 24
q31 5 53.5 10t45.5 10v26q0 58 15.5 102t42.5 74t63.5 45t78.5 15q57 0 87.5 -27.5t30.5 -69.5q0 -40 -23 -60.5t-59 -20.5q-14 0 -28.5 5t-23.5 16q24 13 24 42q0 17 -11 28t-30 11q-26 0 -43 -20t-17 -55q0 -29 5.5 -57.5t12.5 -51.5h146l-5 -46h-135zM110 -183
q10 0 20.5 2t16.5 4q-3 -1 -7.5 -1.5t-12.5 -0.5q-43 0 -67.5 23.5t-24.5 66.5q0 12 3 21q-8 -8 -13.5 -20t-5.5 -27q0 -18 8 -30.5t20.5 -21t29 -12.5t33.5 -4z" />
    <glyph glyph-name="circumflex" unicode="&#x2c6;" 
d="M246 626q16 0 32.5 -19t30 -45t22 -52.5t8.5 -40.5q0 -10 -6 -15t-14 -5q-11 0 -23.5 6t-24.5 15t-22.5 20.5t-18.5 22.5q-9 -10 -18.5 -20.5t-19 -19t-19 -14t-18.5 -5.5t-9 13q0 7 4.5 21.5t12.5 32.5t18 36.5t20.5 33.5t20.5 25t19 10h5zM229 569q-5 0 -15 -12.5
t-20.5 -28t-18.5 -29.5t-8 -18q0 -2 3 -2t11 7.5t17.5 17.5t18 20.5t13.5 16.5q5 -7 15 -18.5t20.5 -22t20 -18.5t13.5 -8q2 0 2 2q0 5 -9 20t-21 31.5t-23 29t-15 12.5h-4z" />
    <glyph glyph-name="tilde" unicode="&#x2dc;" 
d="M359 616q17 -17 28 -42t11 -49q0 -51 -61 -51q-17 0 -40 4t-46 9t-43.5 9t-32.5 4q-14 0 -17.5 -8t-3.5 -20q0 -5 0.5 -10t1.5 -11l-13 -2q-13 15 -27 35.5t-14 45.5q0 27 16.5 44.5t46.5 17.5q19 0 41.5 -4.5t45 -9.5t43.5 -9.5t36 -4.5q12 0 16.5 6t4.5 16q0 14 -4 27z
M372 530q-4 -22 -33 -22q-13 0 -35.5 4t-47 9t-48 9t-39.5 4q-38 0 -38 -27q0 -8 4 -16t9 -15q-1 5 -1 11q0 29 30 29q12 0 33 -4t44.5 -9t47 -9t41.5 -4q38 0 38 25q0 8 -5 15z" />
    <glyph glyph-name="endash" unicode="&#x2013;" 
d="M80 257h340v-42h-340v42z" />
    <glyph glyph-name="emdash" unicode="&#x2014;" horiz-adv-x="770" 
d="M80 257h610v-42h-610v42z" />
    <glyph glyph-name="quoteleft" unicode="&#x2018;" horiz-adv-x="284" 
d="M115 596q-17 -14 -31.5 -38.5t-14.5 -53.5q0 -33 21 -52.5t47 -19.5q17 0 26.5 3.5t17.5 11.5q-5 -1 -9.5 -1h-9.5q-30 0 -52 17t-22 50q0 23 7 44.5t20 38.5zM214 650q-38 -18 -61 -41.5t-23 -49.5q0 -15 10.5 -22.5t25.5 -7.5q8 0 14 0.5t16 2.5q16 -26 16 -54
q0 -23 -18.5 -43.5t-56.5 -20.5t-62.5 25t-24.5 66q0 28 13.5 52.5t35 45t49.5 36.5t57 27z" />
    <glyph glyph-name="quoteright" unicode="&#x2019;" horiz-adv-x="284" 
d="M70 435q38 18 61 41.5t23 49.5q0 15 -10.5 22.5t-25.5 7.5q-8 0 -14 -0.5t-16 -2.5q-16 26 -16 54q0 23 18.5 43.5t56.5 20.5t62.5 -25t24.5 -66q0 -28 -13.5 -52.5t-35 -45t-49.5 -36.5t-57 -27zM171 532q0 -18 -11 -38q22 25 22 55q0 21 -11 27.5t-25.5 11t-28 12.5
t-19.5 33q-8 -11 -8 -27q0 -8 2 -17.5t7 -18.5q8 2 13.5 2h12.5q17 0 31.5 -10t14.5 -30z" />
    <glyph glyph-name="quotesinglbase" unicode="&#x201a;" horiz-adv-x="284" 
d="M70 -115q38 18 61 41.5t23 49.5q0 15 -10.5 22.5t-25.5 7.5q-8 0 -14 -0.5t-16 -2.5q-16 26 -16 54q0 23 18.5 43.5t56.5 20.5t62.5 -25t24.5 -66q0 -28 -13.5 -52.5t-35 -45t-49.5 -36.5t-57 -27zM171 -18q0 -18 -11 -38q22 25 22 55q0 21 -11 27.5t-25.5 11t-28 12.5
t-19.5 33q-8 -11 -8 -27q0 -8 2 -17.5t7 -18.5q8 2 13.5 2h12.5q17 0 31.5 -10t14.5 -30z" />
    <glyph glyph-name="quotedblleft" unicode="&#x201c;" horiz-adv-x="477" 
d="M115 596q-17 -14 -31.5 -38.5t-14.5 -53.5q0 -33 21 -52.5t47 -19.5q17 0 26.5 3.5t17.5 11.5q-5 -1 -9.5 -1h-9.5q-30 0 -52 17t-22 50q0 23 7 44.5t20 38.5zM407 650q-38 -18 -61 -41.5t-23 -49.5q0 -15 10.5 -22.5t25.5 -7.5q8 0 14 0.5t16 2.5q16 -26 16 -54
q0 -23 -18.5 -43.5t-56.5 -20.5t-62.5 25t-24.5 66q0 28 13.5 52.5t35 45t49.5 36.5t57 27zM214 650q-38 -18 -61 -41.5t-23 -49.5q0 -15 10.5 -22.5t25.5 -7.5q8 0 14 0.5t16 2.5q16 -26 16 -54q0 -23 -18.5 -43.5t-56.5 -20.5t-62.5 25t-24.5 66q0 28 13.5 52.5t35 45
t49.5 36.5t57 27zM308 596q-17 -14 -31.5 -38.5t-14.5 -53.5q0 -33 21 -52.5t47 -19.5q17 0 26.5 3.5t17.5 11.5q-5 -1 -9.5 -1h-9.5q-30 0 -52 17t-22 50q0 23 7 44.5t20 38.5z" />
    <glyph glyph-name="quotedblright" unicode="&#x201d;" horiz-adv-x="477" 
d="M70 435q38 18 61 41.5t23 49.5q0 15 -10.5 22.5t-25.5 7.5q-8 0 -14 -0.5t-16 -2.5q-16 26 -16 54q0 23 18.5 43.5t56.5 20.5t62.5 -25t24.5 -66q0 -28 -13.5 -52.5t-35 -45t-49.5 -36.5t-57 -27zM171 532q0 -18 -11 -38q22 25 22 55q0 21 -11 27.5t-25.5 11t-28 12.5
t-19.5 33q-8 -11 -8 -27q0 -8 2 -17.5t7 -18.5q8 2 13.5 2h12.5q17 0 31.5 -10t14.5 -30zM263 435q38 18 61 41.5t23 49.5q0 15 -10.5 22.5t-25.5 7.5q-8 0 -14 -0.5t-16 -2.5q-16 26 -16 54q0 23 18.5 43.5t56.5 20.5t62.5 -25t24.5 -66q0 -28 -13.5 -52.5t-35 -45
t-49.5 -36.5t-57 -27zM364 532q0 -18 -11 -38q22 25 22 55q0 21 -11 27.5t-25.5 11t-28 12.5t-19.5 33q-8 -11 -8 -27q0 -8 2 -17.5t7 -18.5q8 2 13.5 2h12.5q17 0 31.5 -10t14.5 -30z" />
    <glyph glyph-name="quotedblbase" unicode="&#x201e;" horiz-adv-x="477" 
d="M70 -115q38 18 61 41.5t23 49.5q0 15 -10.5 22.5t-25.5 7.5q-8 0 -14 -0.5t-16 -2.5q-16 26 -16 54q0 23 18.5 43.5t56.5 20.5t62.5 -25t24.5 -66q0 -28 -13.5 -52.5t-35 -45t-49.5 -36.5t-57 -27zM171 -18q0 -18 -11 -38q22 25 22 55q0 21 -11 27.5t-25.5 11t-28 12.5
t-19.5 33q-8 -11 -8 -27q0 -8 2 -17.5t7 -18.5q8 2 13.5 2h12.5q17 0 31.5 -10t14.5 -30zM263 -115q38 18 61 41.5t23 49.5q0 15 -10.5 22.5t-25.5 7.5q-8 0 -14 -0.5t-16 -2.5q-16 26 -16 54q0 23 18.5 43.5t56.5 20.5t62.5 -25t24.5 -66q0 -28 -13.5 -52.5t-35 -45
t-49.5 -36.5t-57 -27zM364 -18q0 -18 -11 -38q22 25 22 55q0 21 -11 27.5t-25.5 11t-28 12.5t-19.5 33q-8 -11 -8 -27q0 -8 2 -17.5t7 -18.5q8 2 13.5 2h12.5q17 0 31.5 -10t14.5 -30z" />
    <glyph glyph-name="dagger" unicode="&#x2020;" horiz-adv-x="597" 
d="M371 607q0 -20 -7 -48t-16 -56.5t-18 -54t-14 -39.5l-28 1q-5 13 -13 38t-16 53.5t-14 56t-6 47.5q0 26 15 45.5t51 19.5q30 0 48 -18.5t18 -44.5zM118 441q15 0 33.5 -5.5t38.5 -13.5t40 -18t39 -19v-22q-35 -14 -76 -27.5t-73 -13.5q-30 0 -50 15t-20 44q0 28 18 44
t50 16zM482 314q-15 0 -33.5 5t-38 11.5t-38.5 15t-36 16.5v22q15 7 34.5 16t39 16t38 12t33.5 5q32 0 52 -14.5t20 -42.5q0 -24 -19.5 -43t-51.5 -19zM277 -258q-4 29 -9.5 69.5t-11 86t-10.5 91.5t-9 85t-6.5 67.5t-2.5 38.5q0 51 18.5 90.5t38.5 64.5l33 -1
q21 -26 37.5 -64.5t16.5 -92.5q0 -9 -3.5 -37.5t-8.5 -67t-12 -84.5t-13.5 -91.5t-13 -86t-11.5 -68.5h-33zM85 360q0 -11 8.5 -15t21.5 -4q24 0 58.5 8.5t67.5 19.5l-139 4q-17 0 -17 -13zM513 356q0 13 -17 13h-137q33 -11 66.5 -21.5t57.5 -10.5q13 0 21.5 4t8.5 15z
M261 602q0 -14 3.5 -34t8.5 -42.5t12 -46t15 -44.5l-4 167q0 27 -17 27q-18 0 -18 -27zM251 186q0 -26 3.5 -66.5t8.5 -91t12 -108.5t13 -117l-4 383q0 26 -2.5 45.5t-10.5 41.5q-8 -17 -14 -38.5t-6 -48.5z" />
    <glyph glyph-name="daggerdbl" unicode="&#x2021;" horiz-adv-x="604" 
d="M286 77q-21 26 -38 56.5t-17 73.5q0 42 17 72.5t38 53.5h31q23 -23 40 -53.5t17 -72.5t-17.5 -74.5t-37.5 -55.5h-33zM370 607q0 -20 -7 -48t-16 -56.5t-18 -54t-14 -39.5h-28q-5 13 -13 38t-16 53.5t-14 56.5t-6 48q0 26 15 45.5t51 19.5q30 0 48 -18.5t18 -44.5z
M117 441q15 0 33.5 -5.5t38.5 -13.5t40 -18t39 -19v-22q-35 -14 -76 -27.5t-73 -13.5q-30 0 -50 15t-20 44q0 28 18 44t50 16zM481 314q-15 0 -33.5 5t-38 11.5t-38.5 15t-36 16.5v22q15 7 34.5 16t39 16t38 12t33.5 5q32 0 52 -14.5t20 -42.5q0 -24 -19.5 -43t-51.5 -19z
M84 360q0 -11 8.5 -15t21.5 -4q24 0 58.5 8.5t67.5 19.5l-139 4q-17 0 -17 -13zM512 356q0 13 -17 13h-137q33 -11 66.5 -21.5t57.5 -10.5q13 0 21.5 4t8.5 15zM260 602q0 -14 3.5 -34t8.5 -42.5t12 -46t15 -44.5l-4 167q0 27 -17 27q-18 0 -18 -27zM233 -195q0 19 7 47.5
t16 57t18 54t14 39.5h28q5 -14 13 -39t16 -53.5t14 -56.5t6 -47q0 -26 -15 -45.5t-51 -19.5q-30 0 -48 18.5t-18 44.5zM486 -29q-15 0 -33.5 5.5t-38.5 13.5t-40 18t-39 19v22q35 14 76 27.5t73 13.5q30 0 50 -15t20 -44q0 -28 -18 -44t-50 -16zM122 98q15 0 33.5 -5
t38 -11.5t38.5 -15t36 -16.5v-22q-15 -8 -34.5 -16.5t-39 -15.5t-38 -12t-33.5 -5q-32 0 -52 14.5t-20 42.5q0 24 19.5 43t51.5 19zM519 52q0 11 -8.5 15t-21.5 4q-24 0 -58.5 -8.5t-67.5 -19.5l139 -4q17 0 17 13zM91 56q0 -13 17 -13h137q-33 11 -66.5 21.5t-57.5 10.5
q-13 0 -21.5 -4t-8.5 -15zM343 -190q0 14 -3.5 33.5t-8.5 42t-12.5 46.5t-14.5 45l4 -167q0 -27 17 -27q18 0 18 27zM256 208q0 -30 11 -55.5t25 -45.5v198q-15 -19 -25.5 -42t-10.5 -55z" />
    <glyph glyph-name="bullet" unicode="&#x2022;" horiz-adv-x="495" 
d="M124 277q0 23 8.5 45.5t24.5 40t39 28t52 10.5q57 0 90.5 -34t33.5 -91q0 -24 -9 -46.5t-25 -39.5t-39 -27t-51 -10q-24 0 -46.5 8t-40 23.5t-27.5 38.5t-10 54zM145 276q0 -45 26.5 -73t71.5 -32q-35 14 -51.5 45.5t-16.5 67.5q0 30 11 52.5t28 39.5q-32 -11 -50.5 -39
t-18.5 -61z" />
    <glyph glyph-name="ellipsis" unicode="&#x2026;" horiz-adv-x="726" 
d="M64 61q0 27 20 47.5t52 20.5q34 0 53 -19.5t19 -50.5q0 -29 -20 -49t-52 -20q-31 0 -51.5 19t-20.5 52zM82 60q0 -24 14 -39t37 -17q-15 13 -21.5 29.5t-6.5 31.5q0 16 3.5 26t8.5 21q-16 -5 -25.5 -18.5t-9.5 -33.5zM294 61q0 27 20 47.5t52 20.5q34 0 53 -19.5
t19 -50.5q0 -29 -20 -49t-52 -20q-31 0 -51.5 19t-20.5 52zM312 60q0 -24 14 -39t37 -17q-15 13 -21.5 29.5t-6.5 31.5q0 16 3.5 26t8.5 21q-16 -5 -25.5 -18.5t-9.5 -33.5zM524 61q0 27 20 47.5t52 20.5q34 0 53 -19.5t19 -50.5q0 -29 -20 -49t-52 -20q-31 0 -51.5 19
t-20.5 52zM542 60q0 -24 14 -39t37 -17q-15 13 -21.5 29.5t-6.5 31.5q0 16 3.5 26t8.5 21q-16 -5 -25.5 -18.5t-9.5 -33.5z" />
    <glyph glyph-name="perthousand" unicode="&#x2030;" horiz-adv-x="1338" 
d="M622 682l40 -16l-302 -693l-40 16zM240 639q38 0 66 -15t47 -41t28 -61t9 -75q0 -41 -11.5 -77.5t-31.5 -63.5t-48.5 -43t-61.5 -16q-36 0 -64 15t-46.5 40.5t-28.5 60t-10 74.5q0 43 11 79.5t31 63.5t48 43t62 16zM240 618q-18 0 -30.5 -16t-20 -41t-10.5 -56t-3 -62
q0 -33 4 -65t12 -56.5t20 -40t28 -15.5q18 0 30 15t19.5 39t10.5 54.5t3 62.5q0 30 -3 62.5t-10.5 58.5t-19.5 43t-30 17zM331 451q0 29 -4.5 57t-12.5 50.5t-20 39t-28 22.5q26 -14 37.5 -61t11.5 -109q0 -75 -10 -120t-42 -67q22 13 35 32.5t20.5 44t10 53t2.5 58.5z
M114 446q0 40 7.5 69.5t19.5 50.5t26 34t27 19q-15 -7 -31.5 -20.5t-30.5 -34.5t-23 -50.5t-9 -67.5q0 -45 9.5 -78t25.5 -55.5t36.5 -35t41.5 -18.5q-41 12 -69 55.5t-30 131.5zM730 384q38 0 66 -15t47 -41t28 -61t9 -75q0 -41 -11.5 -77.5t-31.5 -63.5t-48.5 -43
t-61.5 -16q-36 0 -64 15t-46.5 40.5t-28.5 60t-10 74.5q0 43 11 79.5t31 63.5t48 43t62 16zM730 363q-18 0 -30.5 -16t-20 -41t-10.5 -56t-3 -62q0 -33 4 -65t12 -56.5t20 -40t28 -15.5q18 0 30 15t19.5 39t10.5 54.5t3 62.5q0 30 -3 62.5t-10.5 58.5t-19.5 43t-30 17z
M821 196q0 29 -4.5 57t-12.5 50.5t-20 39t-28 22.5q26 -14 37.5 -61t11.5 -109q0 -75 -10 -120t-42 -67q22 13 35 32.5t20.5 44t10 53t2.5 58.5zM604 191q0 40 7.5 69.5t19.5 50.5t26 34t27 19q-15 -7 -31.5 -20.5t-30.5 -34.5t-23 -50.5t-9 -67.5q0 -45 9.5 -78t25.5 -55.5
t36.5 -35t41.5 -18.5q-41 12 -69 55.5t-30 131.5zM1100 384q38 0 66 -15t47 -41t28 -61t9 -75q0 -41 -11.5 -77.5t-31.5 -63.5t-48.5 -43t-61.5 -16q-36 0 -64 15t-46.5 40.5t-28.5 60t-10 74.5q0 43 11 79.5t31 63.5t48 43t62 16zM1100 363q-18 0 -30.5 -16t-20 -41
t-10.5 -56t-3 -62q0 -33 4 -65t12 -56.5t20 -40t28 -15.5q18 0 30 15t19.5 39t10.5 54.5t3 62.5q0 30 -3 62.5t-10.5 58.5t-19.5 43t-30 17zM1191 196q0 29 -4.5 57t-12.5 50.5t-20 39t-28 22.5q26 -14 37.5 -61t11.5 -109q0 -75 -10 -120t-42 -67q22 13 35 32.5t20.5 44
t10 53t2.5 58.5zM974 191q0 40 7.5 69.5t19.5 50.5t26 34t27 19q-15 -7 -31.5 -20.5t-30.5 -34.5t-23 -50.5t-9 -67.5q0 -45 9.5 -78t25.5 -55.5t36.5 -35t41.5 -18.5q-41 12 -69 55.5t-30 131.5z" />
    <glyph glyph-name="guilsinglleft" unicode="&#x2039;" horiz-adv-x="350" 
d="M45 209q0 9 16 25t43 35.5t62.5 39.5t74.5 35q4 2 11 2q11 0 19.5 -8.5t8.5 -16.5q0 -6 -14 -21t-33.5 -32.5t-39.5 -34t-32 -25.5q13 -11 33.5 -28.5t39.5 -35.5t32.5 -34t13.5 -24q0 -9 -8 -16.5t-19 -7.5q-5 0 -11 2q-32 12 -66.5 32t-63.5 40.5t-48 39t-19 27.5v6z
M67 199q15 -16 35 -32t43 -31t47.5 -29t47.5 -24q6 -3 11 -3q8 0 13 6q-5 1 -14 5.5t-20 10.5q-17 9 -37.5 23t-41.5 30t-40 32.5t-31 28.5q-3 3 -5 3q-3 0 -7.5 -4.5t-4.5 -8.5q0 -3 4 -7z" />
    <glyph glyph-name="guilsinglright" unicode="&#x203a;" horiz-adv-x="350" 
d="M305 203q0 -9 -19 -27.5t-48 -39t-64 -40.5t-66 -32q-6 -2 -11 -2q-11 0 -19 7.5t-8 16.5q0 8 13.5 24t32.5 34t39 35.5t34 28.5q-12 9 -32 25.5t-39.5 34t-33.5 32.5t-14 21q0 8 8.5 16.5t19.5 8.5q7 0 11 -2q39 -15 74.5 -35t62.5 -39.5t43 -35.5t16 -25v-6zM283 199
q4 4 4 7q0 4 -4.5 8.5t-7.5 4.5q-2 0 -5 -3q-10 -14 -28.5 -30.5t-40 -32t-43.5 -29t-38 -22.5q-11 -6 -20 -10.5t-14 -5.5q4 -6 13 -6q5 0 11 3q23 10 47.5 24t47.5 29t43 31t35 32z" />
    <glyph glyph-name="Euro" unicode="&#x20ac;" horiz-adv-x="672" 
d="M132 299q0 -69 20 -124t56 -94t87.5 -60t114.5 -21q34 0 62.5 6.5t49.5 17t33 23t12 24.5q0 7 -6 7q-43 -59 -148 -59q-54 0 -101 18.5t-82 54.5t-55 88t-20 119q0 98 34 175.5t101 118.5q-30 -15 -58.5 -42.5t-50.5 -65t-35.5 -84.5t-13.5 -102zM384 562q60 0 95 -28
t46 -76q25 3 25 25q0 17 -9.5 32t-26.5 26.5t-39.5 18t-49.5 6.5q-8 0 -20 -0.5t-21 -3.5zM241 227q20 -69 68 -103.5t111 -34.5q48 0 82.5 17t58.5 46q29 -21 29 -58q0 -46 -48.5 -77t-139.5 -31q-113 0 -188 61.5t-95 179.5h-83l4 42h75q-1 5 -1 14v15q0 7 0.5 15t1.5 16
h-78l7 41h75q12 68 40 119t68.5 84.5t91 50t107.5 16.5q48 0 83 -9.5t58 -25.5t34 -38t11 -47q0 -42 -27.5 -60.5t-73.5 -18.5q-5 21 -14 39.5t-24.5 33t-37 23t-51.5 8.5q-35 0 -63 -13.5t-48 -37t-32.5 -55.5t-16.5 -69h269l-8 -41h-261q0 -14 1.5 -31.5t4.5 -28.5h247
l-9 -42h-228z" />
    <glyph glyph-name="trademark" unicode="&#x2122;" horiz-adv-x="834" 
d="M673 370q-17 0 -34 -1.5t-30 -1.5v17q21 4 27 12.5t6 25.5v146q-23 -48 -45 -99.5t-45 -99.5h-28q-22 45 -47 96.5t-49 98.5v-142q0 -18 6 -26t31 -10v-19q-14 0 -27.5 1t-32.5 1q-14 0 -29 -0.5t-28 -1.5v19q25 2 30 9.5t5 27.5v158q0 19 -5 27.5t-25 11.5v21h106
l90 -186l83 188q17 -2 27.5 -2h21.5q15 0 27.5 0.5t23.5 1.5v-22q-20 -4 -25 -13t-5 -29v-152q0 -21 5 -30t28 -11v-17q-14 0 -26.5 0.5t-35.5 0.5zM223 417q0 -20 7.5 -26t27.5 -8v-16q-13 0 -34 1t-28 1q-13 0 -30.5 -1t-34.5 -1v16q22 2 28.5 8.5t6.5 25.5v198
q-29 0 -51 -15.5t-33 -43.5l-16 3q2 17 7.5 42t10.5 39h223q5 -14 10 -39t7 -42l-16 -3q-25 59 -85 59v-198z" />
    </font>
</defs>
</svg>
